<mxfile host="Electron" modified="2023-07-09T13:24:17.295Z" agent="Mozilla/5.0 (Macintosh; Intel Mac OS X 10_15_7) AppleWebKit/537.36 (KHTML, like Gecko) draw.io/21.6.1 Chrome/112.0.5615.204 Electron/24.6.1 Safari/537.36" etag="8ku55SpA8tYo2PXb6ki6" version="21.6.1" type="device">
  <diagram name="Page-1" id="IanU65lXr5YfgjGVrclR">
    <mxGraphModel dx="2036" dy="1555" grid="1" gridSize="10" guides="1" tooltips="1" connect="1" arrows="1" fold="1" page="1" pageScale="1" pageWidth="1169" pageHeight="827" math="0" shadow="0">
      <root>
        <mxCell id="0" />
        <mxCell id="1" parent="0" visible="0" />
        <mxCell id="ejBQTjxxGpx7nVnpFVH0-9" value="&lt;font style=&quot;font-size: 18px;&quot;&gt;Orchestrator&lt;/font&gt;" style="ellipse;whiteSpace=wrap;html=1;fontSize=18;" parent="1" vertex="1">
          <mxGeometry x="910" y="630" width="120" height="80" as="geometry" />
        </mxCell>
        <mxCell id="ejBQTjxxGpx7nVnpFVH0-12" value="&lt;font style=&quot;font-size: 16px;&quot;&gt;RequestApproval:&lt;br&gt;&lt;div style=&quot;background-color: rgb(255, 255, 254); line-height: 18px;&quot;&gt;&lt;div style=&quot;line-height: 18px;&quot;&gt;&lt;br&gt;&lt;div style=&quot;line-height: 18px;&quot;&gt;&lt;div&gt;{&lt;/div&gt;&lt;div&gt;    &quot;type&quot;: &lt;span style=&quot;color: #0451a5;&quot;&gt;&quot;sqlDataRequest&quot;&lt;/span&gt;,&lt;/div&gt;&lt;div&gt;    &lt;span style=&quot;color: #a31515;&quot;&gt;&quot;user&quot;&lt;/span&gt;: {&lt;/div&gt;&lt;div&gt;        &lt;span style=&quot;color: #a31515;&quot;&gt;&quot;ID&quot;&lt;/span&gt;: &lt;span style=&quot;color: #0451a5;&quot;&gt;&quot;&amp;lt;GUID&amp;gt;&quot;&lt;/span&gt;,&lt;/div&gt;&lt;div&gt;        &lt;span style=&quot;color: #a31515;&quot;&gt;&quot;userName&quot;&lt;/span&gt;: &lt;span style=&quot;color: #0451a5;&quot;&gt;&quot;jstutterheim@uva.nl&quot;&lt;/span&gt;&lt;/div&gt;&lt;div&gt;        &lt;span style=&quot;color: #5f8fbf;&quot;&gt;// Actual loginToken features....&lt;/span&gt;&lt;/div&gt;&lt;div&gt;    },&lt;/div&gt;&lt;div&gt;    &lt;span style=&quot;color: #a31515;&quot;&gt;&quot;providers&quot;&lt;/span&gt;: [&lt;span style=&quot;color: #0451a5;&quot;&gt;&quot;VU&quot;&lt;/span&gt;,&lt;span style=&quot;color: #0451a5;&quot;&gt;&quot;UVA&quot;&lt;/span&gt;,&lt;span style=&quot;color: #0451a5;&quot;&gt;&quot;RUG&quot;&lt;/span&gt;]&lt;/div&gt;&lt;div&gt;}&lt;/div&gt;&lt;/div&gt;&lt;/div&gt;&lt;/div&gt;&lt;/font&gt;" style="text;html=1;strokeColor=none;fillColor=none;align=left;verticalAlign=middle;whiteSpace=wrap;rounded=0;fontSize=18;" parent="1" vertex="1">
          <mxGeometry x="40" y="960" width="290" height="202" as="geometry" />
        </mxCell>
        <mxCell id="rK9YfflER0Mp0wtVrPLG-1" value="&lt;font style=&quot;font-size: 20px;&quot;&gt;User&lt;/font&gt;" style="sketch=0;outlineConnect=0;fontColor=#232F3E;gradientColor=none;fillColor=#232F3D;strokeColor=none;dashed=0;verticalLabelPosition=bottom;verticalAlign=top;align=center;html=1;fontSize=12;fontStyle=0;aspect=fixed;pointerEvents=1;shape=mxgraph.aws4.user;" parent="1" vertex="1">
          <mxGeometry x="41" y="630" width="78" height="78" as="geometry" />
        </mxCell>
        <mxCell id="rK9YfflER0Mp0wtVrPLG-4" value="&lt;ul&gt;&lt;li&gt;&lt;span style=&quot;background-color: initial;&quot;&gt;AccessToken&lt;/span&gt;&lt;/li&gt;&lt;li&gt;AuthorizedProviders&lt;/li&gt;&lt;li&gt;Result channel?&lt;/li&gt;&lt;/ul&gt;" style="text;html=1;strokeColor=none;fillColor=none;align=center;verticalAlign=middle;whiteSpace=wrap;rounded=0;fontSize=18;" parent="1" vertex="1">
          <mxGeometry x="320" y="858.5" width="280" height="53" as="geometry" />
        </mxCell>
        <mxCell id="rK9YfflER0Mp0wtVrPLG-6" value="&lt;span style=&quot;font-size: 21px;&quot;&gt;Composition&lt;br&gt;Request&lt;/span&gt;" style="text;html=1;strokeColor=none;fillColor=none;align=center;verticalAlign=middle;whiteSpace=wrap;rounded=0;" parent="1" vertex="1">
          <mxGeometry x="940" y="560" width="200" height="56" as="geometry" />
        </mxCell>
        <mxCell id="rK9YfflER0Mp0wtVrPLG-9" style="rounded=0;orthogonalLoop=1;jettySize=auto;html=1;entryX=0.25;entryY=0;entryDx=0;entryDy=0;dashed=1;dashPattern=12 12;" parent="1" source="rK9YfflER0Mp0wtVrPLG-7" target="ejBQTjxxGpx7nVnpFVH0-12" edge="1">
          <mxGeometry relative="1" as="geometry" />
        </mxCell>
        <mxCell id="rK9YfflER0Mp0wtVrPLG-7" value="&lt;font style=&quot;font-size: 21px;&quot;&gt;RequestApproval&lt;/font&gt;" style="text;html=1;strokeColor=none;fillColor=none;align=center;verticalAlign=middle;whiteSpace=wrap;rounded=0;" parent="1" vertex="1">
          <mxGeometry x="150" y="743" width="180" height="30" as="geometry" />
        </mxCell>
        <mxCell id="rK9YfflER0Mp0wtVrPLG-11" value="" style="edgeStyle=orthogonalEdgeStyle;rounded=0;orthogonalLoop=1;jettySize=auto;html=1;entryX=0;entryY=1;entryDx=0;entryDy=0;fontSize=18;curved=1;" parent="1" source="rK9YfflER0Mp0wtVrPLG-1" target="ejBQTjxxGpx7nVnpFVH0-27" edge="1">
          <mxGeometry relative="1" as="geometry">
            <mxPoint x="69" y="708" as="sourcePoint" />
            <mxPoint x="888" y="741" as="targetPoint" />
            <Array as="points">
              <mxPoint x="69" y="733" />
              <mxPoint x="538" y="733" />
            </Array>
          </mxGeometry>
        </mxCell>
        <mxCell id="rK9YfflER0Mp0wtVrPLG-14" style="edgeStyle=orthogonalEdgeStyle;rounded=0;orthogonalLoop=1;jettySize=auto;html=1;entryX=0.983;entryY=0.363;entryDx=0;entryDy=0;entryPerimeter=0;" parent="1" source="ejBQTjxxGpx7nVnpFVH0-27" edge="1">
          <mxGeometry relative="1" as="geometry">
            <mxPoint x="113.47000000000003" y="665.7894999999999" as="targetPoint" />
            <Array as="points">
              <mxPoint x="420" y="666" />
              <mxPoint x="420" y="666" />
            </Array>
          </mxGeometry>
        </mxCell>
        <mxCell id="rK9YfflER0Mp0wtVrPLG-15" style="edgeStyle=orthogonalEdgeStyle;rounded=0;orthogonalLoop=1;jettySize=auto;html=1;" parent="1" source="ejBQTjxxGpx7nVnpFVH0-27" target="ejBQTjxxGpx7nVnpFVH0-9" edge="1">
          <mxGeometry relative="1" as="geometry" />
        </mxCell>
        <mxCell id="ejBQTjxxGpx7nVnpFVH0-27" value="&lt;font style=&quot;font-size: 18px;&quot;&gt;Policy enforcer&lt;/font&gt;" style="ellipse;whiteSpace=wrap;html=1;fontSize=18;" parent="1" vertex="1">
          <mxGeometry x="520" y="630" width="120" height="80" as="geometry" />
        </mxCell>
        <mxCell id="rK9YfflER0Mp0wtVrPLG-22" style="rounded=0;orthogonalLoop=1;jettySize=auto;html=1;entryX=0.25;entryY=0;entryDx=0;entryDy=0;dashed=1;dashPattern=8 8;" parent="1" source="rK9YfflER0Mp0wtVrPLG-16" target="rK9YfflER0Mp0wtVrPLG-20" edge="1">
          <mxGeometry relative="1" as="geometry" />
        </mxCell>
        <mxCell id="rK9YfflER0Mp0wtVrPLG-16" value="&lt;font style=&quot;font-size: 20px;&quot;&gt;OrchestratorRequest&lt;br&gt;&lt;/font&gt;" style="text;html=1;strokeColor=none;fillColor=none;align=center;verticalAlign=middle;whiteSpace=wrap;rounded=0;" parent="1" vertex="1">
          <mxGeometry x="670" y="670" width="210" height="40" as="geometry" />
        </mxCell>
        <mxCell id="rK9YfflER0Mp0wtVrPLG-20" value="&lt;div style=&quot;border-color: var(--border-color); text-align: left; background-color: rgb(255, 255, 254); line-height: 18px; font-size: 16px;&quot;&gt;&lt;div style=&quot;border-color: var(--border-color);&quot;&gt;&lt;font style=&quot;border-color: var(--border-color); font-size: 16px;&quot;&gt;OrchestratorRequest&lt;/font&gt;&lt;/div&gt;&lt;div style=&quot;border-color: var(--border-color);&quot;&gt;&lt;div style=&quot;line-height: 18px;&quot;&gt;&lt;div&gt;{&lt;/div&gt;&lt;div&gt;    &quot;archetypeId&quot;: &lt;span style=&quot;color: #0451a5;&quot;&gt;&quot;ArcheType1&quot;&lt;/span&gt;,&lt;/div&gt;&lt;div&gt;    &lt;span style=&quot;color: #a31515;&quot;&gt;&quot;user&quot;&lt;/span&gt;: {&lt;/div&gt;&lt;div&gt;        &lt;span style=&quot;color: #a31515;&quot;&gt;&quot;ID&quot;&lt;/span&gt;: &lt;span style=&quot;color: #0451a5;&quot;&gt;&quot;&amp;lt;GUID&amp;gt;&quot;&lt;/span&gt;,&lt;/div&gt;&lt;div&gt;        &lt;span style=&quot;color: #a31515;&quot;&gt;&quot;userName&quot;&lt;/span&gt;: &lt;span style=&quot;color: #0451a5;&quot;&gt;&quot;jstutterheim@uva.nl&quot;&lt;/span&gt;&lt;/div&gt;&lt;div&gt;    },&lt;/div&gt;&lt;div&gt;    &lt;span style=&quot;color: #a31515;&quot;&gt;&quot;providers&quot;&lt;/span&gt;: [&lt;span style=&quot;color: #0451a5;&quot;&gt;&quot;VU&quot;&lt;/span&gt;,&lt;span style=&quot;color: #0451a5;&quot;&gt;&quot;UVA&quot;&lt;/span&gt;],&lt;/div&gt;&lt;div&gt;    &lt;span style=&quot;color: #a31515;&quot;&gt;&quot;request_type&quot;&lt;/span&gt;: &lt;span style=&quot;color: #0451a5;&quot;&gt;&quot;sqlDataRequest&quot;&lt;/span&gt;&lt;/div&gt;&lt;div&gt;}&lt;/div&gt;&lt;/div&gt;&lt;/div&gt;&lt;/div&gt;" style="text;html=1;strokeColor=none;fillColor=none;align=center;verticalAlign=middle;whiteSpace=wrap;rounded=0;" parent="1" vertex="1">
          <mxGeometry x="680" y="966" width="320" height="190" as="geometry" />
        </mxCell>
        <mxCell id="rK9YfflER0Mp0wtVrPLG-24" value="&lt;font style=&quot;font-size: 16px;&quot;&gt;&lt;ul style=&quot;border-color: var(--border-color);&quot;&gt;&lt;li&gt;&lt;font style=&quot;font-size: 16px;&quot;&gt;ArcheTypeId&lt;/font&gt;&lt;/li&gt;&lt;li style=&quot;border-color: var(--border-color);&quot;&gt;AuthorizedProviders&lt;/li&gt;&lt;li style=&quot;border-color: var(--border-color);&quot;&gt;User Credentials&lt;/li&gt;&lt;/ul&gt;&lt;/font&gt;" style="text;html=1;strokeColor=none;fillColor=none;align=center;verticalAlign=middle;whiteSpace=wrap;rounded=0;" parent="1" vertex="1">
          <mxGeometry x="700" y="876" width="220" height="90" as="geometry" />
        </mxCell>
        <mxCell id="rK9YfflER0Mp0wtVrPLG-25" value="&lt;font style=&quot;font-size: 16px;&quot;&gt;&lt;ul style=&quot;border-color: var(--border-color);&quot;&gt;&lt;li&gt;User credentials&lt;/li&gt;&lt;li&gt;Data providers&lt;/li&gt;&lt;/ul&gt;&lt;/font&gt;" style="text;html=1;strokeColor=none;fillColor=none;align=center;verticalAlign=middle;whiteSpace=wrap;rounded=0;" parent="1" vertex="1">
          <mxGeometry x="80" y="870" width="220" height="90" as="geometry" />
        </mxCell>
        <mxCell id="rK9YfflER0Mp0wtVrPLG-28" style="rounded=0;orthogonalLoop=1;jettySize=auto;html=1;entryX=0.25;entryY=0;entryDx=0;entryDy=0;strokeColor=default;dashed=1;dashPattern=12 12;" parent="1" source="rK9YfflER0Mp0wtVrPLG-26" target="rK9YfflER0Mp0wtVrPLG-27" edge="1">
          <mxGeometry relative="1" as="geometry" />
        </mxCell>
        <mxCell id="rK9YfflER0Mp0wtVrPLG-26" value="&lt;font style=&quot;font-size: 21px;&quot;&gt;AcceptedDataRequest&lt;/font&gt;" style="text;html=1;strokeColor=none;fillColor=none;align=center;verticalAlign=middle;whiteSpace=wrap;rounded=0;" parent="1" vertex="1">
          <mxGeometry x="190" y="630" width="240" height="47" as="geometry" />
        </mxCell>
        <mxCell id="rK9YfflER0Mp0wtVrPLG-27" value="&lt;font style=&quot;font-size: 16px;&quot;&gt;AcceptedDataRequest:&lt;br&gt;&lt;div style=&quot;background-color: rgb(255, 255, 254); line-height: 18px;&quot;&gt;&lt;div style=&quot;line-height: 18px;&quot;&gt;&lt;div style=&quot;line-height: 18px;&quot;&gt;&lt;div&gt;{&lt;/div&gt;&lt;div&gt;    &quot;type&quot;: &lt;span style=&quot;color: #0451a5;&quot;&gt;&quot;sqlDataRequest&quot;&lt;/span&gt;,&lt;/div&gt;&lt;div&gt;    &lt;span style=&quot;color: #a31515;&quot;&gt;&quot;user&quot;&lt;/span&gt;: {&lt;/div&gt;&lt;div&gt;        &lt;span style=&quot;color: #a31515;&quot;&gt;&quot;ID&quot;&lt;/span&gt;: &lt;span style=&quot;color: #0451a5;&quot;&gt;&quot;&amp;lt;GUID&amp;gt;&quot;&lt;/span&gt;,&lt;/div&gt;&lt;div&gt;        &lt;span style=&quot;color: #a31515;&quot;&gt;&quot;userName&quot;&lt;/span&gt;: &lt;span style=&quot;color: #0451a5;&quot;&gt;&quot;jstutterheim@uva.nl&quot;&lt;/span&gt;&lt;/div&gt;&lt;div&gt;    },&lt;/div&gt;&lt;div&gt;    &lt;span style=&quot;color: #a31515;&quot;&gt;&quot;auth&quot;&lt;/span&gt; : {&lt;/div&gt;&lt;div&gt;        &lt;span style=&quot;color: #a31515;&quot;&gt;&quot;accessToken&quot;&lt;/span&gt;: &lt;span style=&quot;color: #0451a5;&quot;&gt;&quot;&amp;lt;tokenString&amp;gt;&quot;&lt;/span&gt;,&lt;/div&gt;&lt;div&gt;        &lt;span style=&quot;color: #a31515;&quot;&gt;&quot;refreshToken&quot;&lt;/span&gt;: &lt;span style=&quot;color: #0451a5;&quot;&gt;&quot;&amp;lt;tokenString&amp;gt;&quot;&lt;/span&gt;&lt;/div&gt;&lt;div&gt;    },&lt;/div&gt;&lt;div&gt;    &lt;span style=&quot;color: #5f8fbf;&quot;&gt;// Actual token features.... (signedby, audience etc)&lt;/span&gt;&lt;/div&gt;&lt;div&gt;    &lt;span style=&quot;color: #a31515;&quot;&gt;&quot;authorizedProviders&quot;&lt;/span&gt; : {&lt;/div&gt;&lt;div&gt;        &lt;span style=&quot;color: #a31515;&quot;&gt;&quot;VU&quot;&lt;/span&gt; : &lt;span style=&quot;color: #0451a5;&quot;&gt;&quot;&amp;lt;endpoint/queueName&amp;gt;&quot;&lt;/span&gt;, &lt;/div&gt;&lt;div&gt;        &lt;span style=&quot;color: #a31515;&quot;&gt;&quot;UVA&quot;&lt;/span&gt; : &lt;span style=&quot;color: #0451a5;&quot;&gt;&quot;&amp;lt;endpoint/queueName&amp;gt;&quot;&lt;/span&gt;&lt;/div&gt;&lt;div&gt;    },&lt;/div&gt;&lt;div&gt;    &lt;span style=&quot;color: #a31515;&quot;&gt;&quot;resultChannel&quot;&lt;/span&gt; : &lt;span style=&quot;color: #0451a5;&quot;&gt;&quot;&amp;lt;endpoint for results?&amp;gt;&quot;&lt;/span&gt;&lt;/div&gt;&lt;div&gt;}&lt;/div&gt;&lt;/div&gt;&lt;/div&gt;&lt;/div&gt;&lt;/font&gt;" style="text;html=1;strokeColor=none;fillColor=none;align=left;verticalAlign=middle;whiteSpace=wrap;rounded=0;fontSize=18;" parent="1" vertex="1">
          <mxGeometry x="310" y="940" width="420" height="360" as="geometry" />
        </mxCell>
        <mxCell id="rK9YfflER0Mp0wtVrPLG-43" value="" style="group" parent="1" vertex="1" connectable="0">
          <mxGeometry x="405" y="100" width="360" height="270" as="geometry" />
        </mxCell>
        <mxCell id="rK9YfflER0Mp0wtVrPLG-44" value="" style="rounded=1;whiteSpace=wrap;html=1;fontSize=18;" parent="rK9YfflER0Mp0wtVrPLG-43" vertex="1">
          <mxGeometry width="360" height="270" as="geometry" />
        </mxCell>
        <mxCell id="rK9YfflER0Mp0wtVrPLG-45" value="&lt;b style=&quot;font-size: 18px;&quot;&gt;Data steward - UvA&lt;br&gt;&lt;/b&gt;" style="text;html=1;strokeColor=none;fillColor=none;align=center;verticalAlign=middle;whiteSpace=wrap;rounded=0;fontSize=18;" parent="rK9YfflER0Mp0wtVrPLG-43" vertex="1">
          <mxGeometry x="8.372093023255815" width="179.2213953488372" height="34.83870967741935" as="geometry" />
        </mxCell>
        <mxCell id="rK9YfflER0Mp0wtVrPLG-46" value="&lt;font style=&quot;font-size: 20px;&quot;&gt;Data pod&lt;/font&gt;" style="sketch=0;outlineConnect=0;fontColor=#232F3E;gradientColor=none;fillColor=#000000;strokeColor=none;dashed=0;verticalLabelPosition=bottom;verticalAlign=top;align=center;html=1;fontSize=12;fontStyle=0;aspect=fixed;pointerEvents=1;shape=mxgraph.aws4.vault;" parent="rK9YfflER0Mp0wtVrPLG-43" vertex="1">
          <mxGeometry x="151.62837209302324" y="59.99677419354838" width="56.7293023255814" height="71.37209302325581" as="geometry" />
        </mxCell>
        <mxCell id="rK9YfflER0Mp0wtVrPLG-47" value="&lt;font style=&quot;font-size: 18px;&quot;&gt;Distributed agent&lt;br&gt;&lt;/font&gt;" style="ellipse;whiteSpace=wrap;html=1;fontSize=18;" parent="rK9YfflER0Mp0wtVrPLG-43" vertex="1">
          <mxGeometry x="133.09488372093023" y="190.0041935483871" width="93.80093023255814" height="65.5316129032258" as="geometry" />
        </mxCell>
        <mxCell id="rK9YfflER0Mp0wtVrPLG-48" value="" style="group" parent="1" vertex="1" connectable="0">
          <mxGeometry x="790" y="100" width="366.9" height="270" as="geometry" />
        </mxCell>
        <mxCell id="rK9YfflER0Mp0wtVrPLG-49" value="" style="rounded=1;whiteSpace=wrap;html=1;fontSize=18;" parent="rK9YfflER0Mp0wtVrPLG-48" vertex="1">
          <mxGeometry width="360" height="270" as="geometry" />
        </mxCell>
        <mxCell id="rK9YfflER0Mp0wtVrPLG-50" value="&lt;b style=&quot;font-size: 18px;&quot;&gt;Data steward - VU&lt;br&gt;&lt;/b&gt;" style="text;html=1;strokeColor=none;fillColor=none;align=center;verticalAlign=middle;whiteSpace=wrap;rounded=0;fontSize=18;" parent="rK9YfflER0Mp0wtVrPLG-48" vertex="1">
          <mxGeometry x="8.372093023255815" width="179.2213953488372" height="34.83870967741935" as="geometry" />
        </mxCell>
        <mxCell id="rK9YfflER0Mp0wtVrPLG-51" value="&lt;font style=&quot;font-size: 20px;&quot;&gt;Data pod&lt;/font&gt;" style="sketch=0;outlineConnect=0;fontColor=#232F3E;gradientColor=none;fillColor=#000000;strokeColor=none;dashed=0;verticalLabelPosition=bottom;verticalAlign=top;align=center;html=1;fontSize=12;fontStyle=0;aspect=fixed;pointerEvents=1;shape=mxgraph.aws4.vault;" parent="rK9YfflER0Mp0wtVrPLG-48" vertex="1">
          <mxGeometry x="151.62837209302324" y="59.99677419354838" width="56.7293023255814" height="71.37209302325581" as="geometry" />
        </mxCell>
        <mxCell id="rK9YfflER0Mp0wtVrPLG-52" value="&lt;font style=&quot;font-size: 18px;&quot;&gt;Distributed agent&lt;br&gt;&lt;/font&gt;" style="ellipse;whiteSpace=wrap;html=1;fontSize=18;" parent="rK9YfflER0Mp0wtVrPLG-48" vertex="1">
          <mxGeometry x="133.09488372093023" y="190.0041935483871" width="93.80093023255814" height="65.5316129032258" as="geometry" />
        </mxCell>
        <mxCell id="rK9YfflER0Mp0wtVrPLG-99" value="&lt;font style=&quot;font-size: 16px;&quot;&gt;Composition&lt;/font&gt;" style="text;html=1;strokeColor=none;fillColor=none;align=center;verticalAlign=middle;whiteSpace=wrap;rounded=0;" parent="rK9YfflER0Mp0wtVrPLG-48" vertex="1">
          <mxGeometry x="226.89999999999998" y="225.54000000000002" width="140" height="30" as="geometry" />
        </mxCell>
        <mxCell id="rK9YfflER0Mp0wtVrPLG-53" value="" style="group" parent="1" vertex="1" connectable="0">
          <mxGeometry x="30" y="100" width="360" height="270" as="geometry" />
        </mxCell>
        <mxCell id="rK9YfflER0Mp0wtVrPLG-60" value="" style="rounded=1;whiteSpace=wrap;html=1;fontSize=18;" parent="rK9YfflER0Mp0wtVrPLG-53" vertex="1">
          <mxGeometry x="-17" y="-15.460000000000008" width="360" height="270" as="geometry" />
        </mxCell>
        <mxCell id="rK9YfflER0Mp0wtVrPLG-59" value="" style="rounded=1;whiteSpace=wrap;html=1;fontSize=18;" parent="rK9YfflER0Mp0wtVrPLG-53" vertex="1">
          <mxGeometry x="-11" y="-11.460000000000008" width="360" height="270" as="geometry" />
        </mxCell>
        <mxCell id="rK9YfflER0Mp0wtVrPLG-58" value="" style="rounded=1;whiteSpace=wrap;html=1;fontSize=18;" parent="rK9YfflER0Mp0wtVrPLG-53" vertex="1">
          <mxGeometry x="-5" y="-6.460000000000008" width="360" height="270" as="geometry" />
        </mxCell>
        <mxCell id="rK9YfflER0Mp0wtVrPLG-54" value="" style="rounded=1;whiteSpace=wrap;html=1;fontSize=18;" parent="rK9YfflER0Mp0wtVrPLG-53" vertex="1">
          <mxGeometry width="360" height="270" as="geometry" />
        </mxCell>
        <mxCell id="rK9YfflER0Mp0wtVrPLG-55" value="&lt;b style=&quot;font-size: 18px;&quot;&gt;Other stewards&lt;br&gt;&lt;/b&gt;" style="text;html=1;strokeColor=none;fillColor=none;align=center;verticalAlign=middle;whiteSpace=wrap;rounded=0;fontSize=18;" parent="rK9YfflER0Mp0wtVrPLG-53" vertex="1">
          <mxGeometry x="8.372093023255815" width="179.2213953488372" height="34.83870967741935" as="geometry" />
        </mxCell>
        <mxCell id="rK9YfflER0Mp0wtVrPLG-56" value="&lt;font style=&quot;font-size: 20px;&quot;&gt;Data pod&lt;/font&gt;" style="sketch=0;outlineConnect=0;fontColor=#232F3E;gradientColor=none;fillColor=#000000;strokeColor=none;dashed=0;verticalLabelPosition=bottom;verticalAlign=top;align=center;html=1;fontSize=12;fontStyle=0;aspect=fixed;pointerEvents=1;shape=mxgraph.aws4.vault;" parent="rK9YfflER0Mp0wtVrPLG-53" vertex="1">
          <mxGeometry x="151.62837209302324" y="59.99677419354838" width="56.7293023255814" height="71.37209302325581" as="geometry" />
        </mxCell>
        <mxCell id="rK9YfflER0Mp0wtVrPLG-57" value="&lt;font style=&quot;font-size: 18px;&quot;&gt;Distributed agent&lt;br&gt;&lt;/font&gt;" style="ellipse;whiteSpace=wrap;html=1;fontSize=18;" parent="rK9YfflER0Mp0wtVrPLG-53" vertex="1">
          <mxGeometry x="133.09488372093023" y="190.0041935483871" width="93.80093023255814" height="65.5316129032258" as="geometry" />
        </mxCell>
        <mxCell id="rK9YfflER0Mp0wtVrPLG-62" style="rounded=0;orthogonalLoop=1;jettySize=auto;html=1;entryX=0.5;entryY=1;entryDx=0;entryDy=0;" parent="1" source="ejBQTjxxGpx7nVnpFVH0-9" target="rK9YfflER0Mp0wtVrPLG-52" edge="1">
          <mxGeometry relative="1" as="geometry" />
        </mxCell>
        <mxCell id="rK9YfflER0Mp0wtVrPLG-65" style="edgeStyle=orthogonalEdgeStyle;rounded=0;orthogonalLoop=1;jettySize=auto;html=1;jumpStyle=arc;jumpSize=10;" parent="1" source="ejBQTjxxGpx7nVnpFVH0-9" target="rK9YfflER0Mp0wtVrPLG-47" edge="1">
          <mxGeometry relative="1" as="geometry">
            <Array as="points">
              <mxPoint x="970" y="440" />
              <mxPoint x="585" y="440" />
            </Array>
          </mxGeometry>
        </mxCell>
        <mxCell id="rK9YfflER0Mp0wtVrPLG-66" value="&lt;div style=&quot;border-color: var(--border-color); text-align: left; background-color: rgb(255, 255, 254); line-height: 18px; font-size: 16px;&quot;&gt;&lt;div style=&quot;border-color: var(--border-color);&quot;&gt;&lt;font style=&quot;border-color: var(--border-color); font-size: 16px;&quot;&gt;CompositionRequest&lt;/font&gt;&lt;/div&gt;&lt;div style=&quot;border-color: var(--border-color);&quot;&gt;&lt;div style=&quot;line-height: 18px;&quot;&gt;&lt;div style=&quot;line-height: 18px;&quot;&gt;&lt;div&gt;{&lt;/div&gt;&lt;div&gt;    &quot;archetypeId&quot;: &lt;span style=&quot;color: rgb(4, 81, 165);&quot;&gt;&quot;ArcheType1&quot;&lt;/span&gt;,&lt;br&gt;&lt;/div&gt;&lt;div&gt;    &lt;span style=&quot;color: #a31515;&quot;&gt;&quot;request_type&quot;&lt;/span&gt;: &lt;span style=&quot;color: #0451a5;&quot;&gt;&quot;sqlDataRequest&quot;&lt;/span&gt;,&lt;/div&gt;&lt;div&gt;    &lt;span style=&quot;color: #a31515;&quot;&gt;&quot;io_config&quot;&lt;/span&gt;: {&lt;/div&gt;&lt;div&gt;        &lt;span style=&quot;color: #a31515;&quot;&gt;&quot;service_io&quot;&lt;/span&gt;: {&lt;/div&gt;&lt;div&gt;            &lt;span style=&quot;color: #a31515;&quot;&gt;&quot;query_service&quot;&lt;/span&gt;: &lt;span style=&quot;color: #0451a5;&quot;&gt;&quot;start&quot;&lt;/span&gt;,&lt;/div&gt;&lt;div&gt;            &lt;span style=&quot;color: #a31515;&quot;&gt;&quot;anonymize_service&quot;&lt;/span&gt;: &lt;span style=&quot;color: #0451a5;&quot;&gt;&quot;query_service&quot;&lt;/span&gt;,&lt;/div&gt;&lt;div&gt;            &lt;span style=&quot;color: #a31515;&quot;&gt;&quot;algorithm&quot;&lt;/span&gt; : &lt;span style=&quot;color: #0451a5;&quot;&gt;&quot;query_service&quot;&lt;/span&gt;&lt;/div&gt;&lt;div&gt;        },&lt;/div&gt;&lt;div&gt;        &lt;span style=&quot;color: #a31515;&quot;&gt;&quot;finish&quot;&lt;/span&gt;: &lt;span style=&quot;color: #0451a5;&quot;&gt;&quot;algorithm&quot;&lt;/span&gt;&lt;/div&gt;&lt;div&gt;    }&lt;/div&gt;&lt;div&gt;}&lt;/div&gt;&lt;/div&gt;&lt;/div&gt;&lt;/div&gt;&lt;/div&gt;" style="text;html=1;strokeColor=none;fillColor=none;align=center;verticalAlign=middle;whiteSpace=wrap;rounded=0;" parent="1" vertex="1">
          <mxGeometry x="840" y="1162" width="320" height="270" as="geometry" />
        </mxCell>
        <mxCell id="rK9YfflER0Mp0wtVrPLG-67" style="rounded=0;orthogonalLoop=1;jettySize=auto;html=1;dashed=1;dashPattern=8 8;exitX=0.693;exitY=0.96;exitDx=0;exitDy=0;exitPerimeter=0;" parent="1" source="rK9YfflER0Mp0wtVrPLG-6" target="rK9YfflER0Mp0wtVrPLG-66" edge="1">
          <mxGeometry relative="1" as="geometry">
            <mxPoint x="1090" y="1230" as="targetPoint" />
          </mxGeometry>
        </mxCell>
        <mxCell id="rK9YfflER0Mp0wtVrPLG-68" value="&lt;font style=&quot;font-size: 16px;&quot;&gt;&lt;ul style=&quot;border-color: var(--border-color);&quot;&gt;&lt;li&gt;ServiceIo&lt;/li&gt;&lt;li&gt;ArcheTypeId&lt;/li&gt;&lt;/ul&gt;&lt;/font&gt;" style="text;html=1;strokeColor=none;fillColor=none;align=center;verticalAlign=middle;whiteSpace=wrap;rounded=0;" parent="1" vertex="1">
          <mxGeometry x="949" y="960" width="220" height="90" as="geometry" />
        </mxCell>
        <mxCell id="rK9YfflER0Mp0wtVrPLG-70" value="&lt;div style=&quot;background-color: rgb(255, 255, 254); line-height: 18px; font-size: 14px;&quot;&gt;&lt;div&gt;DataRequest:&lt;/div&gt;&lt;div&gt;{&lt;/div&gt;&lt;div&gt;    &quot;type&quot;: &lt;span style=&quot;color: #0451a5;&quot;&gt;&quot;sqlDataRequest&quot;&lt;/span&gt;,&lt;/div&gt;&lt;div&gt;&lt;div style=&quot;border-color: var(--border-color);&quot;&gt;&quot;providers&quot;&amp;nbsp;:&amp;nbsp;&lt;font color=&quot;#0451a5&quot;&gt;&lt;b&gt;[&quot;VU&quot;, &quot;UVA&quot;]&lt;/b&gt;&lt;/font&gt;,&lt;/div&gt;&lt;/div&gt;&lt;div&gt;    &lt;span style=&quot;color: #a31515;&quot;&gt;&quot;query&quot;&lt;/span&gt; : &lt;span style=&quot;color: #0451a5;&quot;&gt;&quot;SELECT p.Unieknr p.Geslacht p.Gebdat s.Aanst_22 as &lt;br&gt;Salary FROM person p JOIN salary s ON p.Unieknr = s.Unieknr&quot;&lt;/span&gt;,&lt;/div&gt;&lt;div&gt;    &lt;span style=&quot;color: #a31515;&quot;&gt;&quot;graph&quot;&lt;/span&gt; : &lt;span style=&quot;color: #0451a5;font-weight: bold;&quot;&gt;true&lt;/span&gt;,&lt;/div&gt;&lt;div&gt;    &lt;span style=&quot;color: #a31515;&quot;&gt;&quot;algorithm&quot;&lt;/span&gt; : &lt;span style=&quot;color: #0451a5;&quot;&gt;&quot;average&quot;&lt;/span&gt;,&lt;/div&gt;&lt;div&gt;    &lt;span style=&quot;color: #5f8fbf;&quot;&gt;// Needs to be thought out more:&lt;/span&gt;&lt;/div&gt;&lt;div&gt;    &lt;span style=&quot;color: #a31515;&quot;&gt;&quot;algorithmColumns&quot;&lt;/span&gt; : {&lt;/div&gt;&lt;div&gt;        &lt;span style=&quot;color: #a31515;&quot;&gt;&quot;Geslacht&quot;&lt;/span&gt; : &lt;span style=&quot;color: #0451a5;&quot;&gt;&quot;Aanst_22, Gebdat&quot;&lt;/span&gt;&lt;/div&gt;&lt;div&gt;    },&lt;/div&gt;&lt;div&gt;    &lt;span style=&quot;color: #a31515;&quot;&gt;&quot;user&quot;&lt;/span&gt;: {&lt;/div&gt;&lt;div&gt;        &lt;span style=&quot;color: #a31515;&quot;&gt;&quot;ID&quot;&lt;/span&gt;: &lt;span style=&quot;color: #0451a5;&quot;&gt;&quot;&amp;lt;GUID&amp;gt;&quot;&lt;/span&gt;,&lt;/div&gt;&lt;div&gt;        &lt;span style=&quot;color: #a31515;&quot;&gt;&quot;userName&quot;&lt;/span&gt;: &lt;span style=&quot;color: #0451a5;&quot;&gt;&quot;jstutterheim@uva.nl&quot;&lt;/span&gt;&lt;/div&gt;&lt;div&gt;    },&lt;/div&gt;&lt;div&gt;    &lt;span style=&quot;color: #a31515;&quot;&gt;&quot;auth&quot;&lt;/span&gt; : {&lt;/div&gt;&lt;div&gt;        &lt;span style=&quot;color: #a31515;&quot;&gt;&quot;accessToken&quot;&lt;/span&gt;: &lt;span style=&quot;color: #0451a5;&quot;&gt;&quot;&amp;lt;tokenString&amp;gt;&quot;&lt;/span&gt;,&lt;/div&gt;&lt;div&gt;        &lt;span style=&quot;color: #a31515;&quot;&gt;&quot;refreshToken&quot;&lt;/span&gt;: &lt;span style=&quot;color: #0451a5;&quot;&gt;&quot;&amp;lt;tokenString&amp;gt;&quot;&lt;/span&gt;&lt;/div&gt;&lt;div&gt;    }&lt;/div&gt;&lt;div&gt;    &lt;span style=&quot;color: #5f8fbf;&quot;&gt;// Actual token features.... (signedby, audience etc)&lt;/span&gt;&lt;/div&gt;&lt;div style=&quot;&quot;&gt;}&lt;/div&gt;&lt;/div&gt;" style="text;html=1;align=left;verticalAlign=middle;resizable=0;points=[];autosize=1;strokeColor=none;fillColor=none;" parent="1" vertex="1">
          <mxGeometry x="-480" y="538" width="430" height="410" as="geometry" />
        </mxCell>
        <mxCell id="rK9YfflER0Mp0wtVrPLG-72" style="edgeStyle=orthogonalEdgeStyle;rounded=0;orthogonalLoop=1;jettySize=auto;html=1;entryX=1.002;entryY=0.053;entryDx=0;entryDy=0;entryPerimeter=0;dashed=1;dashPattern=8 8;jumpStyle=arc;" parent="1" source="rK9YfflER0Mp0wtVrPLG-71" target="rK9YfflER0Mp0wtVrPLG-70" edge="1">
          <mxGeometry relative="1" as="geometry">
            <Array as="points">
              <mxPoint x="80" y="560" />
            </Array>
          </mxGeometry>
        </mxCell>
        <mxCell id="rK9YfflER0Mp0wtVrPLG-71" value="&lt;font style=&quot;font-size: 21px;&quot;&gt;DataRequest&lt;/font&gt;" style="text;html=1;strokeColor=none;fillColor=none;align=center;verticalAlign=middle;whiteSpace=wrap;rounded=0;" parent="1" vertex="1">
          <mxGeometry x="270" y="540" width="140" height="37" as="geometry" />
        </mxCell>
        <mxCell id="rK9YfflER0Mp0wtVrPLG-78" value="" style="endArrow=classic;html=1;rounded=0;edgeStyle=orthogonalEdgeStyle;curved=1;" parent="1" edge="1">
          <mxGeometry width="50" height="50" relative="1" as="geometry">
            <mxPoint x="130" y="600" as="sourcePoint" />
            <mxPoint x="550" y="430" as="targetPoint" />
            <Array as="points">
              <mxPoint x="550" y="600" />
            </Array>
          </mxGeometry>
        </mxCell>
        <mxCell id="rK9YfflER0Mp0wtVrPLG-79" value="" style="endArrow=none;html=1;rounded=0;edgeStyle=orthogonalEdgeStyle;curved=1;startArrow=classic;startFill=1;endFill=0;" parent="1" edge="1">
          <mxGeometry width="50" height="50" relative="1" as="geometry">
            <mxPoint x="80" y="610" as="sourcePoint" />
            <mxPoint x="510" y="380" as="targetPoint" />
            <Array as="points">
              <mxPoint x="80" y="380" />
            </Array>
          </mxGeometry>
        </mxCell>
        <mxCell id="rK9YfflER0Mp0wtVrPLG-87" style="edgeStyle=orthogonalEdgeStyle;rounded=0;orthogonalLoop=1;jettySize=auto;html=1;entryX=1;entryY=0.75;entryDx=0;entryDy=0;dashed=1;dashPattern=8 8;" parent="1" source="rK9YfflER0Mp0wtVrPLG-80" target="rK9YfflER0Mp0wtVrPLG-86" edge="1">
          <mxGeometry relative="1" as="geometry" />
        </mxCell>
        <mxCell id="rK9YfflER0Mp0wtVrPLG-80" value="&lt;font style=&quot;font-size: 21px;&quot;&gt;Result&lt;br&gt;&lt;/font&gt;" style="text;html=1;strokeColor=none;fillColor=none;align=center;verticalAlign=middle;whiteSpace=wrap;rounded=0;" parent="1" vertex="1">
          <mxGeometry x="30" y="470" width="80" height="37" as="geometry" />
        </mxCell>
        <mxCell id="rK9YfflER0Mp0wtVrPLG-82" value="" style="endArrow=classic;html=1;rounded=0;edgeStyle=orthogonalEdgeStyle;curved=1;" parent="1" edge="1">
          <mxGeometry width="50" height="50" relative="1" as="geometry">
            <mxPoint x="140" y="610" as="sourcePoint" />
            <mxPoint x="880" y="470" as="targetPoint" />
            <Array as="points">
              <mxPoint x="880" y="610" />
            </Array>
          </mxGeometry>
        </mxCell>
        <mxCell id="rK9YfflER0Mp0wtVrPLG-84" value="" style="endArrow=none;html=1;rounded=0;edgeStyle=orthogonalEdgeStyle;curved=1;startArrow=classic;startFill=1;endFill=0;" parent="1" edge="1">
          <mxGeometry width="50" height="50" relative="1" as="geometry">
            <mxPoint x="90" y="620" as="sourcePoint" />
            <mxPoint x="840" y="390" as="targetPoint" />
            <Array as="points">
              <mxPoint x="90" y="390" />
            </Array>
          </mxGeometry>
        </mxCell>
        <mxCell id="rK9YfflER0Mp0wtVrPLG-86" value="&lt;font style=&quot;font-size: 16px;&quot;&gt;Result&lt;br&gt;&lt;/font&gt;&lt;div style=&quot;background-color: rgb(255, 255, 254); line-height: 18px; font-size: 16px;&quot;&gt;&lt;div style=&quot;&quot;&gt;&lt;font style=&quot;font-size: 16px;&quot;&gt;{&lt;/font&gt;&lt;/div&gt;&lt;div style=&quot;&quot;&gt;    &lt;font style=&quot;font-size: 16px;&quot;&gt;&quot;type&quot;: &lt;span style=&quot;color: #0451a5;&quot;&gt;&quot;result&quot;&lt;/span&gt;,&lt;/font&gt;&lt;/div&gt;&lt;div style=&quot;&quot;&gt;&lt;font style=&quot;font-size: 16px;&quot;&gt;    &lt;span style=&quot;color: #a31515;&quot;&gt;&quot;graph&quot;&lt;/span&gt; : &lt;span style=&quot;color: #0451a5;&quot;&gt;&quot;&amp;lt;png data&amp;gt;&quot;&lt;/span&gt;,&lt;/font&gt;&lt;/div&gt;&lt;div style=&quot;&quot;&gt;&lt;font style=&quot;font-size: 16px;&quot;&gt;    &lt;span style=&quot;color: #a31515;&quot;&gt;&quot;results&quot;&lt;/span&gt; : &lt;span style=&quot;color: #0451a5;&quot;&gt;&quot;&amp;lt;wage gap analysis result in json&amp;gt;&quot;&lt;/span&gt;&lt;/font&gt;&lt;/div&gt;&lt;div style=&quot;&quot;&gt;&lt;font style=&quot;font-size: 16px;&quot;&gt;}&lt;/font&gt;&lt;/div&gt;&lt;/div&gt;" style="text;html=1;strokeColor=none;fillColor=none;align=left;verticalAlign=middle;whiteSpace=wrap;rounded=0;" parent="1" vertex="1">
          <mxGeometry x="-320" y="382" width="260" height="141" as="geometry" />
        </mxCell>
        <mxCell id="rK9YfflER0Mp0wtVrPLG-88" style="edgeStyle=orthogonalEdgeStyle;rounded=0;orthogonalLoop=1;jettySize=auto;html=1;dashed=1;dashPattern=8 8;entryX=1;entryY=0.5;entryDx=0;entryDy=0;" parent="1" source="rK9YfflER0Mp0wtVrPLG-56" target="rK9YfflER0Mp0wtVrPLG-89" edge="1">
          <mxGeometry relative="1" as="geometry">
            <mxPoint x="-460" y="195.68282070517625" as="targetPoint" />
          </mxGeometry>
        </mxCell>
        <mxCell id="rK9YfflER0Mp0wtVrPLG-100" value="" style="group" parent="1" vertex="1" connectable="0">
          <mxGeometry x="1270" y="19" width="700" height="530" as="geometry" />
        </mxCell>
        <mxCell id="rK9YfflER0Mp0wtVrPLG-101" value="" style="rounded=1;whiteSpace=wrap;html=1;fontSize=18;" parent="rK9YfflER0Mp0wtVrPLG-100" vertex="1">
          <mxGeometry width="680" height="530" as="geometry" />
        </mxCell>
        <mxCell id="rK9YfflER0Mp0wtVrPLG-102" value="&lt;b style=&quot;font-size: 18px;&quot;&gt;Data steward - VU&lt;br&gt;&lt;/b&gt;" style="text;html=1;strokeColor=none;fillColor=none;align=center;verticalAlign=middle;whiteSpace=wrap;rounded=0;fontSize=18;" parent="rK9YfflER0Mp0wtVrPLG-100" vertex="1">
          <mxGeometry x="11.637414668466791" width="249.12213580786855" height="46.4516129032258" as="geometry" />
        </mxCell>
        <mxCell id="rK9YfflER0Mp0wtVrPLG-103" value="&lt;font style=&quot;font-size: 20px;&quot;&gt;Data pod&lt;/font&gt;" style="sketch=0;outlineConnect=0;fontColor=#232F3E;gradientColor=none;fillColor=#000000;strokeColor=none;dashed=0;verticalLabelPosition=bottom;verticalAlign=top;align=center;html=1;fontSize=12;fontStyle=0;aspect=fixed;pointerEvents=1;shape=mxgraph.aws4.vault;" parent="rK9YfflER0Mp0wtVrPLG-100" vertex="1">
          <mxGeometry x="69.9971566297134" y="57.99569892473117" width="75.63906976744187" height="95.16279069767441" as="geometry" />
        </mxCell>
        <mxCell id="rK9YfflER0Mp0wtVrPLG-135" style="edgeStyle=orthogonalEdgeStyle;rounded=0;orthogonalLoop=1;jettySize=auto;html=1;entryX=0.441;entryY=0.562;entryDx=0;entryDy=0;entryPerimeter=0;" parent="rK9YfflER0Mp0wtVrPLG-100" source="rK9YfflER0Mp0wtVrPLG-105" target="rK9YfflER0Mp0wtVrPLG-101" edge="1">
          <mxGeometry relative="1" as="geometry">
            <Array as="points">
              <mxPoint x="160" y="298" />
              <mxPoint x="160" y="298" />
            </Array>
          </mxGeometry>
        </mxCell>
        <mxCell id="rK9YfflER0Mp0wtVrPLG-136" value="&lt;font style=&quot;font-size: 12px;&quot;&gt;Compose services&lt;br&gt;(auto remove after 30 &lt;br&gt;minutes of inactivity)&lt;br&gt;&lt;/font&gt;" style="edgeLabel;html=1;align=center;verticalAlign=middle;resizable=0;points=[];" parent="rK9YfflER0Mp0wtVrPLG-135" vertex="1" connectable="0">
          <mxGeometry x="-0.001" y="-2" relative="1" as="geometry">
            <mxPoint x="-9" y="24" as="offset" />
          </mxGeometry>
        </mxCell>
        <mxCell id="rK9YfflER0Mp0wtVrPLG-137" style="rounded=0;orthogonalLoop=1;jettySize=auto;html=1;entryX=0.005;entryY=0.63;entryDx=0;entryDy=0;entryPerimeter=0;" parent="rK9YfflER0Mp0wtVrPLG-100" source="rK9YfflER0Mp0wtVrPLG-105" target="rK9YfflER0Mp0wtVrPLG-114" edge="1">
          <mxGeometry relative="1" as="geometry" />
        </mxCell>
        <mxCell id="rK9YfflER0Mp0wtVrPLG-139" value="DataRequest" style="edgeLabel;html=1;align=center;verticalAlign=middle;resizable=0;points=[];" parent="rK9YfflER0Mp0wtVrPLG-137" vertex="1" connectable="0">
          <mxGeometry x="-0.0817" y="-1" relative="1" as="geometry">
            <mxPoint as="offset" />
          </mxGeometry>
        </mxCell>
        <mxCell id="rK9YfflER0Mp0wtVrPLG-105" value="&lt;font style=&quot;font-size: 18px;&quot;&gt;Distributed agent&lt;br&gt;&lt;/font&gt;" style="ellipse;whiteSpace=wrap;html=1;fontSize=18;" parent="rK9YfflER0Mp0wtVrPLG-100" vertex="1">
          <mxGeometry x="27.807279088782813" y="253.33892473118277" width="130.3855939455019" height="87.37548387096774" as="geometry" />
        </mxCell>
        <mxCell id="rK9YfflER0Mp0wtVrPLG-119" value="" style="group" parent="rK9YfflER0Mp0wtVrPLG-100" vertex="1" connectable="0">
          <mxGeometry x="360" y="51.00000000000003" width="80" height="98" as="geometry" />
        </mxCell>
        <mxCell id="rK9YfflER0Mp0wtVrPLG-114" value="" style="sketch=0;html=1;dashed=0;whitespace=wrap;fillColor=#2875E2;strokeColor=#ffffff;points=[[0.005,0.63,0],[0.1,0.2,0],[0.9,0.2,0],[0.5,0,0],[0.995,0.63,0],[0.72,0.99,0],[0.5,1,0],[0.28,0.99,0]];verticalLabelPosition=bottom;align=center;verticalAlign=top;shape=mxgraph.kubernetes.icon;prIcon=pod" parent="rK9YfflER0Mp0wtVrPLG-119" vertex="1">
          <mxGeometry x="5" width="70" height="67.29" as="geometry" />
        </mxCell>
        <mxCell id="rK9YfflER0Mp0wtVrPLG-118" value="&lt;font style=&quot;font-size: 14px;&quot;&gt;Query service&lt;/font&gt;" style="text;html=1;strokeColor=none;fillColor=none;align=center;verticalAlign=middle;whiteSpace=wrap;rounded=0;" parent="rK9YfflER0Mp0wtVrPLG-119" vertex="1">
          <mxGeometry y="68" width="80" height="30" as="geometry" />
        </mxCell>
        <mxCell id="rK9YfflER0Mp0wtVrPLG-120" value="" style="group" parent="rK9YfflER0Mp0wtVrPLG-100" vertex="1" connectable="0">
          <mxGeometry x="360" y="168.00000000000003" width="80" height="98" as="geometry" />
        </mxCell>
        <mxCell id="rK9YfflER0Mp0wtVrPLG-121" value="" style="sketch=0;html=1;dashed=0;whitespace=wrap;fillColor=#2875E2;strokeColor=#ffffff;points=[[0.005,0.63,0],[0.1,0.2,0],[0.9,0.2,0],[0.5,0,0],[0.995,0.63,0],[0.72,0.99,0],[0.5,1,0],[0.28,0.99,0]];verticalLabelPosition=bottom;align=center;verticalAlign=top;shape=mxgraph.kubernetes.icon;prIcon=pod" parent="rK9YfflER0Mp0wtVrPLG-120" vertex="1">
          <mxGeometry x="5" width="70" height="67.29" as="geometry" />
        </mxCell>
        <mxCell id="rK9YfflER0Mp0wtVrPLG-122" value="&lt;font style=&quot;font-size: 14px;&quot;&gt;Anonymize service&lt;/font&gt;" style="text;html=1;strokeColor=none;fillColor=none;align=center;verticalAlign=middle;whiteSpace=wrap;rounded=0;" parent="rK9YfflER0Mp0wtVrPLG-120" vertex="1">
          <mxGeometry y="68" width="80" height="30" as="geometry" />
        </mxCell>
        <mxCell id="rK9YfflER0Mp0wtVrPLG-123" value="" style="group" parent="rK9YfflER0Mp0wtVrPLG-100" vertex="1" connectable="0">
          <mxGeometry x="360" y="288" width="80" height="98" as="geometry" />
        </mxCell>
        <mxCell id="rK9YfflER0Mp0wtVrPLG-124" value="" style="sketch=0;html=1;dashed=0;whitespace=wrap;fillColor=#2875E2;strokeColor=#ffffff;points=[[0.005,0.63,0],[0.1,0.2,0],[0.9,0.2,0],[0.5,0,0],[0.995,0.63,0],[0.72,0.99,0],[0.5,1,0],[0.28,0.99,0]];verticalLabelPosition=bottom;align=center;verticalAlign=top;shape=mxgraph.kubernetes.icon;prIcon=pod" parent="rK9YfflER0Mp0wtVrPLG-123" vertex="1">
          <mxGeometry x="5" width="70" height="67.29" as="geometry" />
        </mxCell>
        <mxCell id="rK9YfflER0Mp0wtVrPLG-125" value="&lt;font style=&quot;font-size: 14px;&quot;&gt;Algorithm service&lt;/font&gt;" style="text;html=1;strokeColor=none;fillColor=none;align=center;verticalAlign=middle;whiteSpace=wrap;rounded=0;" parent="rK9YfflER0Mp0wtVrPLG-123" vertex="1">
          <mxGeometry y="68" width="80" height="30" as="geometry" />
        </mxCell>
        <mxCell id="rK9YfflER0Mp0wtVrPLG-126" value="" style="group" parent="rK9YfflER0Mp0wtVrPLG-100" vertex="1" connectable="0">
          <mxGeometry x="360" y="408" width="80" height="98" as="geometry" />
        </mxCell>
        <mxCell id="rK9YfflER0Mp0wtVrPLG-127" value="" style="sketch=0;html=1;dashed=0;whitespace=wrap;fillColor=#2875E2;strokeColor=#ffffff;points=[[0.005,0.63,0],[0.1,0.2,0],[0.9,0.2,0],[0.5,0,0],[0.995,0.63,0],[0.72,0.99,0],[0.5,1,0],[0.28,0.99,0]];verticalLabelPosition=bottom;align=center;verticalAlign=top;shape=mxgraph.kubernetes.icon;prIcon=pod" parent="rK9YfflER0Mp0wtVrPLG-126" vertex="1">
          <mxGeometry x="5" width="70" height="67.29" as="geometry" />
        </mxCell>
        <mxCell id="rK9YfflER0Mp0wtVrPLG-128" value="&lt;font style=&quot;font-size: 14px;&quot;&gt;Graph service&lt;/font&gt;" style="text;html=1;strokeColor=none;fillColor=none;align=center;verticalAlign=middle;whiteSpace=wrap;rounded=0;" parent="rK9YfflER0Mp0wtVrPLG-126" vertex="1">
          <mxGeometry y="68" width="80" height="30" as="geometry" />
        </mxCell>
        <mxCell id="rK9YfflER0Mp0wtVrPLG-129" value="&lt;b style=&quot;font-size: 18px;&quot;&gt;ArcheType1:&lt;br&gt;&lt;/b&gt;" style="text;html=1;strokeColor=none;fillColor=none;align=center;verticalAlign=middle;whiteSpace=wrap;rounded=0;fontSize=18;" parent="rK9YfflER0Mp0wtVrPLG-100" vertex="1">
          <mxGeometry x="279.9974146684667" y="11.540000000000001" width="249.12213580786855" height="46.4516129032258" as="geometry" />
        </mxCell>
        <mxCell id="rK9YfflER0Mp0wtVrPLG-130" style="edgeStyle=orthogonalEdgeStyle;rounded=0;orthogonalLoop=1;jettySize=auto;html=1;" parent="rK9YfflER0Mp0wtVrPLG-100" source="rK9YfflER0Mp0wtVrPLG-118" target="rK9YfflER0Mp0wtVrPLG-121" edge="1">
          <mxGeometry relative="1" as="geometry" />
        </mxCell>
        <mxCell id="rK9YfflER0Mp0wtVrPLG-131" style="edgeStyle=orthogonalEdgeStyle;rounded=0;orthogonalLoop=1;jettySize=auto;html=1;entryX=0.5;entryY=0;entryDx=0;entryDy=0;entryPerimeter=0;" parent="rK9YfflER0Mp0wtVrPLG-100" source="rK9YfflER0Mp0wtVrPLG-122" target="rK9YfflER0Mp0wtVrPLG-124" edge="1">
          <mxGeometry relative="1" as="geometry" />
        </mxCell>
        <mxCell id="rK9YfflER0Mp0wtVrPLG-132" style="edgeStyle=orthogonalEdgeStyle;rounded=0;orthogonalLoop=1;jettySize=auto;html=1;entryX=0.5;entryY=0;entryDx=0;entryDy=0;entryPerimeter=0;" parent="rK9YfflER0Mp0wtVrPLG-100" source="rK9YfflER0Mp0wtVrPLG-125" target="rK9YfflER0Mp0wtVrPLG-127" edge="1">
          <mxGeometry relative="1" as="geometry" />
        </mxCell>
        <mxCell id="rK9YfflER0Mp0wtVrPLG-133" style="edgeStyle=orthogonalEdgeStyle;rounded=0;orthogonalLoop=1;jettySize=auto;html=1;" parent="rK9YfflER0Mp0wtVrPLG-100" source="rK9YfflER0Mp0wtVrPLG-127" target="rK9YfflER0Mp0wtVrPLG-105" edge="1">
          <mxGeometry relative="1" as="geometry" />
        </mxCell>
        <mxCell id="rK9YfflER0Mp0wtVrPLG-134" value="&lt;font style=&quot;font-size: 14px;&quot;&gt;Result&lt;/font&gt;" style="edgeLabel;html=1;align=center;verticalAlign=middle;resizable=0;points=[];" parent="rK9YfflER0Mp0wtVrPLG-133" vertex="1" connectable="0">
          <mxGeometry x="-0.4895" y="2" relative="1" as="geometry">
            <mxPoint x="-32" y="8" as="offset" />
          </mxGeometry>
        </mxCell>
        <mxCell id="rK9YfflER0Mp0wtVrPLG-140" value="" style="endArrow=classic;html=1;rounded=0;entryX=0.809;entryY=0.298;entryDx=0;entryDy=0;entryPerimeter=0;dashed=1;dashPattern=8 8;" parent="rK9YfflER0Mp0wtVrPLG-100" target="rK9YfflER0Mp0wtVrPLG-101" edge="1">
          <mxGeometry width="50" height="50" relative="1" as="geometry">
            <mxPoint x="410" y="158" as="sourcePoint" />
            <mxPoint x="460" y="108" as="targetPoint" />
          </mxGeometry>
        </mxCell>
        <mxCell id="rK9YfflER0Mp0wtVrPLG-141" value="Communication between services through AMQ queues" style="text;html=1;strokeColor=none;fillColor=none;align=center;verticalAlign=middle;whiteSpace=wrap;rounded=0;" parent="rK9YfflER0Mp0wtVrPLG-100" vertex="1">
          <mxGeometry x="540" y="128" width="130" height="59" as="geometry" />
        </mxCell>
        <mxCell id="rK9YfflER0Mp0wtVrPLG-142" style="edgeStyle=orthogonalEdgeStyle;rounded=0;orthogonalLoop=1;jettySize=auto;html=1;" parent="rK9YfflER0Mp0wtVrPLG-100" source="rK9YfflER0Mp0wtVrPLG-114" target="rK9YfflER0Mp0wtVrPLG-103" edge="1">
          <mxGeometry relative="1" as="geometry">
            <Array as="points">
              <mxPoint x="200" y="85" />
              <mxPoint x="200" y="85" />
            </Array>
          </mxGeometry>
        </mxCell>
        <mxCell id="rK9YfflER0Mp0wtVrPLG-143" value="Access Data pod" style="edgeLabel;html=1;align=center;verticalAlign=middle;resizable=0;points=[];" parent="rK9YfflER0Mp0wtVrPLG-142" vertex="1" connectable="0">
          <mxGeometry x="0.1452" y="-3" relative="1" as="geometry">
            <mxPoint x="10" y="-4" as="offset" />
          </mxGeometry>
        </mxCell>
        <mxCell id="rK9YfflER0Mp0wtVrPLG-98" style="edgeStyle=orthogonalEdgeStyle;rounded=0;orthogonalLoop=1;jettySize=auto;html=1;dashed=1;dashPattern=8 8;entryX=0.003;entryY=0.573;entryDx=0;entryDy=0;entryPerimeter=0;" parent="1" source="rK9YfflER0Mp0wtVrPLG-52" target="rK9YfflER0Mp0wtVrPLG-101" edge="1">
          <mxGeometry relative="1" as="geometry">
            <mxPoint x="1380" y="323" as="targetPoint" />
          </mxGeometry>
        </mxCell>
        <mxCell id="rK9YfflER0Mp0wtVrPLG-144" value="&lt;h1&gt;Query service&lt;/h1&gt;&lt;div style=&quot;font-size: 16px;&quot;&gt;&lt;ol style=&quot;direction: ltr; unicode-bidi: embed; margin-top: 0in; margin-bottom: 0in; font-family: Calibri;&quot; type=&quot;1&quot;&gt; &lt;li style=&quot;margin-top:0;margin-bottom:0;vertical-align:middle&quot; value=&quot;1&quot;&gt;&amp;nbsp;Based on the name of the data source (for example wage-dataset). The microservice can find out whether it is a CSV file, Mysql database or something else. (there would be some key-value store with that data) &lt;/li&gt;&lt;br&gt; &lt;li style=&quot;margin-top:0;margin-bottom:0;vertical-align:middle&quot;&gt;&lt;span style=&quot;&quot;&gt;If it is CSV,&amp;nbsp; it needs to load the file into a sqllite DB. However, it would be good to save the csv hash and sqllite hash somewhere to compare so that this is only done if the CSV changes. &lt;/span&gt;&lt;/li&gt;&lt;br&gt; &lt;li style=&quot;margin-top:0;margin-bottom:0;vertical-align:middle&quot;&gt;&lt;span style=&quot;&quot;&gt;The provided query is executed, and the results passed to the next Microservice in JSON format. &lt;/span&gt;&lt;/li&gt;&lt;br&gt; &lt;li style=&quot;margin-top:0;margin-bottom:0;vertical-align:middle&quot;&gt;&lt;span style=&quot;&quot;&gt;Nice to have: Caching of sql results&lt;/span&gt;&lt;/li&gt;&lt;br&gt;&lt;/ol&gt;&lt;br&gt;&lt;br&gt;&lt;/div&gt;" style="text;html=1;strokeColor=none;fillColor=none;spacing=5;spacingTop=-20;whiteSpace=wrap;overflow=hidden;rounded=0;" parent="1" vertex="1">
          <mxGeometry x="1326" y="620" width="648" height="310" as="geometry" />
        </mxCell>
        <mxCell id="rK9YfflER0Mp0wtVrPLG-145" value="&lt;h1&gt;Anonymize service&lt;/h1&gt;&lt;div style=&quot;font-size: 16px;&quot;&gt;&lt;ol style=&quot;direction: ltr; unicode-bidi: embed; margin-top: 0in; margin-bottom: 0in; font-family: Calibri;&quot; type=&quot;1&quot;&gt;&lt;li style=&quot;margin-top:0;margin-bottom:0;vertical-align:middle&quot; value=&quot;1&quot;&gt;Recognize a type of anonymizing (Generalization, Masking or Perturbation), and get the columns of which this should be done.&lt;/li&gt;&lt;br&gt; &lt;li style=&quot;margin-top:0;margin-bottom:0;vertical-align:middle&quot;&gt;&lt;span style=&quot;&quot;&gt;The anonymization should identify the datatypes and take appropiate action (for example a birthdate can be in different formats)&lt;/span&gt;&lt;/li&gt;&lt;br&gt; &lt;li style=&quot;margin-top:0;margin-bottom:0;vertical-align:middle&quot;&gt;&lt;span style=&quot;&quot;&gt;After doing the work it should pass it on to the next microservice&lt;/span&gt;&lt;/li&gt;&lt;br&gt;&lt;/ol&gt;&lt;br&gt;&lt;br&gt;&lt;/div&gt;" style="text;html=1;strokeColor=none;fillColor=none;spacing=5;spacingTop=-20;whiteSpace=wrap;overflow=hidden;rounded=0;" parent="1" vertex="1">
          <mxGeometry x="1326" y="930" width="548" height="220" as="geometry" />
        </mxCell>
        <mxCell id="rK9YfflER0Mp0wtVrPLG-146" value="&lt;h1&gt;Algorithm service&lt;/h1&gt;&lt;div style=&quot;font-size: 16px;&quot;&gt;&lt;ol style=&quot;direction: ltr; unicode-bidi: embed; margin-top: 0in; margin-bottom: 0in; font-family: Calibri;&quot; type=&quot;1&quot;&gt;&lt;li style=&quot;margin-top:0;margin-bottom:0;vertical-align:middle&quot; value=&quot;1&quot;&gt;Accept JSON from the previous microservice.&lt;/li&gt;&lt;br&gt; &lt;li style=&quot;margin-top:0;margin-bottom:0;vertical-align:middle&quot;&gt;&lt;span style=&quot;&quot;&gt;Create generic functions that can calculate things like average, sum, graph, etc.&lt;/span&gt;&lt;/li&gt;&lt;br&gt; &lt;li style=&quot;margin-top:0;margin-bottom:0;vertical-align:middle&quot;&gt;&lt;span style=&quot;&quot;&gt;Based on the column input and request it can calculate these things &lt;/span&gt;&lt;/li&gt;&lt;br&gt; &lt;li style=&quot;margin-top:0;margin-bottom:0;vertical-align:middle&quot;&gt;&lt;span style=&quot;&quot;&gt;This should work for different type of datasets and columns.&amp;nbsp;&lt;/span&gt;&lt;/li&gt;&lt;br&gt;&lt;/ol&gt;&lt;br&gt;&lt;br&gt;&lt;/div&gt;" style="text;html=1;strokeColor=none;fillColor=none;spacing=5;spacingTop=-20;whiteSpace=wrap;overflow=hidden;rounded=0;" parent="1" vertex="1">
          <mxGeometry x="1326" y="1150" width="760" height="200" as="geometry" />
        </mxCell>
        <mxCell id="rK9YfflER0Mp0wtVrPLG-147" value="&lt;h1&gt;Graph service&lt;/h1&gt;&lt;div style=&quot;font-size: 16px;&quot;&gt;&lt;ol style=&quot;direction: ltr; unicode-bidi: embed; margin-top: 0in; margin-bottom: 0in; font-family: Calibri;&quot; type=&quot;1&quot;&gt; &lt;li style=&quot;margin-top:0;margin-bottom:0;vertical-align:middle&quot; value=&quot;1&quot;&gt;Convert data to a type of graph based on request and the github.com/go-echarts/go-echarts package&lt;/li&gt;&lt;br&gt; &lt;li style=&quot;margin-top:0;margin-bottom:0;vertical-align:middle&quot;&gt;&lt;span style=&quot;&quot;&gt;Convert the bar chart to SVG/PNG to send in the response or next MS.&lt;/span&gt;&lt;/li&gt;&lt;/ol&gt;&lt;/div&gt;" style="text;html=1;strokeColor=none;fillColor=none;spacing=5;spacingTop=-20;whiteSpace=wrap;overflow=hidden;rounded=0;" parent="1" vertex="1">
          <mxGeometry x="1326" y="1370" width="760" height="140" as="geometry" />
        </mxCell>
        <mxCell id="g_2dzEI5n_QhCMGsD6OV-354" value="" style="group" parent="1" vertex="1" connectable="0">
          <mxGeometry x="-420" y="92.64" width="360" height="202.09000000000003" as="geometry" />
        </mxCell>
        <mxCell id="rK9YfflER0Mp0wtVrPLG-89" value="" style="rounded=0;whiteSpace=wrap;html=1;" parent="g_2dzEI5n_QhCMGsD6OV-354" vertex="1">
          <mxGeometry y="2.0900000000000034" width="360" height="200" as="geometry" />
        </mxCell>
        <mxCell id="rK9YfflER0Mp0wtVrPLG-90" value="&lt;font style=&quot;font-size: 16px;&quot;&gt;Data pod&lt;/font&gt;" style="sketch=0;outlineConnect=0;fontColor=#232F3E;gradientColor=none;fillColor=#000000;strokeColor=none;dashed=0;verticalLabelPosition=bottom;verticalAlign=top;align=center;html=1;fontSize=12;fontStyle=0;aspect=fixed;pointerEvents=1;shape=mxgraph.aws4.vault;" parent="g_2dzEI5n_QhCMGsD6OV-354" vertex="1">
          <mxGeometry x="20" y="10" width="24.93" height="31.37" as="geometry" />
        </mxCell>
        <mxCell id="rK9YfflER0Mp0wtVrPLG-91" value="&lt;font style=&quot;font-size: 16px;&quot;&gt;CSV files&lt;/font&gt;" style="outlineConnect=0;dashed=0;verticalLabelPosition=bottom;verticalAlign=top;align=center;html=1;shape=mxgraph.aws3.documents;fillColor=#759C3E;gradientColor=none;" parent="g_2dzEI5n_QhCMGsD6OV-354" vertex="1">
          <mxGeometry x="30" y="86.83000000000003" width="70" height="78.17" as="geometry" />
        </mxCell>
        <mxCell id="rK9YfflER0Mp0wtVrPLG-93" value="&lt;font style=&quot;font-size: 16px;&quot;&gt;Datasets provided by consortium partner&lt;br&gt;Can be different formats&lt;/font&gt;" style="text;html=1;strokeColor=none;fillColor=none;align=center;verticalAlign=middle;whiteSpace=wrap;rounded=0;" parent="g_2dzEI5n_QhCMGsD6OV-354" vertex="1">
          <mxGeometry x="50" width="300" height="56" as="geometry" />
        </mxCell>
        <mxCell id="rK9YfflER0Mp0wtVrPLG-96" value="Other" style="shape=cylinder3;whiteSpace=wrap;html=1;boundedLbl=1;backgroundOutline=1;size=15;" parent="g_2dzEI5n_QhCMGsD6OV-354" vertex="1">
          <mxGeometry x="270" y="104.74" width="60" height="80" as="geometry" />
        </mxCell>
        <mxCell id="rK9YfflER0Mp0wtVrPLG-97" value="" style="group" parent="g_2dzEI5n_QhCMGsD6OV-354" vertex="1" connectable="0">
          <mxGeometry x="150" y="86.83" width="76" height="97.90999999999997" as="geometry" />
        </mxCell>
        <mxCell id="rK9YfflER0Mp0wtVrPLG-95" value="" style="shape=datastore;whiteSpace=wrap;html=1;" parent="rK9YfflER0Mp0wtVrPLG-97" vertex="1">
          <mxGeometry width="70" height="90" as="geometry" />
        </mxCell>
        <mxCell id="rK9YfflER0Mp0wtVrPLG-94" value="" style="shape=datastore;whiteSpace=wrap;html=1;" parent="rK9YfflER0Mp0wtVrPLG-97" vertex="1">
          <mxGeometry x="3" y="4" width="70" height="90" as="geometry" />
        </mxCell>
        <mxCell id="rK9YfflER0Mp0wtVrPLG-92" value="Databases" style="shape=datastore;whiteSpace=wrap;html=1;" parent="rK9YfflER0Mp0wtVrPLG-97" vertex="1">
          <mxGeometry x="6" y="7.909999999999997" width="70" height="90" as="geometry" />
        </mxCell>
        <mxCell id="g_2dzEI5n_QhCMGsD6OV-253" value="Initial" style="" parent="0" visible="0" />
        <mxCell id="g_2dzEI5n_QhCMGsD6OV-254" value="&lt;font style=&quot;font-size: 18px;&quot;&gt;Orchestrator&lt;/font&gt;" style="ellipse;whiteSpace=wrap;html=1;fontSize=18;" parent="g_2dzEI5n_QhCMGsD6OV-253" vertex="1">
          <mxGeometry x="910" y="630" width="120" height="80" as="geometry" />
        </mxCell>
        <mxCell id="g_2dzEI5n_QhCMGsD6OV-257" value="&lt;font style=&quot;font-size: 20px;&quot;&gt;User&lt;/font&gt;" style="sketch=0;outlineConnect=0;fontColor=#232F3E;gradientColor=none;fillColor=#232F3D;strokeColor=none;dashed=0;verticalLabelPosition=bottom;verticalAlign=top;align=center;html=1;fontSize=12;fontStyle=0;aspect=fixed;pointerEvents=1;shape=mxgraph.aws4.user;" parent="g_2dzEI5n_QhCMGsD6OV-253" vertex="1">
          <mxGeometry x="41" y="630" width="78" height="78" as="geometry" />
        </mxCell>
        <mxCell id="g_2dzEI5n_QhCMGsD6OV-265" value="&lt;font style=&quot;font-size: 18px;&quot;&gt;Policy enforcer&lt;/font&gt;" style="ellipse;whiteSpace=wrap;html=1;fontSize=18;" parent="g_2dzEI5n_QhCMGsD6OV-253" vertex="1">
          <mxGeometry x="520" y="630" width="120" height="80" as="geometry" />
        </mxCell>
        <mxCell id="g_2dzEI5n_QhCMGsD6OV-274" value="" style="group" parent="g_2dzEI5n_QhCMGsD6OV-253" vertex="1" connectable="0">
          <mxGeometry x="405" y="100" width="360" height="270" as="geometry" />
        </mxCell>
        <mxCell id="g_2dzEI5n_QhCMGsD6OV-275" value="" style="rounded=1;whiteSpace=wrap;html=1;fontSize=18;" parent="g_2dzEI5n_QhCMGsD6OV-274" vertex="1">
          <mxGeometry width="360" height="270" as="geometry" />
        </mxCell>
        <mxCell id="g_2dzEI5n_QhCMGsD6OV-276" value="&lt;b style=&quot;font-size: 18px;&quot;&gt;Data steward - UvA&lt;br&gt;&lt;/b&gt;" style="text;html=1;strokeColor=none;fillColor=none;align=center;verticalAlign=middle;whiteSpace=wrap;rounded=0;fontSize=18;" parent="g_2dzEI5n_QhCMGsD6OV-274" vertex="1">
          <mxGeometry x="8.372093023255815" width="179.2213953488372" height="34.83870967741935" as="geometry" />
        </mxCell>
        <mxCell id="g_2dzEI5n_QhCMGsD6OV-277" value="&lt;font style=&quot;font-size: 20px;&quot;&gt;Data pod&lt;/font&gt;" style="sketch=0;outlineConnect=0;fontColor=#232F3E;gradientColor=none;fillColor=#000000;strokeColor=none;dashed=0;verticalLabelPosition=bottom;verticalAlign=top;align=center;html=1;fontSize=12;fontStyle=0;aspect=fixed;pointerEvents=1;shape=mxgraph.aws4.vault;" parent="g_2dzEI5n_QhCMGsD6OV-274" vertex="1">
          <mxGeometry x="151.62837209302324" y="59.99677419354838" width="56.7293023255814" height="71.37209302325581" as="geometry" />
        </mxCell>
        <mxCell id="g_2dzEI5n_QhCMGsD6OV-278" value="&lt;font style=&quot;font-size: 18px;&quot;&gt;Distributed agent&lt;br&gt;&lt;/font&gt;" style="ellipse;whiteSpace=wrap;html=1;fontSize=18;" parent="g_2dzEI5n_QhCMGsD6OV-274" vertex="1">
          <mxGeometry x="133.09488372093023" y="190.0041935483871" width="93.80093023255814" height="65.5316129032258" as="geometry" />
        </mxCell>
        <mxCell id="g_2dzEI5n_QhCMGsD6OV-279" value="" style="group" parent="g_2dzEI5n_QhCMGsD6OV-253" vertex="1" connectable="0">
          <mxGeometry x="790" y="100" width="366.9" height="270" as="geometry" />
        </mxCell>
        <mxCell id="g_2dzEI5n_QhCMGsD6OV-280" value="" style="rounded=1;whiteSpace=wrap;html=1;fontSize=18;" parent="g_2dzEI5n_QhCMGsD6OV-279" vertex="1">
          <mxGeometry width="360" height="270" as="geometry" />
        </mxCell>
        <mxCell id="g_2dzEI5n_QhCMGsD6OV-281" value="&lt;b style=&quot;font-size: 18px;&quot;&gt;Data steward - VU&lt;br&gt;&lt;/b&gt;" style="text;html=1;strokeColor=none;fillColor=none;align=center;verticalAlign=middle;whiteSpace=wrap;rounded=0;fontSize=18;" parent="g_2dzEI5n_QhCMGsD6OV-279" vertex="1">
          <mxGeometry x="8.372093023255815" width="179.2213953488372" height="34.83870967741935" as="geometry" />
        </mxCell>
        <mxCell id="g_2dzEI5n_QhCMGsD6OV-282" value="&lt;font style=&quot;font-size: 20px;&quot;&gt;Data pod&lt;/font&gt;" style="sketch=0;outlineConnect=0;fontColor=#232F3E;gradientColor=none;fillColor=#000000;strokeColor=none;dashed=0;verticalLabelPosition=bottom;verticalAlign=top;align=center;html=1;fontSize=12;fontStyle=0;aspect=fixed;pointerEvents=1;shape=mxgraph.aws4.vault;" parent="g_2dzEI5n_QhCMGsD6OV-279" vertex="1">
          <mxGeometry x="151.62837209302324" y="59.99677419354838" width="56.7293023255814" height="71.37209302325581" as="geometry" />
        </mxCell>
        <mxCell id="g_2dzEI5n_QhCMGsD6OV-283" value="&lt;font style=&quot;font-size: 18px;&quot;&gt;Distributed agent&lt;br&gt;&lt;/font&gt;" style="ellipse;whiteSpace=wrap;html=1;fontSize=18;" parent="g_2dzEI5n_QhCMGsD6OV-279" vertex="1">
          <mxGeometry x="133.09488372093023" y="190.0041935483871" width="93.80093023255814" height="65.5316129032258" as="geometry" />
        </mxCell>
        <mxCell id="g_2dzEI5n_QhCMGsD6OV-285" value="" style="group" parent="g_2dzEI5n_QhCMGsD6OV-253" vertex="1" connectable="0">
          <mxGeometry x="30" y="100" width="360" height="270" as="geometry" />
        </mxCell>
        <mxCell id="g_2dzEI5n_QhCMGsD6OV-286" value="" style="rounded=1;whiteSpace=wrap;html=1;fontSize=18;" parent="g_2dzEI5n_QhCMGsD6OV-285" vertex="1">
          <mxGeometry x="-17" y="-15.460000000000008" width="360" height="270" as="geometry" />
        </mxCell>
        <mxCell id="g_2dzEI5n_QhCMGsD6OV-287" value="" style="rounded=1;whiteSpace=wrap;html=1;fontSize=18;" parent="g_2dzEI5n_QhCMGsD6OV-285" vertex="1">
          <mxGeometry x="-11" y="-11.460000000000008" width="360" height="270" as="geometry" />
        </mxCell>
        <mxCell id="g_2dzEI5n_QhCMGsD6OV-288" value="" style="rounded=1;whiteSpace=wrap;html=1;fontSize=18;" parent="g_2dzEI5n_QhCMGsD6OV-285" vertex="1">
          <mxGeometry x="-5" y="-6.460000000000008" width="360" height="270" as="geometry" />
        </mxCell>
        <mxCell id="g_2dzEI5n_QhCMGsD6OV-289" value="" style="rounded=1;whiteSpace=wrap;html=1;fontSize=18;" parent="g_2dzEI5n_QhCMGsD6OV-285" vertex="1">
          <mxGeometry width="360" height="270" as="geometry" />
        </mxCell>
        <mxCell id="g_2dzEI5n_QhCMGsD6OV-290" value="&lt;b style=&quot;font-size: 18px;&quot;&gt;Other stewards&lt;br&gt;&lt;/b&gt;" style="text;html=1;strokeColor=none;fillColor=none;align=center;verticalAlign=middle;whiteSpace=wrap;rounded=0;fontSize=18;" parent="g_2dzEI5n_QhCMGsD6OV-285" vertex="1">
          <mxGeometry x="8.372093023255815" width="179.2213953488372" height="34.83870967741935" as="geometry" />
        </mxCell>
        <mxCell id="g_2dzEI5n_QhCMGsD6OV-291" value="&lt;font style=&quot;font-size: 20px;&quot;&gt;Data pod&lt;/font&gt;" style="sketch=0;outlineConnect=0;fontColor=#232F3E;gradientColor=none;fillColor=#000000;strokeColor=none;dashed=0;verticalLabelPosition=bottom;verticalAlign=top;align=center;html=1;fontSize=12;fontStyle=0;aspect=fixed;pointerEvents=1;shape=mxgraph.aws4.vault;" parent="g_2dzEI5n_QhCMGsD6OV-285" vertex="1">
          <mxGeometry x="151.62837209302324" y="59.99677419354838" width="56.7293023255814" height="71.37209302325581" as="geometry" />
        </mxCell>
        <mxCell id="g_2dzEI5n_QhCMGsD6OV-292" value="&lt;font style=&quot;font-size: 18px;&quot;&gt;Distributed agent&lt;br&gt;&lt;/font&gt;" style="ellipse;whiteSpace=wrap;html=1;fontSize=18;" parent="g_2dzEI5n_QhCMGsD6OV-285" vertex="1">
          <mxGeometry x="133.09488372093023" y="190.0041935483871" width="93.80093023255814" height="65.5316129032258" as="geometry" />
        </mxCell>
        <mxCell id="g_2dzEI5n_QhCMGsD6OV-377" value="Datapod" parent="0" visible="0" />
        <mxCell id="g_2dzEI5n_QhCMGsD6OV-382" value="" style="group" parent="g_2dzEI5n_QhCMGsD6OV-377" vertex="1" connectable="0">
          <mxGeometry x="405" y="100" width="360" height="270" as="geometry" />
        </mxCell>
        <mxCell id="g_2dzEI5n_QhCMGsD6OV-383" value="" style="rounded=1;whiteSpace=wrap;html=1;fontSize=18;" parent="g_2dzEI5n_QhCMGsD6OV-382" vertex="1">
          <mxGeometry width="360" height="270" as="geometry" />
        </mxCell>
        <mxCell id="g_2dzEI5n_QhCMGsD6OV-384" value="&lt;b style=&quot;font-size: 18px;&quot;&gt;Data steward - UvA&lt;br&gt;&lt;/b&gt;" style="text;html=1;strokeColor=none;fillColor=none;align=center;verticalAlign=middle;whiteSpace=wrap;rounded=0;fontSize=18;" parent="g_2dzEI5n_QhCMGsD6OV-382" vertex="1">
          <mxGeometry x="8.372093023255815" width="179.2213953488372" height="34.83870967741935" as="geometry" />
        </mxCell>
        <mxCell id="g_2dzEI5n_QhCMGsD6OV-385" value="&lt;font style=&quot;font-size: 20px;&quot;&gt;Data pod&lt;/font&gt;" style="sketch=0;outlineConnect=0;fontColor=#232F3E;gradientColor=none;fillColor=#000000;strokeColor=none;dashed=0;verticalLabelPosition=bottom;verticalAlign=top;align=center;html=1;fontSize=12;fontStyle=0;aspect=fixed;pointerEvents=1;shape=mxgraph.aws4.vault;" parent="g_2dzEI5n_QhCMGsD6OV-382" vertex="1">
          <mxGeometry x="151.62837209302324" y="59.99677419354838" width="56.7293023255814" height="71.37209302325581" as="geometry" />
        </mxCell>
        <mxCell id="g_2dzEI5n_QhCMGsD6OV-386" value="&lt;font style=&quot;font-size: 18px;&quot;&gt;Distributed agent&lt;br&gt;&lt;/font&gt;" style="ellipse;whiteSpace=wrap;html=1;fontSize=18;" parent="g_2dzEI5n_QhCMGsD6OV-382" vertex="1">
          <mxGeometry x="133.09488372093023" y="190.0041935483871" width="93.80093023255814" height="65.5316129032258" as="geometry" />
        </mxCell>
        <mxCell id="g_2dzEI5n_QhCMGsD6OV-387" value="" style="group" parent="g_2dzEI5n_QhCMGsD6OV-377" vertex="1" connectable="0">
          <mxGeometry x="790" y="100" width="366.9" height="270" as="geometry" />
        </mxCell>
        <mxCell id="g_2dzEI5n_QhCMGsD6OV-388" value="" style="rounded=1;whiteSpace=wrap;html=1;fontSize=18;" parent="g_2dzEI5n_QhCMGsD6OV-387" vertex="1">
          <mxGeometry width="360" height="270" as="geometry" />
        </mxCell>
        <mxCell id="g_2dzEI5n_QhCMGsD6OV-389" value="&lt;b style=&quot;font-size: 18px;&quot;&gt;Data steward - VU&lt;br&gt;&lt;/b&gt;" style="text;html=1;strokeColor=none;fillColor=none;align=center;verticalAlign=middle;whiteSpace=wrap;rounded=0;fontSize=18;" parent="g_2dzEI5n_QhCMGsD6OV-387" vertex="1">
          <mxGeometry x="8.372093023255815" width="179.2213953488372" height="34.83870967741935" as="geometry" />
        </mxCell>
        <mxCell id="g_2dzEI5n_QhCMGsD6OV-390" value="&lt;font style=&quot;font-size: 20px;&quot;&gt;Data pod&lt;/font&gt;" style="sketch=0;outlineConnect=0;fontColor=#232F3E;gradientColor=none;fillColor=#000000;strokeColor=none;dashed=0;verticalLabelPosition=bottom;verticalAlign=top;align=center;html=1;fontSize=12;fontStyle=0;aspect=fixed;pointerEvents=1;shape=mxgraph.aws4.vault;" parent="g_2dzEI5n_QhCMGsD6OV-387" vertex="1">
          <mxGeometry x="151.62837209302324" y="59.99677419354838" width="56.7293023255814" height="71.37209302325581" as="geometry" />
        </mxCell>
        <mxCell id="g_2dzEI5n_QhCMGsD6OV-391" value="&lt;font style=&quot;font-size: 18px;&quot;&gt;Distributed agent&lt;br&gt;&lt;/font&gt;" style="ellipse;whiteSpace=wrap;html=1;fontSize=18;" parent="g_2dzEI5n_QhCMGsD6OV-387" vertex="1">
          <mxGeometry x="133.09488372093023" y="190.0041935483871" width="93.80093023255814" height="65.5316129032258" as="geometry" />
        </mxCell>
        <mxCell id="g_2dzEI5n_QhCMGsD6OV-392" value="" style="group" parent="g_2dzEI5n_QhCMGsD6OV-377" vertex="1" connectable="0">
          <mxGeometry x="30" y="100" width="360" height="270" as="geometry" />
        </mxCell>
        <mxCell id="g_2dzEI5n_QhCMGsD6OV-393" value="" style="rounded=1;whiteSpace=wrap;html=1;fontSize=18;" parent="g_2dzEI5n_QhCMGsD6OV-392" vertex="1">
          <mxGeometry x="-17" y="-15.460000000000008" width="360" height="270" as="geometry" />
        </mxCell>
        <mxCell id="g_2dzEI5n_QhCMGsD6OV-394" value="" style="rounded=1;whiteSpace=wrap;html=1;fontSize=18;" parent="g_2dzEI5n_QhCMGsD6OV-392" vertex="1">
          <mxGeometry x="-11" y="-11.460000000000008" width="360" height="270" as="geometry" />
        </mxCell>
        <mxCell id="g_2dzEI5n_QhCMGsD6OV-395" value="" style="rounded=1;whiteSpace=wrap;html=1;fontSize=18;" parent="g_2dzEI5n_QhCMGsD6OV-392" vertex="1">
          <mxGeometry x="-5" y="-6.460000000000008" width="360" height="270" as="geometry" />
        </mxCell>
        <mxCell id="g_2dzEI5n_QhCMGsD6OV-396" value="" style="rounded=1;whiteSpace=wrap;html=1;fontSize=18;" parent="g_2dzEI5n_QhCMGsD6OV-392" vertex="1">
          <mxGeometry width="360" height="270" as="geometry" />
        </mxCell>
        <mxCell id="g_2dzEI5n_QhCMGsD6OV-397" value="&lt;b style=&quot;font-size: 18px;&quot;&gt;Other stewards&lt;br&gt;&lt;/b&gt;" style="text;html=1;strokeColor=none;fillColor=none;align=center;verticalAlign=middle;whiteSpace=wrap;rounded=0;fontSize=18;" parent="g_2dzEI5n_QhCMGsD6OV-392" vertex="1">
          <mxGeometry x="8.372093023255815" width="179.2213953488372" height="34.83870967741935" as="geometry" />
        </mxCell>
        <mxCell id="g_2dzEI5n_QhCMGsD6OV-398" value="&lt;font style=&quot;font-size: 20px;&quot;&gt;Data pod&lt;/font&gt;" style="sketch=0;outlineConnect=0;fontColor=#232F3E;gradientColor=none;fillColor=#000000;strokeColor=none;dashed=0;verticalLabelPosition=bottom;verticalAlign=top;align=center;html=1;fontSize=12;fontStyle=0;aspect=fixed;pointerEvents=1;shape=mxgraph.aws4.vault;" parent="g_2dzEI5n_QhCMGsD6OV-392" vertex="1">
          <mxGeometry x="151.62837209302324" y="59.99677419354838" width="56.7293023255814" height="71.37209302325581" as="geometry" />
        </mxCell>
        <mxCell id="g_2dzEI5n_QhCMGsD6OV-399" value="&lt;font style=&quot;font-size: 18px;&quot;&gt;Distributed agent&lt;br&gt;&lt;/font&gt;" style="ellipse;whiteSpace=wrap;html=1;fontSize=18;" parent="g_2dzEI5n_QhCMGsD6OV-392" vertex="1">
          <mxGeometry x="133.09488372093023" y="190.0041935483871" width="93.80093023255814" height="65.5316129032258" as="geometry" />
        </mxCell>
        <mxCell id="g_2dzEI5n_QhCMGsD6OV-400" value="" style="group" parent="g_2dzEI5n_QhCMGsD6OV-377" vertex="1" connectable="0">
          <mxGeometry x="317" y="470" width="535" height="282.09" as="geometry" />
        </mxCell>
        <mxCell id="g_2dzEI5n_QhCMGsD6OV-401" value="" style="rounded=0;whiteSpace=wrap;html=1;" parent="g_2dzEI5n_QhCMGsD6OV-400" vertex="1">
          <mxGeometry y="2.917354149141476" width="535" height="279.1726458508585" as="geometry" />
        </mxCell>
        <mxCell id="g_2dzEI5n_QhCMGsD6OV-402" value="&lt;font style=&quot;font-size: 16px;&quot;&gt;Data pod&lt;/font&gt;" style="sketch=0;outlineConnect=0;fontColor=#232F3E;gradientColor=none;fillColor=#000000;strokeColor=none;dashed=0;verticalLabelPosition=bottom;verticalAlign=top;align=center;html=1;fontSize=12;fontStyle=0;aspect=fixed;pointerEvents=1;shape=mxgraph.aws4.vault;" parent="g_2dzEI5n_QhCMGsD6OV-400" vertex="1">
          <mxGeometry x="29.72222222222222" y="13.958632292542925" width="34.798870305309514" height="43.78822950170716" as="geometry" />
        </mxCell>
        <mxCell id="g_2dzEI5n_QhCMGsD6OV-403" value="&lt;font style=&quot;font-size: 16px;&quot;&gt;CSV files&lt;/font&gt;" style="outlineConnect=0;dashed=0;verticalLabelPosition=bottom;verticalAlign=top;align=center;html=1;shape=mxgraph.aws3.documents;fillColor=#759C3E;gradientColor=none;" parent="g_2dzEI5n_QhCMGsD6OV-400" vertex="1">
          <mxGeometry x="44.58333333333333" y="121.20280419615024" width="104.02777777777777" height="109.11462863080804" as="geometry" />
        </mxCell>
        <mxCell id="g_2dzEI5n_QhCMGsD6OV-404" value="&lt;font style=&quot;font-size: 19px;&quot;&gt;Datasets provided by a consortium partner&lt;br&gt;Can be different formats&lt;/font&gt;" style="text;html=1;strokeColor=none;fillColor=none;align=center;verticalAlign=middle;whiteSpace=wrap;rounded=0;" parent="g_2dzEI5n_QhCMGsD6OV-400" vertex="1">
          <mxGeometry x="74.30555555555556" width="445.83333333333337" height="78.16834083824037" as="geometry" />
        </mxCell>
        <mxCell id="g_2dzEI5n_QhCMGsD6OV-405" value="&lt;font style=&quot;font-size: 19px;&quot;&gt;Other&lt;/font&gt;" style="shape=cylinder3;whiteSpace=wrap;html=1;boundedLbl=1;backgroundOutline=1;size=15;" parent="g_2dzEI5n_QhCMGsD6OV-400" vertex="1">
          <mxGeometry x="401.25" y="146.2027146320946" width="89.16666666666666" height="111.6690583403434" as="geometry" />
        </mxCell>
        <mxCell id="g_2dzEI5n_QhCMGsD6OV-406" value="" style="group" parent="g_2dzEI5n_QhCMGsD6OV-400" vertex="1" connectable="0">
          <mxGeometry x="222.91666666666669" y="121.2028041961502" width="112.94444444444444" height="136.6689687762877" as="geometry" />
        </mxCell>
        <mxCell id="g_2dzEI5n_QhCMGsD6OV-407" value="" style="shape=datastore;whiteSpace=wrap;html=1;" parent="g_2dzEI5n_QhCMGsD6OV-406" vertex="1">
          <mxGeometry width="104.02777777777777" height="125.62769063288631" as="geometry" />
        </mxCell>
        <mxCell id="g_2dzEI5n_QhCMGsD6OV-408" value="" style="shape=datastore;whiteSpace=wrap;html=1;" parent="g_2dzEI5n_QhCMGsD6OV-406" vertex="1">
          <mxGeometry x="4.458333333333334" y="5.583452917017169" width="104.02777777777777" height="125.62769063288631" as="geometry" />
        </mxCell>
        <mxCell id="g_2dzEI5n_QhCMGsD6OV-409" value="&lt;font style=&quot;font-size: 19px;&quot;&gt;Databases&lt;/font&gt;" style="shape=datastore;whiteSpace=wrap;html=1;" parent="g_2dzEI5n_QhCMGsD6OV-406" vertex="1">
          <mxGeometry x="8.916666666666668" y="11.041278143401449" width="104.02777777777777" height="125.62769063288631" as="geometry" />
        </mxCell>
        <mxCell id="g_2dzEI5n_QhCMGsD6OV-410" style="rounded=0;orthogonalLoop=1;jettySize=auto;html=1;dashed=1;dashPattern=8 8;" parent="g_2dzEI5n_QhCMGsD6OV-377" source="g_2dzEI5n_QhCMGsD6OV-390" target="g_2dzEI5n_QhCMGsD6OV-404" edge="1">
          <mxGeometry relative="1" as="geometry" />
        </mxCell>
        <mxCell id="ZJBauCjtSy6QRAS6ge7c-302" value="Text req 1" parent="0" />
        <mxCell id="ZJBauCjtSy6QRAS6ge7c-325" value="&lt;ul style=&quot;font-size: 16px;&quot;&gt;&lt;li&gt;Credentials&lt;/li&gt;&lt;li&gt;Target data stewards&lt;/li&gt;&lt;/ul&gt;" style="text;html=1;strokeColor=none;fillColor=none;align=left;verticalAlign=middle;whiteSpace=wrap;rounded=0;" parent="ZJBauCjtSy6QRAS6ge7c-302" vertex="1">
          <mxGeometry x="227" y="765" width="270" height="30" as="geometry" />
        </mxCell>
        <mxCell id="ZJBauCjtSy6QRAS6ge7c-326" value="&lt;ul style=&quot;font-size: 16px;&quot;&gt;&lt;li&gt;AccessToken&lt;/li&gt;&lt;li&gt;Endpoints&lt;/li&gt;&lt;/ul&gt;" style="text;html=1;strokeColor=none;fillColor=none;align=left;verticalAlign=middle;whiteSpace=wrap;rounded=0;" parent="ZJBauCjtSy6QRAS6ge7c-302" vertex="1">
          <mxGeometry x="227" y="676" width="270" height="30" as="geometry" />
        </mxCell>
        <mxCell id="ZJBauCjtSy6QRAS6ge7c-327" value="&lt;ul style=&quot;font-size: 16px;&quot;&gt;&lt;li&gt;Agreed archetypes&lt;/li&gt;&lt;li&gt;Targets&lt;/li&gt;&lt;/ul&gt;" style="text;html=1;strokeColor=none;fillColor=none;align=left;verticalAlign=middle;whiteSpace=wrap;rounded=0;" parent="ZJBauCjtSy6QRAS6ge7c-302" vertex="1">
          <mxGeometry x="685" y="683" width="270" height="30" as="geometry" />
        </mxCell>
        <mxCell id="7rcx1-tKsF-53q21rA_H-117" value="Request1" parent="0" />
        <mxCell id="7rcx1-tKsF-53q21rA_H-118" value="&lt;font style=&quot;font-size: 18px;&quot;&gt;Orchestrator&lt;/font&gt;" style="ellipse;whiteSpace=wrap;html=1;fontSize=18;" parent="7rcx1-tKsF-53q21rA_H-117" vertex="1">
          <mxGeometry x="910" y="630" width="120" height="80" as="geometry" />
        </mxCell>
        <mxCell id="7rcx1-tKsF-53q21rA_H-119" value="&lt;font style=&quot;font-size: 20px;&quot;&gt;User&lt;/font&gt;" style="sketch=0;outlineConnect=0;fontColor=#232F3E;gradientColor=none;fillColor=#232F3D;strokeColor=none;dashed=0;verticalLabelPosition=bottom;verticalAlign=top;align=center;html=1;fontSize=12;fontStyle=0;aspect=fixed;pointerEvents=1;shape=mxgraph.aws4.user;" parent="7rcx1-tKsF-53q21rA_H-117" vertex="1">
          <mxGeometry x="41" y="630" width="78" height="78" as="geometry" />
        </mxCell>
        <mxCell id="7rcx1-tKsF-53q21rA_H-121" value="&lt;font style=&quot;font-size: 21px;&quot;&gt;RequestApproval&lt;/font&gt;" style="text;html=1;strokeColor=none;fillColor=none;align=center;verticalAlign=middle;whiteSpace=wrap;rounded=0;" parent="7rcx1-tKsF-53q21rA_H-117" vertex="1">
          <mxGeometry x="194" y="730" width="180" height="30" as="geometry" />
        </mxCell>
        <mxCell id="7rcx1-tKsF-53q21rA_H-122" value="" style="edgeStyle=orthogonalEdgeStyle;rounded=0;orthogonalLoop=1;jettySize=auto;html=1;entryX=0;entryY=1;entryDx=0;entryDy=0;fontSize=18;curved=1;fillColor=#d5e8d4;strokeColor=#82b366;strokeWidth=2;" parent="7rcx1-tKsF-53q21rA_H-117" source="7rcx1-tKsF-53q21rA_H-119" target="7rcx1-tKsF-53q21rA_H-125" edge="1">
          <mxGeometry relative="1" as="geometry">
            <mxPoint x="69" y="708" as="sourcePoint" />
            <mxPoint x="888" y="741" as="targetPoint" />
            <Array as="points">
              <mxPoint x="69" y="733" />
              <mxPoint x="538" y="733" />
            </Array>
          </mxGeometry>
        </mxCell>
        <mxCell id="7rcx1-tKsF-53q21rA_H-123" style="edgeStyle=orthogonalEdgeStyle;rounded=0;orthogonalLoop=1;jettySize=auto;html=1;entryX=0.983;entryY=0.363;entryDx=0;entryDy=0;entryPerimeter=0;" parent="7rcx1-tKsF-53q21rA_H-117" source="7rcx1-tKsF-53q21rA_H-125" edge="1">
          <mxGeometry relative="1" as="geometry">
            <mxPoint x="113.47000000000003" y="665.7894999999999" as="targetPoint" />
            <Array as="points">
              <mxPoint x="420" y="666" />
              <mxPoint x="420" y="666" />
            </Array>
          </mxGeometry>
        </mxCell>
        <mxCell id="7rcx1-tKsF-53q21rA_H-124" style="edgeStyle=orthogonalEdgeStyle;rounded=0;orthogonalLoop=1;jettySize=auto;html=1;" parent="7rcx1-tKsF-53q21rA_H-117" source="7rcx1-tKsF-53q21rA_H-125" target="7rcx1-tKsF-53q21rA_H-118" edge="1">
          <mxGeometry relative="1" as="geometry" />
        </mxCell>
        <mxCell id="7rcx1-tKsF-53q21rA_H-125" value="&lt;font style=&quot;font-size: 18px;&quot;&gt;Policy enforcer&lt;/font&gt;" style="ellipse;whiteSpace=wrap;html=1;fontSize=18;" parent="7rcx1-tKsF-53q21rA_H-117" vertex="1">
          <mxGeometry x="520" y="630" width="120" height="80" as="geometry" />
        </mxCell>
        <mxCell id="7rcx1-tKsF-53q21rA_H-126" value="&lt;font style=&quot;font-size: 20px;&quot;&gt;OrchestratorRequest&lt;br&gt;&lt;/font&gt;" style="text;html=1;strokeColor=none;fillColor=none;align=center;verticalAlign=middle;whiteSpace=wrap;rounded=0;" parent="7rcx1-tKsF-53q21rA_H-117" vertex="1">
          <mxGeometry x="660" y="637" width="210" height="40" as="geometry" />
        </mxCell>
        <mxCell id="7rcx1-tKsF-53q21rA_H-127" value="&lt;font style=&quot;font-size: 21px;&quot;&gt;AcceptedDataRequest&lt;/font&gt;" style="text;html=1;strokeColor=none;fillColor=none;align=center;verticalAlign=middle;whiteSpace=wrap;rounded=0;" parent="7rcx1-tKsF-53q21rA_H-117" vertex="1">
          <mxGeometry x="190" y="630" width="240" height="47" as="geometry" />
        </mxCell>
        <mxCell id="7rcx1-tKsF-53q21rA_H-144" value="&lt;font style=&quot;font-size: 16px;&quot;&gt;&lt;b&gt;1&lt;/b&gt;&lt;/font&gt;" style="ellipse;whiteSpace=wrap;html=1;aspect=fixed;strokeWidth=2;fontFamily=Tahoma;spacingBottom=4;spacingRight=2;strokeColor=#82b366;fillColor=#d5e8d4;" parent="7rcx1-tKsF-53q21rA_H-117" vertex="1">
          <mxGeometry x="200" y="760" width="47" height="47" as="geometry" />
        </mxCell>
        <mxCell id="7rcx1-tKsF-53q21rA_H-145" value="&lt;font style=&quot;font-size: 16px;&quot;&gt;&lt;b&gt;2&lt;/b&gt;&lt;/font&gt;" style="ellipse;whiteSpace=wrap;html=1;aspect=fixed;strokeWidth=2;fontFamily=Tahoma;spacingBottom=4;spacingRight=2;strokeColor=#d6b656;fillColor=#fff2cc;" parent="7rcx1-tKsF-53q21rA_H-117" vertex="1">
          <mxGeometry x="660" y="678" width="47" height="47" as="geometry" />
        </mxCell>
        <mxCell id="7rcx1-tKsF-53q21rA_H-146" value="&lt;font style=&quot;font-size: 16px;&quot;&gt;&lt;b&gt;2&lt;/b&gt;&lt;/font&gt;" style="ellipse;whiteSpace=wrap;html=1;aspect=fixed;strokeWidth=2;fontFamily=Tahoma;spacingBottom=4;spacingRight=2;strokeColor=#d6b656;fillColor=#fff2cc;" parent="7rcx1-tKsF-53q21rA_H-117" vertex="1">
          <mxGeometry x="200" y="670" width="47" height="47" as="geometry" />
        </mxCell>
        <mxCell id="ZJBauCjtSy6QRAS6ge7c-395" value="stewards" parent="0" />
        <mxCell id="ZJBauCjtSy6QRAS6ge7c-405" value="" style="group" parent="ZJBauCjtSy6QRAS6ge7c-395" vertex="1" connectable="0">
          <mxGeometry x="410" y="300" width="360" height="270" as="geometry" />
        </mxCell>
        <mxCell id="ZJBauCjtSy6QRAS6ge7c-406" value="" style="rounded=1;whiteSpace=wrap;html=1;fontSize=18;" parent="ZJBauCjtSy6QRAS6ge7c-405" vertex="1">
          <mxGeometry width="360" height="270" as="geometry" />
        </mxCell>
        <mxCell id="ZJBauCjtSy6QRAS6ge7c-407" value="&lt;b style=&quot;font-size: 18px;&quot;&gt;Data steward - UvA&lt;br&gt;&lt;/b&gt;" style="text;html=1;strokeColor=none;fillColor=none;align=center;verticalAlign=middle;whiteSpace=wrap;rounded=0;fontSize=18;" parent="ZJBauCjtSy6QRAS6ge7c-405" vertex="1">
          <mxGeometry x="8.372093023255815" width="179.2213953488372" height="34.83870967741935" as="geometry" />
        </mxCell>
        <mxCell id="ZJBauCjtSy6QRAS6ge7c-408" value="&lt;font style=&quot;font-size: 20px;&quot;&gt;Data pod&lt;/font&gt;" style="sketch=0;outlineConnect=0;fontColor=#232F3E;gradientColor=none;fillColor=#000000;strokeColor=none;dashed=0;verticalLabelPosition=bottom;verticalAlign=top;align=center;html=1;fontSize=12;fontStyle=0;aspect=fixed;pointerEvents=1;shape=mxgraph.aws4.vault;" parent="ZJBauCjtSy6QRAS6ge7c-405" vertex="1">
          <mxGeometry x="151.62837209302324" y="59.99677419354838" width="56.7293023255814" height="71.37209302325581" as="geometry" />
        </mxCell>
        <mxCell id="ZJBauCjtSy6QRAS6ge7c-409" value="&lt;font style=&quot;font-size: 18px;&quot;&gt;Distributed agent&lt;br&gt;&lt;/font&gt;" style="ellipse;whiteSpace=wrap;html=1;fontSize=18;" parent="ZJBauCjtSy6QRAS6ge7c-405" vertex="1">
          <mxGeometry x="133.09488372093023" y="190.0041935483871" width="93.80093023255814" height="65.5316129032258" as="geometry" />
        </mxCell>
        <mxCell id="ZJBauCjtSy6QRAS6ge7c-410" value="" style="group" parent="ZJBauCjtSy6QRAS6ge7c-395" vertex="1" connectable="0">
          <mxGeometry x="410" y="10" width="366.9" height="270" as="geometry" />
        </mxCell>
        <mxCell id="ZJBauCjtSy6QRAS6ge7c-411" value="" style="rounded=1;whiteSpace=wrap;html=1;fontSize=18;" parent="ZJBauCjtSy6QRAS6ge7c-410" vertex="1">
          <mxGeometry width="360" height="270" as="geometry" />
        </mxCell>
        <mxCell id="ZJBauCjtSy6QRAS6ge7c-412" value="&lt;b style=&quot;font-size: 18px;&quot;&gt;Data steward - VU&lt;br&gt;&lt;/b&gt;" style="text;html=1;strokeColor=none;fillColor=none;align=center;verticalAlign=middle;whiteSpace=wrap;rounded=0;fontSize=18;" parent="ZJBauCjtSy6QRAS6ge7c-410" vertex="1">
          <mxGeometry x="8.372093023255815" width="179.2213953488372" height="34.83870967741935" as="geometry" />
        </mxCell>
        <mxCell id="ZJBauCjtSy6QRAS6ge7c-413" value="&lt;font style=&quot;font-size: 20px;&quot;&gt;Data pod&lt;/font&gt;" style="sketch=0;outlineConnect=0;fontColor=#232F3E;gradientColor=none;fillColor=#000000;strokeColor=none;dashed=0;verticalLabelPosition=bottom;verticalAlign=top;align=center;html=1;fontSize=12;fontStyle=0;aspect=fixed;pointerEvents=1;shape=mxgraph.aws4.vault;" parent="ZJBauCjtSy6QRAS6ge7c-410" vertex="1">
          <mxGeometry x="151.62837209302324" y="59.99677419354838" width="56.7293023255814" height="71.37209302325581" as="geometry" />
        </mxCell>
        <mxCell id="ZJBauCjtSy6QRAS6ge7c-414" value="&lt;font style=&quot;font-size: 18px;&quot;&gt;Distributed agent&lt;br&gt;&lt;/font&gt;" style="ellipse;whiteSpace=wrap;html=1;fontSize=18;" parent="ZJBauCjtSy6QRAS6ge7c-410" vertex="1">
          <mxGeometry x="133.09488372093023" y="190.0041935483871" width="93.80093023255814" height="65.5316129032258" as="geometry" />
        </mxCell>
        <mxCell id="ZJBauCjtSy6QRAS6ge7c-418" value="Text step 3" parent="0" visible="0" />
        <mxCell id="ZJBauCjtSy6QRAS6ge7c-424" value="&lt;ul style=&quot;font-size: 16px;&quot;&gt;&lt;li&gt;Microservice configuration&lt;/li&gt;&lt;/ul&gt;" style="text;html=1;strokeColor=none;fillColor=none;align=left;verticalAlign=middle;whiteSpace=wrap;rounded=0;" parent="ZJBauCjtSy6QRAS6ge7c-418" vertex="1">
          <mxGeometry x="720" y="580" width="270" height="30" as="geometry" />
        </mxCell>
        <mxCell id="ZJBauCjtSy6QRAS6ge7c-262" value="Composition step 3" parent="0" visible="0" />
        <mxCell id="ZJBauCjtSy6QRAS6ge7c-265" value="&lt;span style=&quot;font-size: 21px;&quot;&gt;Composition&lt;br&gt;Request&lt;/span&gt;" style="text;html=1;strokeColor=none;fillColor=none;align=center;verticalAlign=middle;whiteSpace=wrap;rounded=0;" parent="ZJBauCjtSy6QRAS6ge7c-262" vertex="1">
          <mxGeometry x="776.9" y="470" width="200" height="56" as="geometry" />
        </mxCell>
        <mxCell id="ZJBauCjtSy6QRAS6ge7c-293" style="rounded=0;orthogonalLoop=1;jettySize=auto;html=1;entryX=1;entryY=0.5;entryDx=0;entryDy=0;strokeWidth=3;strokeColor=#CC0000;edgeStyle=orthogonalEdgeStyle;curved=1;exitX=0.5;exitY=0;exitDx=0;exitDy=0;" parent="ZJBauCjtSy6QRAS6ge7c-262" edge="1">
          <mxGeometry relative="1" as="geometry">
            <Array as="points">
              <mxPoint x="970" y="233" />
            </Array>
            <mxPoint x="970" y="630" as="sourcePoint" />
            <mxPoint x="636.8958139534918" y="232.7700000000002" as="targetPoint" />
          </mxGeometry>
        </mxCell>
        <mxCell id="ZJBauCjtSy6QRAS6ge7c-294" style="edgeStyle=orthogonalEdgeStyle;rounded=0;orthogonalLoop=1;jettySize=auto;html=1;jumpStyle=arc;jumpSize=10;strokeColor=#CC0000;strokeWidth=3;curved=1;" parent="ZJBauCjtSy6QRAS6ge7c-262" edge="1">
          <mxGeometry relative="1" as="geometry">
            <Array as="points">
              <mxPoint x="970" y="520" />
            </Array>
            <mxPoint x="970" y="630" as="sourcePoint" />
            <mxPoint x="636.7359150125767" y="520.0666666666666" as="targetPoint" />
          </mxGeometry>
        </mxCell>
        <mxCell id="ZJBauCjtSy6QRAS6ge7c-298" value="&lt;font style=&quot;font-size: 16px;&quot;&gt;&lt;b&gt;3&lt;/b&gt;&lt;/font&gt;" style="ellipse;whiteSpace=wrap;html=1;aspect=fixed;strokeWidth=2;fontFamily=Tahoma;spacingBottom=4;spacingRight=2;strokeColor=#b85450;fillColor=#f8cecc;" parent="ZJBauCjtSy6QRAS6ge7c-262" vertex="1">
          <mxGeometry x="790" y="540" width="47" height="47" as="geometry" />
        </mxCell>
        <mxCell id="ZJBauCjtSy6QRAS6ge7c-299" style="edgeStyle=orthogonalEdgeStyle;rounded=0;orthogonalLoop=1;jettySize=auto;html=1;exitX=0.5;exitY=1;exitDx=0;exitDy=0;" parent="ZJBauCjtSy6QRAS6ge7c-262" edge="1">
          <mxGeometry relative="1" as="geometry">
            <mxPoint x="189" y="577" as="sourcePoint" />
            <mxPoint x="189" y="577" as="targetPoint" />
          </mxGeometry>
        </mxCell>
        <mxCell id="7rcx1-tKsF-53q21rA_H-193" value="Requesst1.2" parent="0" visible="0" />
        <mxCell id="7rcx1-tKsF-53q21rA_H-194" value="&lt;font style=&quot;font-size: 18px;&quot;&gt;Orchestrator&lt;/font&gt;" style="ellipse;whiteSpace=wrap;html=1;fontSize=18;" parent="7rcx1-tKsF-53q21rA_H-193" vertex="1">
          <mxGeometry x="910" y="630" width="120" height="80" as="geometry" />
        </mxCell>
        <mxCell id="7rcx1-tKsF-53q21rA_H-195" value="&lt;font style=&quot;font-size: 20px;&quot;&gt;User&lt;/font&gt;" style="sketch=0;outlineConnect=0;fontColor=#232F3E;gradientColor=none;fillColor=#232F3D;strokeColor=none;dashed=0;verticalLabelPosition=bottom;verticalAlign=top;align=center;html=1;fontSize=12;fontStyle=0;aspect=fixed;pointerEvents=1;shape=mxgraph.aws4.user;" parent="7rcx1-tKsF-53q21rA_H-193" vertex="1">
          <mxGeometry x="41" y="630" width="78" height="78" as="geometry" />
        </mxCell>
        <mxCell id="7rcx1-tKsF-53q21rA_H-201" value="&lt;font style=&quot;font-size: 18px;&quot;&gt;Policy enforcer&lt;/font&gt;" style="ellipse;whiteSpace=wrap;html=1;fontSize=18;" parent="7rcx1-tKsF-53q21rA_H-193" vertex="1">
          <mxGeometry x="520" y="630" width="120" height="80" as="geometry" />
        </mxCell>
        <mxCell id="7rcx1-tKsF-53q21rA_H-216" value="&lt;font style=&quot;font-size: 21px;&quot;&gt;DataRequest&lt;/font&gt;" style="text;html=1;strokeColor=none;fillColor=none;align=center;verticalAlign=middle;whiteSpace=wrap;rounded=0;" parent="7rcx1-tKsF-53q21rA_H-193" vertex="1">
          <mxGeometry x="119" y="550" width="140" height="37" as="geometry" />
        </mxCell>
        <mxCell id="7rcx1-tKsF-53q21rA_H-225" value="&lt;font style=&quot;font-size: 16px;&quot;&gt;&lt;b&gt;4&lt;/b&gt;&lt;/font&gt;" style="ellipse;whiteSpace=wrap;html=1;aspect=fixed;strokeWidth=2;fontFamily=Tahoma;spacingBottom=4;spacingRight=2;strokeColor=#6c8ebf;fillColor=#dae8fc;" parent="7rcx1-tKsF-53q21rA_H-193" vertex="1">
          <mxGeometry x="119" y="590" width="47" height="47" as="geometry" />
        </mxCell>
        <mxCell id="7rcx1-tKsF-53q21rA_H-228" style="edgeStyle=orthogonalEdgeStyle;rounded=0;orthogonalLoop=1;jettySize=auto;html=1;exitX=0.5;exitY=1;exitDx=0;exitDy=0;" parent="7rcx1-tKsF-53q21rA_H-193" source="7rcx1-tKsF-53q21rA_H-216" target="7rcx1-tKsF-53q21rA_H-216" edge="1">
          <mxGeometry relative="1" as="geometry" />
        </mxCell>
        <mxCell id="7rcx1-tKsF-53q21rA_H-269" value="&lt;ul style=&quot;font-size: 16px;&quot;&gt;&lt;li&gt;Algorithm&lt;/li&gt;&lt;li&gt;Query&lt;/li&gt;&lt;li&gt;Other&lt;/li&gt;&lt;/ul&gt;" style="text;html=1;strokeColor=none;fillColor=none;align=left;verticalAlign=middle;whiteSpace=wrap;rounded=0;" parent="7rcx1-tKsF-53q21rA_H-193" vertex="1">
          <mxGeometry y="560" width="270" height="30" as="geometry" />
        </mxCell>
        <mxCell id="ZJBauCjtSy6QRAS6ge7c-128" value="" style="endArrow=classic;html=1;rounded=0;entryX=0;entryY=0.5;entryDx=0;entryDy=0;fillColor=#dae8fc;strokeColor=#6c8ebf;strokeWidth=4;" parent="7rcx1-tKsF-53q21rA_H-193" source="7rcx1-tKsF-53q21rA_H-195" edge="1">
          <mxGeometry width="50" height="50" relative="1" as="geometry">
            <mxPoint x="135" y="674" as="sourcePoint" />
            <mxPoint x="543.0948837209269" y="522.7700000000002" as="targetPoint" />
          </mxGeometry>
        </mxCell>
        <mxCell id="ZJBauCjtSy6QRAS6ge7c-129" value="" style="endArrow=classic;html=1;rounded=0;strokeWidth=4;fillColor=#dae8fc;strokeColor=#6c8ebf;entryX=0;entryY=0.5;entryDx=0;entryDy=0;edgeStyle=orthogonalEdgeStyle;curved=1;" parent="7rcx1-tKsF-53q21rA_H-193" source="7rcx1-tKsF-53q21rA_H-195" edge="1">
          <mxGeometry width="50" height="50" relative="1" as="geometry">
            <mxPoint x="130" y="650" as="sourcePoint" />
            <mxPoint x="543.0948837209269" y="232.7700000000002" as="targetPoint" />
            <Array as="points">
              <mxPoint x="110" y="233" />
            </Array>
          </mxGeometry>
        </mxCell>
        <mxCell id="ZJBauCjtSy6QRAS6ge7c-179" value="rest" parent="0" visible="0" />
        <mxCell id="ZJBauCjtSy6QRAS6ge7c-180" value="&lt;font style=&quot;font-size: 18px;&quot;&gt;Orchestrator&lt;/font&gt;" style="ellipse;whiteSpace=wrap;html=1;fontSize=18;" parent="ZJBauCjtSy6QRAS6ge7c-179" vertex="1">
          <mxGeometry x="910" y="630" width="120" height="80" as="geometry" />
        </mxCell>
        <mxCell id="ZJBauCjtSy6QRAS6ge7c-181" value="&lt;font style=&quot;font-size: 20px;&quot;&gt;User&lt;/font&gt;" style="sketch=0;outlineConnect=0;fontColor=#232F3E;gradientColor=none;fillColor=#232F3D;strokeColor=none;dashed=0;verticalLabelPosition=bottom;verticalAlign=top;align=center;html=1;fontSize=12;fontStyle=0;aspect=fixed;pointerEvents=1;shape=mxgraph.aws4.user;" parent="ZJBauCjtSy6QRAS6ge7c-179" vertex="1">
          <mxGeometry x="41" y="630" width="78" height="78" as="geometry" />
        </mxCell>
        <mxCell id="ZJBauCjtSy6QRAS6ge7c-186" value="&lt;font style=&quot;font-size: 18px;&quot;&gt;Policy enforcer&lt;/font&gt;" style="ellipse;whiteSpace=wrap;html=1;fontSize=18;" parent="ZJBauCjtSy6QRAS6ge7c-179" vertex="1">
          <mxGeometry x="520" y="630" width="120" height="80" as="geometry" />
        </mxCell>
        <mxCell id="ZJBauCjtSy6QRAS6ge7c-189" value="&lt;font style=&quot;font-size: 21px;&quot;&gt;DataRequest&lt;/font&gt;" style="text;html=1;strokeColor=none;fillColor=none;align=center;verticalAlign=middle;whiteSpace=wrap;rounded=0;" parent="ZJBauCjtSy6QRAS6ge7c-179" vertex="1">
          <mxGeometry x="270" y="668" width="140" height="37" as="geometry" />
        </mxCell>
        <mxCell id="ZJBauCjtSy6QRAS6ge7c-193" value="&lt;font style=&quot;font-size: 16px;&quot;&gt;&lt;b&gt;4&lt;/b&gt;&lt;/font&gt;" style="ellipse;whiteSpace=wrap;html=1;aspect=fixed;strokeWidth=2;fontFamily=Tahoma;spacingBottom=4;spacingRight=2;strokeColor=#6c8ebf;fillColor=#dae8fc;" parent="ZJBauCjtSy6QRAS6ge7c-179" vertex="1">
          <mxGeometry x="220" y="663" width="47" height="47" as="geometry" />
        </mxCell>
        <mxCell id="ZJBauCjtSy6QRAS6ge7c-194" style="edgeStyle=orthogonalEdgeStyle;rounded=0;orthogonalLoop=1;jettySize=auto;html=1;exitX=0.5;exitY=1;exitDx=0;exitDy=0;" parent="ZJBauCjtSy6QRAS6ge7c-179" source="ZJBauCjtSy6QRAS6ge7c-189" target="ZJBauCjtSy6QRAS6ge7c-189" edge="1">
          <mxGeometry relative="1" as="geometry" />
        </mxCell>
        <mxCell id="ZJBauCjtSy6QRAS6ge7c-219" value="" style="endArrow=classic;html=1;rounded=0;entryX=0.5;entryY=1;entryDx=0;entryDy=0;fillColor=#dae8fc;strokeColor=#6c8ebf;strokeWidth=4;edgeStyle=orthogonalEdgeStyle;curved=1;" parent="ZJBauCjtSy6QRAS6ge7c-179" source="ZJBauCjtSy6QRAS6ge7c-181" edge="1">
          <mxGeometry width="50" height="50" relative="1" as="geometry">
            <mxPoint x="135" y="674" as="sourcePoint" />
            <mxPoint x="589.9953488372093" y="555.5358064516131" as="targetPoint" />
            <Array as="points">
              <mxPoint x="590" y="650" />
            </Array>
          </mxGeometry>
        </mxCell>
        <mxCell id="ZJBauCjtSy6QRAS6ge7c-220" value="" style="endArrow=classic;html=1;rounded=0;strokeWidth=4;fillColor=#dae8fc;strokeColor=#6c8ebf;entryX=0;entryY=0.5;entryDx=0;entryDy=0;edgeStyle=orthogonalEdgeStyle;curved=1;" parent="ZJBauCjtSy6QRAS6ge7c-179" source="ZJBauCjtSy6QRAS6ge7c-181" edge="1">
          <mxGeometry width="50" height="50" relative="1" as="geometry">
            <mxPoint x="130" y="650" as="sourcePoint" />
            <mxPoint x="543.0948837209269" y="232.7700000000002" as="targetPoint" />
            <Array as="points">
              <mxPoint x="70" y="233" />
            </Array>
          </mxGeometry>
        </mxCell>
        <mxCell id="ZJBauCjtSy6QRAS6ge7c-221" value="" style="endArrow=none;html=1;rounded=0;edgeStyle=orthogonalEdgeStyle;curved=1;startArrow=classic;startFill=1;endFill=0;fillColor=#e1d5e7;strokeColor=#9673a6;strokeWidth=4;" parent="ZJBauCjtSy6QRAS6ge7c-179" source="ZJBauCjtSy6QRAS6ge7c-181" edge="1">
          <mxGeometry width="50" height="50" relative="1" as="geometry">
            <mxPoint x="30" y="710" as="sourcePoint" />
            <mxPoint x="564.0525155242233" y="550.0666666666666" as="targetPoint" />
            <Array as="points">
              <mxPoint x="80" y="550" />
            </Array>
          </mxGeometry>
        </mxCell>
        <mxCell id="ZJBauCjtSy6QRAS6ge7c-222" value="&lt;font style=&quot;font-size: 21px;&quot;&gt;Result&lt;br&gt;&lt;/font&gt;" style="text;html=1;strokeColor=none;fillColor=none;align=center;verticalAlign=middle;whiteSpace=wrap;rounded=0;" parent="ZJBauCjtSy6QRAS6ge7c-179" vertex="1">
          <mxGeometry x="267" y="508" width="80" height="37" as="geometry" />
        </mxCell>
        <mxCell id="ZJBauCjtSy6QRAS6ge7c-223" style="edgeStyle=orthogonalEdgeStyle;rounded=0;orthogonalLoop=1;jettySize=auto;html=1;exitX=0;exitY=0;exitDx=0;exitDy=0;curved=1;strokeWidth=4;fillColor=#e1d5e7;strokeColor=#9673a6;" parent="ZJBauCjtSy6QRAS6ge7c-179" target="ZJBauCjtSy6QRAS6ge7c-181" edge="1">
          <mxGeometry relative="1" as="geometry">
            <mxPoint x="556.5238902272911" y="209.8181426674846" as="sourcePoint" />
            <mxPoint x="65" y="689" as="targetPoint" />
            <Array as="points">
              <mxPoint x="50" y="210" />
            </Array>
          </mxGeometry>
        </mxCell>
        <mxCell id="ZJBauCjtSy6QRAS6ge7c-224" value="&lt;font style=&quot;font-size: 16px;&quot;&gt;&lt;b&gt;5&lt;br&gt;&lt;/b&gt;&lt;/font&gt;" style="ellipse;whiteSpace=wrap;html=1;aspect=fixed;strokeWidth=2;fontFamily=Tahoma;spacingBottom=4;spacingRight=2;strokeColor=#9673a6;fillColor=#e1d5e7;" parent="ZJBauCjtSy6QRAS6ge7c-179" vertex="1">
          <mxGeometry x="220" y="503" width="47" height="47" as="geometry" />
        </mxCell>
        <mxCell id="ZJBauCjtSy6QRAS6ge7c-225" value="&lt;font style=&quot;font-size: 21px;&quot;&gt;DataRequest&lt;/font&gt;" style="text;html=1;strokeColor=none;fillColor=none;align=center;verticalAlign=middle;whiteSpace=wrap;rounded=0;" parent="ZJBauCjtSy6QRAS6ge7c-179" vertex="1">
          <mxGeometry x="270" y="315" width="140" height="37" as="geometry" />
        </mxCell>
        <mxCell id="ZJBauCjtSy6QRAS6ge7c-226" value="&lt;font style=&quot;font-size: 16px;&quot;&gt;&lt;b&gt;4&lt;/b&gt;&lt;/font&gt;" style="ellipse;whiteSpace=wrap;html=1;aspect=fixed;strokeWidth=2;fontFamily=Tahoma;spacingBottom=4;spacingRight=2;strokeColor=#6c8ebf;fillColor=#dae8fc;" parent="ZJBauCjtSy6QRAS6ge7c-179" vertex="1">
          <mxGeometry x="220" y="310" width="47" height="47" as="geometry" />
        </mxCell>
        <mxCell id="ZJBauCjtSy6QRAS6ge7c-227" style="edgeStyle=orthogonalEdgeStyle;rounded=0;orthogonalLoop=1;jettySize=auto;html=1;exitX=0.5;exitY=1;exitDx=0;exitDy=0;" parent="ZJBauCjtSy6QRAS6ge7c-179" source="ZJBauCjtSy6QRAS6ge7c-225" target="ZJBauCjtSy6QRAS6ge7c-225" edge="1">
          <mxGeometry relative="1" as="geometry" />
        </mxCell>
        <mxCell id="ZJBauCjtSy6QRAS6ge7c-228" value="&lt;font style=&quot;font-size: 21px;&quot;&gt;Result&lt;br&gt;&lt;/font&gt;" style="text;html=1;strokeColor=none;fillColor=none;align=center;verticalAlign=middle;whiteSpace=wrap;rounded=0;" parent="ZJBauCjtSy6QRAS6ge7c-179" vertex="1">
          <mxGeometry x="257" y="195" width="80" height="37" as="geometry" />
        </mxCell>
        <mxCell id="ZJBauCjtSy6QRAS6ge7c-229" value="&lt;font style=&quot;font-size: 16px;&quot;&gt;&lt;b&gt;5&lt;br&gt;&lt;/b&gt;&lt;/font&gt;" style="ellipse;whiteSpace=wrap;html=1;aspect=fixed;strokeWidth=2;fontFamily=Tahoma;spacingBottom=4;spacingRight=2;strokeColor=#9673a6;fillColor=#e1d5e7;" parent="ZJBauCjtSy6QRAS6ge7c-179" vertex="1">
          <mxGeometry x="210" y="190" width="47" height="47" as="geometry" />
        </mxCell>
        <mxCell id="g_2dzEI5n_QhCMGsD6OV-561" value="with-json" parent="0" visible="0" />
        <mxCell id="g_2dzEI5n_QhCMGsD6OV-562" value="&lt;font style=&quot;font-size: 18px;&quot;&gt;Orchestrator&lt;/font&gt;" style="ellipse;whiteSpace=wrap;html=1;fontSize=18;" parent="g_2dzEI5n_QhCMGsD6OV-561" vertex="1">
          <mxGeometry x="910" y="630" width="120" height="80" as="geometry" />
        </mxCell>
        <mxCell id="g_2dzEI5n_QhCMGsD6OV-563" value="&lt;font style=&quot;font-size: 16px;&quot;&gt;RequestApproval:&lt;br&gt;&lt;div style=&quot;background-color: rgb(255, 255, 254); line-height: 18px;&quot;&gt;&lt;div style=&quot;line-height: 18px;&quot;&gt;&lt;br&gt;&lt;div style=&quot;line-height: 18px;&quot;&gt;&lt;div&gt;{&lt;/div&gt;&lt;div&gt;    &quot;type&quot;: &lt;span style=&quot;color: #0451a5;&quot;&gt;&quot;sqlDataRequest&quot;&lt;/span&gt;,&lt;/div&gt;&lt;div&gt;    &lt;span style=&quot;color: #a31515;&quot;&gt;&quot;user&quot;&lt;/span&gt;: {&lt;/div&gt;&lt;div&gt;        &lt;span style=&quot;color: #a31515;&quot;&gt;&quot;ID&quot;&lt;/span&gt;: &lt;span style=&quot;color: #0451a5;&quot;&gt;&quot;&amp;lt;GUID&amp;gt;&quot;&lt;/span&gt;,&lt;/div&gt;&lt;div&gt;        &lt;span style=&quot;color: #a31515;&quot;&gt;&quot;userName&quot;&lt;/span&gt;: &lt;span style=&quot;color: #0451a5;&quot;&gt;&quot;jstutterheim@uva.nl&quot;&lt;/span&gt;&lt;/div&gt;&lt;div&gt;        &lt;span style=&quot;color: #5f8fbf;&quot;&gt;// Actual loginToken features....&lt;/span&gt;&lt;/div&gt;&lt;div&gt;    },&lt;/div&gt;&lt;div&gt;    &lt;span style=&quot;color: #a31515;&quot;&gt;&quot;providers&quot;&lt;/span&gt;: [&lt;span style=&quot;color: #0451a5;&quot;&gt;&quot;VU&quot;&lt;/span&gt;,&lt;span style=&quot;color: #0451a5;&quot;&gt;&quot;UVA&quot;&lt;/span&gt;,&lt;span style=&quot;color: #0451a5;&quot;&gt;&quot;RUG&quot;&lt;/span&gt;]&lt;/div&gt;&lt;div&gt;}&lt;/div&gt;&lt;/div&gt;&lt;/div&gt;&lt;/div&gt;&lt;/font&gt;" style="text;html=1;strokeColor=none;fillColor=none;align=left;verticalAlign=middle;whiteSpace=wrap;rounded=0;fontSize=18;" parent="g_2dzEI5n_QhCMGsD6OV-561" vertex="1">
          <mxGeometry x="40" y="960" width="290" height="202" as="geometry" />
        </mxCell>
        <mxCell id="g_2dzEI5n_QhCMGsD6OV-565" value="&lt;font style=&quot;font-size: 20px;&quot;&gt;User&lt;/font&gt;" style="sketch=0;outlineConnect=0;fontColor=#232F3E;gradientColor=none;fillColor=#232F3D;strokeColor=none;dashed=0;verticalLabelPosition=bottom;verticalAlign=top;align=center;html=1;fontSize=12;fontStyle=0;aspect=fixed;pointerEvents=1;shape=mxgraph.aws4.user;" parent="g_2dzEI5n_QhCMGsD6OV-561" vertex="1">
          <mxGeometry x="41" y="630" width="78" height="78" as="geometry" />
        </mxCell>
        <mxCell id="g_2dzEI5n_QhCMGsD6OV-566" value="&lt;ul&gt;&lt;li&gt;&lt;span style=&quot;background-color: initial;&quot;&gt;AccessToken&lt;/span&gt;&lt;/li&gt;&lt;li&gt;AuthorizedProviders&lt;/li&gt;&lt;li&gt;Result channel?&lt;/li&gt;&lt;/ul&gt;" style="text;html=1;strokeColor=none;fillColor=none;align=center;verticalAlign=middle;whiteSpace=wrap;rounded=0;fontSize=18;" parent="g_2dzEI5n_QhCMGsD6OV-561" vertex="1">
          <mxGeometry x="320" y="858.5" width="280" height="53" as="geometry" />
        </mxCell>
        <mxCell id="g_2dzEI5n_QhCMGsD6OV-567" value="&lt;span style=&quot;font-size: 21px;&quot;&gt;Composition&lt;br&gt;Request&lt;/span&gt;" style="text;html=1;strokeColor=none;fillColor=none;align=center;verticalAlign=middle;whiteSpace=wrap;rounded=0;" parent="g_2dzEI5n_QhCMGsD6OV-561" vertex="1">
          <mxGeometry x="940" y="560" width="200" height="56" as="geometry" />
        </mxCell>
        <mxCell id="g_2dzEI5n_QhCMGsD6OV-568" style="rounded=0;orthogonalLoop=1;jettySize=auto;html=1;entryX=0.25;entryY=0;entryDx=0;entryDy=0;dashed=1;dashPattern=12 12;" parent="g_2dzEI5n_QhCMGsD6OV-561" source="g_2dzEI5n_QhCMGsD6OV-569" target="g_2dzEI5n_QhCMGsD6OV-563" edge="1">
          <mxGeometry relative="1" as="geometry" />
        </mxCell>
        <mxCell id="g_2dzEI5n_QhCMGsD6OV-569" value="&lt;font style=&quot;font-size: 21px;&quot;&gt;RequestApproval&lt;/font&gt;" style="text;html=1;strokeColor=none;fillColor=none;align=center;verticalAlign=middle;whiteSpace=wrap;rounded=0;" parent="g_2dzEI5n_QhCMGsD6OV-561" vertex="1">
          <mxGeometry x="150" y="743" width="180" height="30" as="geometry" />
        </mxCell>
        <mxCell id="g_2dzEI5n_QhCMGsD6OV-570" value="" style="edgeStyle=orthogonalEdgeStyle;rounded=0;orthogonalLoop=1;jettySize=auto;html=1;entryX=0;entryY=1;entryDx=0;entryDy=0;fontSize=18;curved=1;" parent="g_2dzEI5n_QhCMGsD6OV-561" source="g_2dzEI5n_QhCMGsD6OV-565" target="g_2dzEI5n_QhCMGsD6OV-573" edge="1">
          <mxGeometry relative="1" as="geometry">
            <mxPoint x="69" y="708" as="sourcePoint" />
            <mxPoint x="888" y="741" as="targetPoint" />
            <Array as="points">
              <mxPoint x="69" y="733" />
              <mxPoint x="538" y="733" />
            </Array>
          </mxGeometry>
        </mxCell>
        <mxCell id="g_2dzEI5n_QhCMGsD6OV-571" style="edgeStyle=orthogonalEdgeStyle;rounded=0;orthogonalLoop=1;jettySize=auto;html=1;entryX=0.983;entryY=0.363;entryDx=0;entryDy=0;entryPerimeter=0;" parent="g_2dzEI5n_QhCMGsD6OV-561" source="g_2dzEI5n_QhCMGsD6OV-573" edge="1">
          <mxGeometry relative="1" as="geometry">
            <mxPoint x="113.47000000000003" y="665.7894999999999" as="targetPoint" />
            <Array as="points">
              <mxPoint x="420" y="666" />
              <mxPoint x="420" y="666" />
            </Array>
          </mxGeometry>
        </mxCell>
        <mxCell id="g_2dzEI5n_QhCMGsD6OV-572" style="edgeStyle=orthogonalEdgeStyle;rounded=0;orthogonalLoop=1;jettySize=auto;html=1;" parent="g_2dzEI5n_QhCMGsD6OV-561" source="g_2dzEI5n_QhCMGsD6OV-573" target="g_2dzEI5n_QhCMGsD6OV-562" edge="1">
          <mxGeometry relative="1" as="geometry" />
        </mxCell>
        <mxCell id="g_2dzEI5n_QhCMGsD6OV-573" value="&lt;font style=&quot;font-size: 18px;&quot;&gt;Policy enforcer&lt;/font&gt;" style="ellipse;whiteSpace=wrap;html=1;fontSize=18;" parent="g_2dzEI5n_QhCMGsD6OV-561" vertex="1">
          <mxGeometry x="520" y="630" width="120" height="80" as="geometry" />
        </mxCell>
        <mxCell id="g_2dzEI5n_QhCMGsD6OV-574" style="rounded=0;orthogonalLoop=1;jettySize=auto;html=1;entryX=0.25;entryY=0;entryDx=0;entryDy=0;dashed=1;dashPattern=8 8;" parent="g_2dzEI5n_QhCMGsD6OV-561" source="g_2dzEI5n_QhCMGsD6OV-575" target="g_2dzEI5n_QhCMGsD6OV-576" edge="1">
          <mxGeometry relative="1" as="geometry" />
        </mxCell>
        <mxCell id="g_2dzEI5n_QhCMGsD6OV-575" value="&lt;font style=&quot;font-size: 20px;&quot;&gt;OrchestratorRequest&lt;br&gt;&lt;/font&gt;" style="text;html=1;strokeColor=none;fillColor=none;align=center;verticalAlign=middle;whiteSpace=wrap;rounded=0;" parent="g_2dzEI5n_QhCMGsD6OV-561" vertex="1">
          <mxGeometry x="670" y="670" width="210" height="40" as="geometry" />
        </mxCell>
        <mxCell id="g_2dzEI5n_QhCMGsD6OV-576" value="&lt;div style=&quot;border-color: var(--border-color); text-align: left; background-color: rgb(255, 255, 254); line-height: 18px; font-size: 16px;&quot;&gt;&lt;div style=&quot;border-color: var(--border-color);&quot;&gt;&lt;font style=&quot;border-color: var(--border-color); font-size: 16px;&quot;&gt;OrchestratorRequest&lt;/font&gt;&lt;/div&gt;&lt;div style=&quot;border-color: var(--border-color);&quot;&gt;&lt;div style=&quot;line-height: 18px;&quot;&gt;&lt;div&gt;{&lt;/div&gt;&lt;div&gt;    &quot;archetypeId&quot;: &lt;span style=&quot;color: #0451a5;&quot;&gt;&quot;ArcheType1&quot;&lt;/span&gt;,&lt;/div&gt;&lt;div&gt;    &lt;span style=&quot;color: #a31515;&quot;&gt;&quot;user&quot;&lt;/span&gt;: {&lt;/div&gt;&lt;div&gt;        &lt;span style=&quot;color: #a31515;&quot;&gt;&quot;ID&quot;&lt;/span&gt;: &lt;span style=&quot;color: #0451a5;&quot;&gt;&quot;&amp;lt;GUID&amp;gt;&quot;&lt;/span&gt;,&lt;/div&gt;&lt;div&gt;        &lt;span style=&quot;color: #a31515;&quot;&gt;&quot;userName&quot;&lt;/span&gt;: &lt;span style=&quot;color: #0451a5;&quot;&gt;&quot;jstutterheim@uva.nl&quot;&lt;/span&gt;&lt;/div&gt;&lt;div&gt;    },&lt;/div&gt;&lt;div&gt;    &lt;span style=&quot;color: #a31515;&quot;&gt;&quot;providers&quot;&lt;/span&gt;: [&lt;span style=&quot;color: #0451a5;&quot;&gt;&quot;VU&quot;&lt;/span&gt;,&lt;span style=&quot;color: #0451a5;&quot;&gt;&quot;UVA&quot;&lt;/span&gt;],&lt;/div&gt;&lt;div&gt;    &lt;span style=&quot;color: #a31515;&quot;&gt;&quot;request_type&quot;&lt;/span&gt;: &lt;span style=&quot;color: #0451a5;&quot;&gt;&quot;sqlDataRequest&quot;&lt;/span&gt;&lt;/div&gt;&lt;div&gt;}&lt;/div&gt;&lt;/div&gt;&lt;/div&gt;&lt;/div&gt;" style="text;html=1;strokeColor=none;fillColor=none;align=center;verticalAlign=middle;whiteSpace=wrap;rounded=0;" parent="g_2dzEI5n_QhCMGsD6OV-561" vertex="1">
          <mxGeometry x="680" y="966" width="320" height="190" as="geometry" />
        </mxCell>
        <mxCell id="g_2dzEI5n_QhCMGsD6OV-577" value="&lt;font style=&quot;font-size: 16px;&quot;&gt;&lt;ul style=&quot;border-color: var(--border-color);&quot;&gt;&lt;li&gt;&lt;font style=&quot;font-size: 16px;&quot;&gt;ArcheTypeId&lt;/font&gt;&lt;/li&gt;&lt;li style=&quot;border-color: var(--border-color);&quot;&gt;AuthorizedProviders&lt;/li&gt;&lt;li style=&quot;border-color: var(--border-color);&quot;&gt;User Credentials&lt;/li&gt;&lt;/ul&gt;&lt;/font&gt;" style="text;html=1;strokeColor=none;fillColor=none;align=center;verticalAlign=middle;whiteSpace=wrap;rounded=0;" parent="g_2dzEI5n_QhCMGsD6OV-561" vertex="1">
          <mxGeometry x="700" y="876" width="220" height="90" as="geometry" />
        </mxCell>
        <mxCell id="g_2dzEI5n_QhCMGsD6OV-578" value="&lt;font style=&quot;font-size: 16px;&quot;&gt;&lt;ul style=&quot;border-color: var(--border-color);&quot;&gt;&lt;li&gt;User credentials&lt;/li&gt;&lt;li&gt;Data providers&lt;/li&gt;&lt;/ul&gt;&lt;/font&gt;" style="text;html=1;strokeColor=none;fillColor=none;align=center;verticalAlign=middle;whiteSpace=wrap;rounded=0;" parent="g_2dzEI5n_QhCMGsD6OV-561" vertex="1">
          <mxGeometry x="80" y="870" width="220" height="90" as="geometry" />
        </mxCell>
        <mxCell id="g_2dzEI5n_QhCMGsD6OV-579" style="rounded=0;orthogonalLoop=1;jettySize=auto;html=1;entryX=0.25;entryY=0;entryDx=0;entryDy=0;strokeColor=default;dashed=1;dashPattern=12 12;" parent="g_2dzEI5n_QhCMGsD6OV-561" source="g_2dzEI5n_QhCMGsD6OV-580" target="g_2dzEI5n_QhCMGsD6OV-581" edge="1">
          <mxGeometry relative="1" as="geometry" />
        </mxCell>
        <mxCell id="g_2dzEI5n_QhCMGsD6OV-580" value="&lt;font style=&quot;font-size: 21px;&quot;&gt;AcceptedDataRequest&lt;/font&gt;" style="text;html=1;strokeColor=none;fillColor=none;align=center;verticalAlign=middle;whiteSpace=wrap;rounded=0;" parent="g_2dzEI5n_QhCMGsD6OV-561" vertex="1">
          <mxGeometry x="190" y="630" width="240" height="47" as="geometry" />
        </mxCell>
        <mxCell id="g_2dzEI5n_QhCMGsD6OV-581" value="&lt;font style=&quot;font-size: 16px;&quot;&gt;AcceptedDataRequest:&lt;br&gt;&lt;div style=&quot;background-color: rgb(255, 255, 254); line-height: 18px;&quot;&gt;&lt;div style=&quot;line-height: 18px;&quot;&gt;&lt;div style=&quot;line-height: 18px;&quot;&gt;&lt;div&gt;{&lt;/div&gt;&lt;div&gt;    &quot;type&quot;: &lt;span style=&quot;color: #0451a5;&quot;&gt;&quot;sqlDataRequest&quot;&lt;/span&gt;,&lt;/div&gt;&lt;div&gt;    &lt;span style=&quot;color: #a31515;&quot;&gt;&quot;user&quot;&lt;/span&gt;: {&lt;/div&gt;&lt;div&gt;        &lt;span style=&quot;color: #a31515;&quot;&gt;&quot;ID&quot;&lt;/span&gt;: &lt;span style=&quot;color: #0451a5;&quot;&gt;&quot;&amp;lt;GUID&amp;gt;&quot;&lt;/span&gt;,&lt;/div&gt;&lt;div&gt;        &lt;span style=&quot;color: #a31515;&quot;&gt;&quot;userName&quot;&lt;/span&gt;: &lt;span style=&quot;color: #0451a5;&quot;&gt;&quot;jstutterheim@uva.nl&quot;&lt;/span&gt;&lt;/div&gt;&lt;div&gt;    },&lt;/div&gt;&lt;div&gt;    &lt;span style=&quot;color: #a31515;&quot;&gt;&quot;auth&quot;&lt;/span&gt; : {&lt;/div&gt;&lt;div&gt;        &lt;span style=&quot;color: #a31515;&quot;&gt;&quot;accessToken&quot;&lt;/span&gt;: &lt;span style=&quot;color: #0451a5;&quot;&gt;&quot;&amp;lt;tokenString&amp;gt;&quot;&lt;/span&gt;,&lt;/div&gt;&lt;div&gt;        &lt;span style=&quot;color: #a31515;&quot;&gt;&quot;refreshToken&quot;&lt;/span&gt;: &lt;span style=&quot;color: #0451a5;&quot;&gt;&quot;&amp;lt;tokenString&amp;gt;&quot;&lt;/span&gt;&lt;/div&gt;&lt;div&gt;    },&lt;/div&gt;&lt;div&gt;    &lt;span style=&quot;color: #5f8fbf;&quot;&gt;// Actual token features.... (signedby, audience etc)&lt;/span&gt;&lt;/div&gt;&lt;div&gt;    &lt;span style=&quot;color: #a31515;&quot;&gt;&quot;authorizedProviders&quot;&lt;/span&gt; : {&lt;/div&gt;&lt;div&gt;        &lt;span style=&quot;color: #a31515;&quot;&gt;&quot;VU&quot;&lt;/span&gt; : &lt;span style=&quot;color: #0451a5;&quot;&gt;&quot;&amp;lt;endpoint/queueName&amp;gt;&quot;&lt;/span&gt;, &lt;/div&gt;&lt;div&gt;        &lt;span style=&quot;color: #a31515;&quot;&gt;&quot;UVA&quot;&lt;/span&gt; : &lt;span style=&quot;color: #0451a5;&quot;&gt;&quot;&amp;lt;endpoint/queueName&amp;gt;&quot;&lt;/span&gt;&lt;/div&gt;&lt;div&gt;    },&lt;/div&gt;&lt;div&gt;    &lt;span style=&quot;color: #a31515;&quot;&gt;&quot;resultChannel&quot;&lt;/span&gt; : &lt;span style=&quot;color: #0451a5;&quot;&gt;&quot;&amp;lt;endpoint for results?&amp;gt;&quot;&lt;/span&gt;&lt;/div&gt;&lt;div&gt;}&lt;/div&gt;&lt;/div&gt;&lt;/div&gt;&lt;/div&gt;&lt;/font&gt;" style="text;html=1;strokeColor=none;fillColor=none;align=left;verticalAlign=middle;whiteSpace=wrap;rounded=0;fontSize=18;" parent="g_2dzEI5n_QhCMGsD6OV-561" vertex="1">
          <mxGeometry x="310" y="940" width="420" height="360" as="geometry" />
        </mxCell>
        <mxCell id="g_2dzEI5n_QhCMGsD6OV-582" value="" style="group" parent="g_2dzEI5n_QhCMGsD6OV-561" vertex="1" connectable="0">
          <mxGeometry x="405" y="100" width="360" height="270" as="geometry" />
        </mxCell>
        <mxCell id="g_2dzEI5n_QhCMGsD6OV-583" value="" style="rounded=1;whiteSpace=wrap;html=1;fontSize=18;" parent="g_2dzEI5n_QhCMGsD6OV-582" vertex="1">
          <mxGeometry width="360" height="270" as="geometry" />
        </mxCell>
        <mxCell id="g_2dzEI5n_QhCMGsD6OV-584" value="&lt;b style=&quot;font-size: 18px;&quot;&gt;Data steward - UvA&lt;br&gt;&lt;/b&gt;" style="text;html=1;strokeColor=none;fillColor=none;align=center;verticalAlign=middle;whiteSpace=wrap;rounded=0;fontSize=18;" parent="g_2dzEI5n_QhCMGsD6OV-582" vertex="1">
          <mxGeometry x="8.372093023255815" width="179.2213953488372" height="34.83870967741935" as="geometry" />
        </mxCell>
        <mxCell id="g_2dzEI5n_QhCMGsD6OV-585" value="&lt;font style=&quot;font-size: 20px;&quot;&gt;Data pod&lt;/font&gt;" style="sketch=0;outlineConnect=0;fontColor=#232F3E;gradientColor=none;fillColor=#000000;strokeColor=none;dashed=0;verticalLabelPosition=bottom;verticalAlign=top;align=center;html=1;fontSize=12;fontStyle=0;aspect=fixed;pointerEvents=1;shape=mxgraph.aws4.vault;" parent="g_2dzEI5n_QhCMGsD6OV-582" vertex="1">
          <mxGeometry x="151.62837209302324" y="59.99677419354838" width="56.7293023255814" height="71.37209302325581" as="geometry" />
        </mxCell>
        <mxCell id="g_2dzEI5n_QhCMGsD6OV-586" value="&lt;font style=&quot;font-size: 18px;&quot;&gt;Distributed agent&lt;br&gt;&lt;/font&gt;" style="ellipse;whiteSpace=wrap;html=1;fontSize=18;" parent="g_2dzEI5n_QhCMGsD6OV-582" vertex="1">
          <mxGeometry x="133.09488372093023" y="190.0041935483871" width="93.80093023255814" height="65.5316129032258" as="geometry" />
        </mxCell>
        <mxCell id="g_2dzEI5n_QhCMGsD6OV-587" value="" style="group" parent="g_2dzEI5n_QhCMGsD6OV-561" vertex="1" connectable="0">
          <mxGeometry x="790" y="100" width="366.9" height="270" as="geometry" />
        </mxCell>
        <mxCell id="g_2dzEI5n_QhCMGsD6OV-588" value="" style="rounded=1;whiteSpace=wrap;html=1;fontSize=18;" parent="g_2dzEI5n_QhCMGsD6OV-587" vertex="1">
          <mxGeometry width="360" height="270" as="geometry" />
        </mxCell>
        <mxCell id="g_2dzEI5n_QhCMGsD6OV-589" value="&lt;b style=&quot;font-size: 18px;&quot;&gt;Data steward - VU&lt;br&gt;&lt;/b&gt;" style="text;html=1;strokeColor=none;fillColor=none;align=center;verticalAlign=middle;whiteSpace=wrap;rounded=0;fontSize=18;" parent="g_2dzEI5n_QhCMGsD6OV-587" vertex="1">
          <mxGeometry x="8.372093023255815" width="179.2213953488372" height="34.83870967741935" as="geometry" />
        </mxCell>
        <mxCell id="g_2dzEI5n_QhCMGsD6OV-590" value="&lt;font style=&quot;font-size: 20px;&quot;&gt;Data pod&lt;/font&gt;" style="sketch=0;outlineConnect=0;fontColor=#232F3E;gradientColor=none;fillColor=#000000;strokeColor=none;dashed=0;verticalLabelPosition=bottom;verticalAlign=top;align=center;html=1;fontSize=12;fontStyle=0;aspect=fixed;pointerEvents=1;shape=mxgraph.aws4.vault;" parent="g_2dzEI5n_QhCMGsD6OV-587" vertex="1">
          <mxGeometry x="151.62837209302324" y="59.99677419354838" width="56.7293023255814" height="71.37209302325581" as="geometry" />
        </mxCell>
        <mxCell id="g_2dzEI5n_QhCMGsD6OV-591" value="&lt;font style=&quot;font-size: 18px;&quot;&gt;Distributed agent&lt;br&gt;&lt;/font&gt;" style="ellipse;whiteSpace=wrap;html=1;fontSize=18;" parent="g_2dzEI5n_QhCMGsD6OV-587" vertex="1">
          <mxGeometry x="133.09488372093023" y="190.0041935483871" width="93.80093023255814" height="65.5316129032258" as="geometry" />
        </mxCell>
        <mxCell id="g_2dzEI5n_QhCMGsD6OV-593" value="" style="group" parent="g_2dzEI5n_QhCMGsD6OV-561" vertex="1" connectable="0">
          <mxGeometry x="30" y="100" width="360" height="270" as="geometry" />
        </mxCell>
        <mxCell id="g_2dzEI5n_QhCMGsD6OV-594" value="" style="rounded=1;whiteSpace=wrap;html=1;fontSize=18;" parent="g_2dzEI5n_QhCMGsD6OV-593" vertex="1">
          <mxGeometry x="-17" y="-15.460000000000008" width="360" height="270" as="geometry" />
        </mxCell>
        <mxCell id="g_2dzEI5n_QhCMGsD6OV-595" value="" style="rounded=1;whiteSpace=wrap;html=1;fontSize=18;" parent="g_2dzEI5n_QhCMGsD6OV-593" vertex="1">
          <mxGeometry x="-11" y="-11.460000000000008" width="360" height="270" as="geometry" />
        </mxCell>
        <mxCell id="g_2dzEI5n_QhCMGsD6OV-596" value="" style="rounded=1;whiteSpace=wrap;html=1;fontSize=18;" parent="g_2dzEI5n_QhCMGsD6OV-593" vertex="1">
          <mxGeometry x="-5" y="-6.460000000000008" width="360" height="270" as="geometry" />
        </mxCell>
        <mxCell id="g_2dzEI5n_QhCMGsD6OV-597" value="" style="rounded=1;whiteSpace=wrap;html=1;fontSize=18;" parent="g_2dzEI5n_QhCMGsD6OV-593" vertex="1">
          <mxGeometry width="360" height="270" as="geometry" />
        </mxCell>
        <mxCell id="g_2dzEI5n_QhCMGsD6OV-598" value="&lt;b style=&quot;font-size: 18px;&quot;&gt;Other stewards&lt;br&gt;&lt;/b&gt;" style="text;html=1;strokeColor=none;fillColor=none;align=center;verticalAlign=middle;whiteSpace=wrap;rounded=0;fontSize=18;" parent="g_2dzEI5n_QhCMGsD6OV-593" vertex="1">
          <mxGeometry x="8.372093023255815" width="179.2213953488372" height="34.83870967741935" as="geometry" />
        </mxCell>
        <mxCell id="g_2dzEI5n_QhCMGsD6OV-599" value="&lt;font style=&quot;font-size: 20px;&quot;&gt;Data pod&lt;/font&gt;" style="sketch=0;outlineConnect=0;fontColor=#232F3E;gradientColor=none;fillColor=#000000;strokeColor=none;dashed=0;verticalLabelPosition=bottom;verticalAlign=top;align=center;html=1;fontSize=12;fontStyle=0;aspect=fixed;pointerEvents=1;shape=mxgraph.aws4.vault;" parent="g_2dzEI5n_QhCMGsD6OV-593" vertex="1">
          <mxGeometry x="151.62837209302324" y="59.99677419354838" width="56.7293023255814" height="71.37209302325581" as="geometry" />
        </mxCell>
        <mxCell id="g_2dzEI5n_QhCMGsD6OV-600" value="&lt;font style=&quot;font-size: 18px;&quot;&gt;Distributed agent&lt;br&gt;&lt;/font&gt;" style="ellipse;whiteSpace=wrap;html=1;fontSize=18;" parent="g_2dzEI5n_QhCMGsD6OV-593" vertex="1">
          <mxGeometry x="133.09488372093023" y="190.0041935483871" width="93.80093023255814" height="65.5316129032258" as="geometry" />
        </mxCell>
        <mxCell id="g_2dzEI5n_QhCMGsD6OV-601" style="rounded=0;orthogonalLoop=1;jettySize=auto;html=1;entryX=0.5;entryY=1;entryDx=0;entryDy=0;" parent="g_2dzEI5n_QhCMGsD6OV-561" source="g_2dzEI5n_QhCMGsD6OV-562" target="g_2dzEI5n_QhCMGsD6OV-591" edge="1">
          <mxGeometry relative="1" as="geometry" />
        </mxCell>
        <mxCell id="g_2dzEI5n_QhCMGsD6OV-602" style="edgeStyle=orthogonalEdgeStyle;rounded=0;orthogonalLoop=1;jettySize=auto;html=1;jumpStyle=arc;jumpSize=10;" parent="g_2dzEI5n_QhCMGsD6OV-561" source="g_2dzEI5n_QhCMGsD6OV-562" target="g_2dzEI5n_QhCMGsD6OV-586" edge="1">
          <mxGeometry relative="1" as="geometry">
            <Array as="points">
              <mxPoint x="970" y="440" />
              <mxPoint x="585" y="440" />
            </Array>
          </mxGeometry>
        </mxCell>
        <mxCell id="g_2dzEI5n_QhCMGsD6OV-603" value="&lt;div style=&quot;border-color: var(--border-color); text-align: left; background-color: rgb(255, 255, 254); line-height: 18px; font-size: 16px;&quot;&gt;&lt;div style=&quot;border-color: var(--border-color);&quot;&gt;&lt;font style=&quot;border-color: var(--border-color); font-size: 16px;&quot;&gt;CompositionRequest&lt;/font&gt;&lt;/div&gt;&lt;div style=&quot;border-color: var(--border-color);&quot;&gt;&lt;div style=&quot;line-height: 18px;&quot;&gt;&lt;div style=&quot;line-height: 18px;&quot;&gt;&lt;div&gt;{&lt;/div&gt;&lt;div&gt;    &quot;archetypeId&quot;: &lt;span style=&quot;color: rgb(4, 81, 165);&quot;&gt;&quot;ArcheType1&quot;&lt;/span&gt;,&lt;br&gt;&lt;/div&gt;&lt;div&gt;    &lt;span style=&quot;color: #a31515;&quot;&gt;&quot;request_type&quot;&lt;/span&gt;: &lt;span style=&quot;color: #0451a5;&quot;&gt;&quot;sqlDataRequest&quot;&lt;/span&gt;,&lt;/div&gt;&lt;div&gt;    &lt;span style=&quot;color: #a31515;&quot;&gt;&quot;io_config&quot;&lt;/span&gt;: {&lt;/div&gt;&lt;div&gt;        &lt;span style=&quot;color: #a31515;&quot;&gt;&quot;service_io&quot;&lt;/span&gt;: {&lt;/div&gt;&lt;div&gt;            &lt;span style=&quot;color: #a31515;&quot;&gt;&quot;query_service&quot;&lt;/span&gt;: &lt;span style=&quot;color: #0451a5;&quot;&gt;&quot;start&quot;&lt;/span&gt;,&lt;/div&gt;&lt;div&gt;            &lt;span style=&quot;color: #a31515;&quot;&gt;&quot;anonymize_service&quot;&lt;/span&gt;: &lt;span style=&quot;color: #0451a5;&quot;&gt;&quot;query_service&quot;&lt;/span&gt;,&lt;/div&gt;&lt;div&gt;            &lt;span style=&quot;color: #a31515;&quot;&gt;&quot;algorithm&quot;&lt;/span&gt; : &lt;span style=&quot;color: #0451a5;&quot;&gt;&quot;query_service&quot;&lt;/span&gt;&lt;/div&gt;&lt;div&gt;        },&lt;/div&gt;&lt;div&gt;        &lt;span style=&quot;color: #a31515;&quot;&gt;&quot;finish&quot;&lt;/span&gt;: &lt;span style=&quot;color: #0451a5;&quot;&gt;&quot;algorithm&quot;&lt;/span&gt;&lt;/div&gt;&lt;div&gt;    }&lt;/div&gt;&lt;div&gt;}&lt;/div&gt;&lt;/div&gt;&lt;/div&gt;&lt;/div&gt;&lt;/div&gt;" style="text;html=1;strokeColor=none;fillColor=none;align=center;verticalAlign=middle;whiteSpace=wrap;rounded=0;" parent="g_2dzEI5n_QhCMGsD6OV-561" vertex="1">
          <mxGeometry x="840" y="1162" width="320" height="270" as="geometry" />
        </mxCell>
        <mxCell id="g_2dzEI5n_QhCMGsD6OV-604" style="rounded=0;orthogonalLoop=1;jettySize=auto;html=1;dashed=1;dashPattern=8 8;exitX=0.693;exitY=0.96;exitDx=0;exitDy=0;exitPerimeter=0;" parent="g_2dzEI5n_QhCMGsD6OV-561" source="g_2dzEI5n_QhCMGsD6OV-567" target="g_2dzEI5n_QhCMGsD6OV-603" edge="1">
          <mxGeometry relative="1" as="geometry">
            <mxPoint x="1090" y="1230" as="targetPoint" />
          </mxGeometry>
        </mxCell>
        <mxCell id="g_2dzEI5n_QhCMGsD6OV-605" value="&lt;font style=&quot;font-size: 16px;&quot;&gt;&lt;ul style=&quot;border-color: var(--border-color);&quot;&gt;&lt;li&gt;ServiceIo&lt;/li&gt;&lt;li&gt;ArcheTypeId&lt;/li&gt;&lt;/ul&gt;&lt;/font&gt;" style="text;html=1;strokeColor=none;fillColor=none;align=center;verticalAlign=middle;whiteSpace=wrap;rounded=0;" parent="g_2dzEI5n_QhCMGsD6OV-561" vertex="1">
          <mxGeometry x="949" y="960" width="220" height="90" as="geometry" />
        </mxCell>
        <mxCell id="g_2dzEI5n_QhCMGsD6OV-606" value="&lt;div style=&quot;background-color: rgb(255, 255, 254); line-height: 18px; font-size: 14px;&quot;&gt;&lt;div&gt;DataRequest:&lt;/div&gt;&lt;div&gt;{&lt;/div&gt;&lt;div&gt;    &quot;type&quot;: &lt;span style=&quot;color: #0451a5;&quot;&gt;&quot;sqlDataRequest&quot;&lt;/span&gt;,&lt;/div&gt;&lt;div&gt;&lt;div style=&quot;border-color: var(--border-color);&quot;&gt;&quot;providers&quot;&amp;nbsp;:&amp;nbsp;&lt;font color=&quot;#0451a5&quot;&gt;&lt;b&gt;[&quot;VU&quot;, &quot;UVA&quot;]&lt;/b&gt;&lt;/font&gt;,&lt;/div&gt;&lt;/div&gt;&lt;div&gt;    &lt;span style=&quot;color: #a31515;&quot;&gt;&quot;query&quot;&lt;/span&gt; : &lt;span style=&quot;color: #0451a5;&quot;&gt;&quot;SELECT p.Unieknr p.Geslacht p.Gebdat s.Aanst_22 as &lt;br&gt;Salary FROM person p JOIN salary s ON p.Unieknr = s.Unieknr&quot;&lt;/span&gt;,&lt;/div&gt;&lt;div&gt;    &lt;span style=&quot;color: #a31515;&quot;&gt;&quot;graph&quot;&lt;/span&gt; : &lt;span style=&quot;color: #0451a5;font-weight: bold;&quot;&gt;true&lt;/span&gt;,&lt;/div&gt;&lt;div&gt;    &lt;span style=&quot;color: #a31515;&quot;&gt;&quot;algorithm&quot;&lt;/span&gt; : &lt;span style=&quot;color: #0451a5;&quot;&gt;&quot;average&quot;&lt;/span&gt;,&lt;/div&gt;&lt;div&gt;    &lt;span style=&quot;color: #5f8fbf;&quot;&gt;// Needs to be thought out more:&lt;/span&gt;&lt;/div&gt;&lt;div&gt;    &lt;span style=&quot;color: #a31515;&quot;&gt;&quot;algorithmColumns&quot;&lt;/span&gt; : {&lt;/div&gt;&lt;div&gt;        &lt;span style=&quot;color: #a31515;&quot;&gt;&quot;Geslacht&quot;&lt;/span&gt; : &lt;span style=&quot;color: #0451a5;&quot;&gt;&quot;Aanst_22, Gebdat&quot;&lt;/span&gt;&lt;/div&gt;&lt;div&gt;    },&lt;/div&gt;&lt;div&gt;    &lt;span style=&quot;color: #a31515;&quot;&gt;&quot;user&quot;&lt;/span&gt;: {&lt;/div&gt;&lt;div&gt;        &lt;span style=&quot;color: #a31515;&quot;&gt;&quot;ID&quot;&lt;/span&gt;: &lt;span style=&quot;color: #0451a5;&quot;&gt;&quot;&amp;lt;GUID&amp;gt;&quot;&lt;/span&gt;,&lt;/div&gt;&lt;div&gt;        &lt;span style=&quot;color: #a31515;&quot;&gt;&quot;userName&quot;&lt;/span&gt;: &lt;span style=&quot;color: #0451a5;&quot;&gt;&quot;jstutterheim@uva.nl&quot;&lt;/span&gt;&lt;/div&gt;&lt;div&gt;    },&lt;/div&gt;&lt;div&gt;    &lt;span style=&quot;color: #a31515;&quot;&gt;&quot;auth&quot;&lt;/span&gt; : {&lt;/div&gt;&lt;div&gt;        &lt;span style=&quot;color: #a31515;&quot;&gt;&quot;accessToken&quot;&lt;/span&gt;: &lt;span style=&quot;color: #0451a5;&quot;&gt;&quot;&amp;lt;tokenString&amp;gt;&quot;&lt;/span&gt;,&lt;/div&gt;&lt;div&gt;        &lt;span style=&quot;color: #a31515;&quot;&gt;&quot;refreshToken&quot;&lt;/span&gt;: &lt;span style=&quot;color: #0451a5;&quot;&gt;&quot;&amp;lt;tokenString&amp;gt;&quot;&lt;/span&gt;&lt;/div&gt;&lt;div&gt;    }&lt;/div&gt;&lt;div&gt;    &lt;span style=&quot;color: #5f8fbf;&quot;&gt;// Actual token features.... (signedby, audience etc)&lt;/span&gt;&lt;/div&gt;&lt;div style=&quot;&quot;&gt;}&lt;/div&gt;&lt;/div&gt;" style="text;html=1;align=left;verticalAlign=middle;resizable=0;points=[];autosize=1;strokeColor=none;fillColor=none;" parent="g_2dzEI5n_QhCMGsD6OV-561" vertex="1">
          <mxGeometry x="-480" y="538" width="430" height="410" as="geometry" />
        </mxCell>
        <mxCell id="g_2dzEI5n_QhCMGsD6OV-607" style="edgeStyle=orthogonalEdgeStyle;rounded=0;orthogonalLoop=1;jettySize=auto;html=1;entryX=1.002;entryY=0.053;entryDx=0;entryDy=0;entryPerimeter=0;dashed=1;dashPattern=8 8;jumpStyle=arc;" parent="g_2dzEI5n_QhCMGsD6OV-561" source="g_2dzEI5n_QhCMGsD6OV-608" target="g_2dzEI5n_QhCMGsD6OV-606" edge="1">
          <mxGeometry relative="1" as="geometry">
            <Array as="points">
              <mxPoint x="80" y="560" />
            </Array>
          </mxGeometry>
        </mxCell>
        <mxCell id="g_2dzEI5n_QhCMGsD6OV-608" value="&lt;font style=&quot;font-size: 21px;&quot;&gt;DataRequest&lt;/font&gt;" style="text;html=1;strokeColor=none;fillColor=none;align=center;verticalAlign=middle;whiteSpace=wrap;rounded=0;" parent="g_2dzEI5n_QhCMGsD6OV-561" vertex="1">
          <mxGeometry x="270" y="540" width="140" height="37" as="geometry" />
        </mxCell>
        <mxCell id="g_2dzEI5n_QhCMGsD6OV-609" value="" style="endArrow=classic;html=1;rounded=0;edgeStyle=orthogonalEdgeStyle;curved=1;" parent="g_2dzEI5n_QhCMGsD6OV-561" edge="1">
          <mxGeometry width="50" height="50" relative="1" as="geometry">
            <mxPoint x="130" y="600" as="sourcePoint" />
            <mxPoint x="550" y="430" as="targetPoint" />
            <Array as="points">
              <mxPoint x="550" y="600" />
            </Array>
          </mxGeometry>
        </mxCell>
        <mxCell id="g_2dzEI5n_QhCMGsD6OV-610" value="" style="endArrow=none;html=1;rounded=0;edgeStyle=orthogonalEdgeStyle;curved=1;startArrow=classic;startFill=1;endFill=0;" parent="g_2dzEI5n_QhCMGsD6OV-561" edge="1">
          <mxGeometry width="50" height="50" relative="1" as="geometry">
            <mxPoint x="80" y="610" as="sourcePoint" />
            <mxPoint x="510" y="380" as="targetPoint" />
            <Array as="points">
              <mxPoint x="80" y="380" />
            </Array>
          </mxGeometry>
        </mxCell>
        <mxCell id="g_2dzEI5n_QhCMGsD6OV-611" style="edgeStyle=orthogonalEdgeStyle;rounded=0;orthogonalLoop=1;jettySize=auto;html=1;entryX=1;entryY=0.75;entryDx=0;entryDy=0;dashed=1;dashPattern=8 8;" parent="g_2dzEI5n_QhCMGsD6OV-561" source="g_2dzEI5n_QhCMGsD6OV-612" target="g_2dzEI5n_QhCMGsD6OV-615" edge="1">
          <mxGeometry relative="1" as="geometry" />
        </mxCell>
        <mxCell id="g_2dzEI5n_QhCMGsD6OV-612" value="&lt;font style=&quot;font-size: 21px;&quot;&gt;Result&lt;br&gt;&lt;/font&gt;" style="text;html=1;strokeColor=none;fillColor=none;align=center;verticalAlign=middle;whiteSpace=wrap;rounded=0;" parent="g_2dzEI5n_QhCMGsD6OV-561" vertex="1">
          <mxGeometry x="30" y="470" width="80" height="37" as="geometry" />
        </mxCell>
        <mxCell id="g_2dzEI5n_QhCMGsD6OV-613" value="" style="endArrow=classic;html=1;rounded=0;edgeStyle=orthogonalEdgeStyle;curved=1;" parent="g_2dzEI5n_QhCMGsD6OV-561" edge="1">
          <mxGeometry width="50" height="50" relative="1" as="geometry">
            <mxPoint x="140" y="610" as="sourcePoint" />
            <mxPoint x="880" y="470" as="targetPoint" />
            <Array as="points">
              <mxPoint x="880" y="610" />
            </Array>
          </mxGeometry>
        </mxCell>
        <mxCell id="g_2dzEI5n_QhCMGsD6OV-614" value="" style="endArrow=none;html=1;rounded=0;edgeStyle=orthogonalEdgeStyle;curved=1;startArrow=classic;startFill=1;endFill=0;" parent="g_2dzEI5n_QhCMGsD6OV-561" edge="1">
          <mxGeometry width="50" height="50" relative="1" as="geometry">
            <mxPoint x="90" y="620" as="sourcePoint" />
            <mxPoint x="840" y="390" as="targetPoint" />
            <Array as="points">
              <mxPoint x="90" y="390" />
            </Array>
          </mxGeometry>
        </mxCell>
        <mxCell id="g_2dzEI5n_QhCMGsD6OV-615" value="&lt;font style=&quot;font-size: 16px;&quot;&gt;Result&lt;br&gt;&lt;/font&gt;&lt;div style=&quot;background-color: rgb(255, 255, 254); line-height: 18px; font-size: 16px;&quot;&gt;&lt;div style=&quot;&quot;&gt;&lt;font style=&quot;font-size: 16px;&quot;&gt;{&lt;/font&gt;&lt;/div&gt;&lt;div style=&quot;&quot;&gt;    &lt;font style=&quot;font-size: 16px;&quot;&gt;&quot;type&quot;: &lt;span style=&quot;color: #0451a5;&quot;&gt;&quot;result&quot;&lt;/span&gt;,&lt;/font&gt;&lt;/div&gt;&lt;div style=&quot;&quot;&gt;&lt;font style=&quot;font-size: 16px;&quot;&gt;    &lt;span style=&quot;color: #a31515;&quot;&gt;&quot;graph&quot;&lt;/span&gt; : &lt;span style=&quot;color: #0451a5;&quot;&gt;&quot;&amp;lt;png data&amp;gt;&quot;&lt;/span&gt;,&lt;/font&gt;&lt;/div&gt;&lt;div style=&quot;&quot;&gt;&lt;font style=&quot;font-size: 16px;&quot;&gt;    &lt;span style=&quot;color: #a31515;&quot;&gt;&quot;results&quot;&lt;/span&gt; : &lt;span style=&quot;color: #0451a5;&quot;&gt;&quot;&amp;lt;wage gap analysis result in json&amp;gt;&quot;&lt;/span&gt;&lt;/font&gt;&lt;/div&gt;&lt;div style=&quot;&quot;&gt;&lt;font style=&quot;font-size: 16px;&quot;&gt;}&lt;/font&gt;&lt;/div&gt;&lt;/div&gt;" style="text;html=1;strokeColor=none;fillColor=none;align=left;verticalAlign=middle;whiteSpace=wrap;rounded=0;" parent="g_2dzEI5n_QhCMGsD6OV-561" vertex="1">
          <mxGeometry x="-320" y="382" width="260" height="141" as="geometry" />
        </mxCell>
        <mxCell id="g_2dzEI5n_QhCMGsD6OV-616" style="edgeStyle=orthogonalEdgeStyle;rounded=0;orthogonalLoop=1;jettySize=auto;html=1;dashed=1;dashPattern=8 8;entryX=1;entryY=0.5;entryDx=0;entryDy=0;" parent="g_2dzEI5n_QhCMGsD6OV-561" source="g_2dzEI5n_QhCMGsD6OV-599" target="g_2dzEI5n_QhCMGsD6OV-654" edge="1">
          <mxGeometry relative="1" as="geometry">
            <mxPoint x="-460" y="195.68282070517625" as="targetPoint" />
          </mxGeometry>
        </mxCell>
        <mxCell id="g_2dzEI5n_QhCMGsD6OV-653" value="" style="group" parent="g_2dzEI5n_QhCMGsD6OV-561" vertex="1" connectable="0">
          <mxGeometry x="-420" y="92.64" width="360" height="202.09000000000003" as="geometry" />
        </mxCell>
        <mxCell id="g_2dzEI5n_QhCMGsD6OV-654" value="" style="rounded=0;whiteSpace=wrap;html=1;" parent="g_2dzEI5n_QhCMGsD6OV-653" vertex="1">
          <mxGeometry y="2.0900000000000034" width="360" height="200" as="geometry" />
        </mxCell>
        <mxCell id="g_2dzEI5n_QhCMGsD6OV-655" value="&lt;font style=&quot;font-size: 16px;&quot;&gt;Data pod&lt;/font&gt;" style="sketch=0;outlineConnect=0;fontColor=#232F3E;gradientColor=none;fillColor=#000000;strokeColor=none;dashed=0;verticalLabelPosition=bottom;verticalAlign=top;align=center;html=1;fontSize=12;fontStyle=0;aspect=fixed;pointerEvents=1;shape=mxgraph.aws4.vault;" parent="g_2dzEI5n_QhCMGsD6OV-653" vertex="1">
          <mxGeometry x="20" y="10" width="24.93" height="31.37" as="geometry" />
        </mxCell>
        <mxCell id="g_2dzEI5n_QhCMGsD6OV-656" value="&lt;font style=&quot;font-size: 16px;&quot;&gt;CSV files&lt;/font&gt;" style="outlineConnect=0;dashed=0;verticalLabelPosition=bottom;verticalAlign=top;align=center;html=1;shape=mxgraph.aws3.documents;fillColor=#759C3E;gradientColor=none;" parent="g_2dzEI5n_QhCMGsD6OV-653" vertex="1">
          <mxGeometry x="30" y="86.83000000000003" width="70" height="78.17" as="geometry" />
        </mxCell>
        <mxCell id="g_2dzEI5n_QhCMGsD6OV-657" value="&lt;font style=&quot;font-size: 16px;&quot;&gt;Datasets provided by consortium partner&lt;br&gt;Can be different formats&lt;/font&gt;" style="text;html=1;strokeColor=none;fillColor=none;align=center;verticalAlign=middle;whiteSpace=wrap;rounded=0;" parent="g_2dzEI5n_QhCMGsD6OV-653" vertex="1">
          <mxGeometry x="50" width="300" height="56" as="geometry" />
        </mxCell>
        <mxCell id="g_2dzEI5n_QhCMGsD6OV-658" value="Other" style="shape=cylinder3;whiteSpace=wrap;html=1;boundedLbl=1;backgroundOutline=1;size=15;" parent="g_2dzEI5n_QhCMGsD6OV-653" vertex="1">
          <mxGeometry x="270" y="104.74" width="60" height="80" as="geometry" />
        </mxCell>
        <mxCell id="g_2dzEI5n_QhCMGsD6OV-659" value="" style="group" parent="g_2dzEI5n_QhCMGsD6OV-653" vertex="1" connectable="0">
          <mxGeometry x="150" y="86.83" width="76" height="97.90999999999997" as="geometry" />
        </mxCell>
        <mxCell id="g_2dzEI5n_QhCMGsD6OV-660" value="" style="shape=datastore;whiteSpace=wrap;html=1;" parent="g_2dzEI5n_QhCMGsD6OV-659" vertex="1">
          <mxGeometry width="70" height="90" as="geometry" />
        </mxCell>
        <mxCell id="g_2dzEI5n_QhCMGsD6OV-661" value="" style="shape=datastore;whiteSpace=wrap;html=1;" parent="g_2dzEI5n_QhCMGsD6OV-659" vertex="1">
          <mxGeometry x="3" y="4" width="70" height="90" as="geometry" />
        </mxCell>
        <mxCell id="g_2dzEI5n_QhCMGsD6OV-662" value="Databases" style="shape=datastore;whiteSpace=wrap;html=1;" parent="g_2dzEI5n_QhCMGsD6OV-659" vertex="1">
          <mxGeometry x="6" y="7.909999999999997" width="70" height="90" as="geometry" />
        </mxCell>
        <mxCell id="g_2dzEI5n_QhCMGsD6OV-663" value="Composition" parent="0" visible="0" />
        <mxCell id="g_2dzEI5n_QhCMGsD6OV-689" value="" style="group" parent="g_2dzEI5n_QhCMGsD6OV-663" vertex="1" connectable="0">
          <mxGeometry x="19" y="241" width="366.9" height="270" as="geometry" />
        </mxCell>
        <mxCell id="g_2dzEI5n_QhCMGsD6OV-690" value="" style="rounded=1;whiteSpace=wrap;html=1;fontSize=18;" parent="g_2dzEI5n_QhCMGsD6OV-689" vertex="1">
          <mxGeometry width="360" height="270" as="geometry" />
        </mxCell>
        <mxCell id="g_2dzEI5n_QhCMGsD6OV-691" value="&lt;b style=&quot;font-size: 18px;&quot;&gt;Data steward - VU&lt;br&gt;&lt;/b&gt;" style="text;html=1;strokeColor=none;fillColor=none;align=center;verticalAlign=middle;whiteSpace=wrap;rounded=0;fontSize=18;" parent="g_2dzEI5n_QhCMGsD6OV-689" vertex="1">
          <mxGeometry x="8.372093023255815" width="179.2213953488372" height="34.83870967741935" as="geometry" />
        </mxCell>
        <mxCell id="g_2dzEI5n_QhCMGsD6OV-692" value="&lt;font style=&quot;font-size: 20px;&quot;&gt;Data pod&lt;/font&gt;" style="sketch=0;outlineConnect=0;fontColor=#232F3E;gradientColor=none;fillColor=#000000;strokeColor=none;dashed=0;verticalLabelPosition=bottom;verticalAlign=top;align=center;html=1;fontSize=12;fontStyle=0;aspect=fixed;pointerEvents=1;shape=mxgraph.aws4.vault;" parent="g_2dzEI5n_QhCMGsD6OV-689" vertex="1">
          <mxGeometry x="151.62837209302324" y="59.99677419354838" width="56.7293023255814" height="71.37209302325581" as="geometry" />
        </mxCell>
        <mxCell id="g_2dzEI5n_QhCMGsD6OV-693" value="&lt;font style=&quot;font-size: 18px;&quot;&gt;Distributed agent&lt;br&gt;&lt;/font&gt;" style="ellipse;whiteSpace=wrap;html=1;fontSize=18;" parent="g_2dzEI5n_QhCMGsD6OV-689" vertex="1">
          <mxGeometry x="133.09488372093023" y="190.0041935483871" width="93.80093023255814" height="65.5316129032258" as="geometry" />
        </mxCell>
        <mxCell id="g_2dzEI5n_QhCMGsD6OV-694" value="&lt;font style=&quot;font-size: 16px;&quot;&gt;Composition&lt;/font&gt;" style="text;html=1;strokeColor=none;fillColor=none;align=center;verticalAlign=middle;whiteSpace=wrap;rounded=0;" parent="g_2dzEI5n_QhCMGsD6OV-689" vertex="1">
          <mxGeometry x="226.89999999999998" y="225.54000000000002" width="140" height="30" as="geometry" />
        </mxCell>
        <mxCell id="g_2dzEI5n_QhCMGsD6OV-719" value="" style="group" parent="g_2dzEI5n_QhCMGsD6OV-663" vertex="1" connectable="0">
          <mxGeometry x="449" y="160" width="700" height="530" as="geometry" />
        </mxCell>
        <mxCell id="g_2dzEI5n_QhCMGsD6OV-720" value="" style="rounded=1;whiteSpace=wrap;html=1;fontSize=18;" parent="g_2dzEI5n_QhCMGsD6OV-719" vertex="1">
          <mxGeometry width="680" height="530" as="geometry" />
        </mxCell>
        <mxCell id="g_2dzEI5n_QhCMGsD6OV-721" value="&lt;b style=&quot;font-size: 18px;&quot;&gt;Data steward - VU&lt;br&gt;&lt;/b&gt;" style="text;html=1;strokeColor=none;fillColor=none;align=center;verticalAlign=middle;whiteSpace=wrap;rounded=0;fontSize=18;" parent="g_2dzEI5n_QhCMGsD6OV-719" vertex="1">
          <mxGeometry x="11.637414668466791" width="249.12213580786855" height="46.4516129032258" as="geometry" />
        </mxCell>
        <mxCell id="g_2dzEI5n_QhCMGsD6OV-722" value="&lt;font style=&quot;font-size: 20px;&quot;&gt;Data pod&lt;/font&gt;" style="sketch=0;outlineConnect=0;fontColor=#232F3E;gradientColor=none;fillColor=#000000;strokeColor=none;dashed=0;verticalLabelPosition=bottom;verticalAlign=top;align=center;html=1;fontSize=12;fontStyle=0;aspect=fixed;pointerEvents=1;shape=mxgraph.aws4.vault;" parent="g_2dzEI5n_QhCMGsD6OV-719" vertex="1">
          <mxGeometry x="69.9971566297134" y="57.99569892473117" width="75.63906976744187" height="95.16279069767441" as="geometry" />
        </mxCell>
        <mxCell id="g_2dzEI5n_QhCMGsD6OV-723" style="edgeStyle=orthogonalEdgeStyle;rounded=0;orthogonalLoop=1;jettySize=auto;html=1;entryX=0.441;entryY=0.562;entryDx=0;entryDy=0;entryPerimeter=0;" parent="g_2dzEI5n_QhCMGsD6OV-719" source="g_2dzEI5n_QhCMGsD6OV-727" target="g_2dzEI5n_QhCMGsD6OV-720" edge="1">
          <mxGeometry relative="1" as="geometry">
            <Array as="points">
              <mxPoint x="160" y="298" />
              <mxPoint x="160" y="298" />
            </Array>
          </mxGeometry>
        </mxCell>
        <mxCell id="g_2dzEI5n_QhCMGsD6OV-724" value="&lt;font style=&quot;font-size: 16px;&quot;&gt;Compose services&lt;br&gt;(auto remove after 30 &lt;br&gt;minutes of inactivity)&lt;br&gt;&lt;/font&gt;" style="edgeLabel;html=1;align=center;verticalAlign=middle;resizable=0;points=[];" parent="g_2dzEI5n_QhCMGsD6OV-723" vertex="1" connectable="0">
          <mxGeometry x="-0.001" y="-2" relative="1" as="geometry">
            <mxPoint x="2" y="37" as="offset" />
          </mxGeometry>
        </mxCell>
        <mxCell id="g_2dzEI5n_QhCMGsD6OV-725" style="rounded=0;orthogonalLoop=1;jettySize=auto;html=1;entryX=0.005;entryY=0.63;entryDx=0;entryDy=0;entryPerimeter=0;" parent="g_2dzEI5n_QhCMGsD6OV-719" source="g_2dzEI5n_QhCMGsD6OV-727" target="g_2dzEI5n_QhCMGsD6OV-729" edge="1">
          <mxGeometry relative="1" as="geometry" />
        </mxCell>
        <mxCell id="g_2dzEI5n_QhCMGsD6OV-726" value="&lt;font style=&quot;font-size: 16px;&quot;&gt;DataRequest&lt;/font&gt;" style="edgeLabel;html=1;align=center;verticalAlign=middle;resizable=0;points=[];" parent="g_2dzEI5n_QhCMGsD6OV-725" vertex="1" connectable="0">
          <mxGeometry x="-0.0817" y="-1" relative="1" as="geometry">
            <mxPoint as="offset" />
          </mxGeometry>
        </mxCell>
        <mxCell id="g_2dzEI5n_QhCMGsD6OV-727" value="&lt;font style=&quot;font-size: 18px;&quot;&gt;Distributed agent&lt;br&gt;&lt;/font&gt;" style="ellipse;whiteSpace=wrap;html=1;fontSize=18;" parent="g_2dzEI5n_QhCMGsD6OV-719" vertex="1">
          <mxGeometry x="27.807279088782813" y="253.33892473118277" width="130.3855939455019" height="87.37548387096774" as="geometry" />
        </mxCell>
        <mxCell id="g_2dzEI5n_QhCMGsD6OV-728" value="" style="group" parent="g_2dzEI5n_QhCMGsD6OV-719" vertex="1" connectable="0">
          <mxGeometry x="360" y="51.00000000000003" width="80" height="98" as="geometry" />
        </mxCell>
        <mxCell id="g_2dzEI5n_QhCMGsD6OV-729" value="" style="sketch=0;html=1;dashed=0;whitespace=wrap;fillColor=#2875E2;strokeColor=#ffffff;points=[[0.005,0.63,0],[0.1,0.2,0],[0.9,0.2,0],[0.5,0,0],[0.995,0.63,0],[0.72,0.99,0],[0.5,1,0],[0.28,0.99,0]];verticalLabelPosition=bottom;align=center;verticalAlign=top;shape=mxgraph.kubernetes.icon;prIcon=pod" parent="g_2dzEI5n_QhCMGsD6OV-728" vertex="1">
          <mxGeometry x="5" width="70" height="67.29" as="geometry" />
        </mxCell>
        <mxCell id="g_2dzEI5n_QhCMGsD6OV-730" value="&lt;font style=&quot;font-size: 14px;&quot;&gt;Query service&lt;/font&gt;" style="text;html=1;strokeColor=none;fillColor=none;align=center;verticalAlign=middle;whiteSpace=wrap;rounded=0;" parent="g_2dzEI5n_QhCMGsD6OV-728" vertex="1">
          <mxGeometry y="68" width="80" height="30" as="geometry" />
        </mxCell>
        <mxCell id="g_2dzEI5n_QhCMGsD6OV-731" value="" style="group" parent="g_2dzEI5n_QhCMGsD6OV-719" vertex="1" connectable="0">
          <mxGeometry x="360" y="168.00000000000003" width="80" height="98" as="geometry" />
        </mxCell>
        <mxCell id="g_2dzEI5n_QhCMGsD6OV-732" value="" style="sketch=0;html=1;dashed=0;whitespace=wrap;fillColor=#2875E2;strokeColor=#ffffff;points=[[0.005,0.63,0],[0.1,0.2,0],[0.9,0.2,0],[0.5,0,0],[0.995,0.63,0],[0.72,0.99,0],[0.5,1,0],[0.28,0.99,0]];verticalLabelPosition=bottom;align=center;verticalAlign=top;shape=mxgraph.kubernetes.icon;prIcon=pod" parent="g_2dzEI5n_QhCMGsD6OV-731" vertex="1">
          <mxGeometry x="5" width="70" height="67.29" as="geometry" />
        </mxCell>
        <mxCell id="g_2dzEI5n_QhCMGsD6OV-733" value="&lt;font style=&quot;font-size: 14px;&quot;&gt;Anonymize service&lt;/font&gt;" style="text;html=1;strokeColor=none;fillColor=none;align=center;verticalAlign=middle;whiteSpace=wrap;rounded=0;" parent="g_2dzEI5n_QhCMGsD6OV-731" vertex="1">
          <mxGeometry y="68" width="80" height="30" as="geometry" />
        </mxCell>
        <mxCell id="g_2dzEI5n_QhCMGsD6OV-734" value="" style="group" parent="g_2dzEI5n_QhCMGsD6OV-719" vertex="1" connectable="0">
          <mxGeometry x="360" y="288" width="80" height="98" as="geometry" />
        </mxCell>
        <mxCell id="g_2dzEI5n_QhCMGsD6OV-735" value="" style="sketch=0;html=1;dashed=0;whitespace=wrap;fillColor=#2875E2;strokeColor=#ffffff;points=[[0.005,0.63,0],[0.1,0.2,0],[0.9,0.2,0],[0.5,0,0],[0.995,0.63,0],[0.72,0.99,0],[0.5,1,0],[0.28,0.99,0]];verticalLabelPosition=bottom;align=center;verticalAlign=top;shape=mxgraph.kubernetes.icon;prIcon=pod" parent="g_2dzEI5n_QhCMGsD6OV-734" vertex="1">
          <mxGeometry x="5" width="70" height="67.29" as="geometry" />
        </mxCell>
        <mxCell id="g_2dzEI5n_QhCMGsD6OV-736" value="&lt;font style=&quot;font-size: 14px;&quot;&gt;Algorithm service&lt;/font&gt;" style="text;html=1;strokeColor=none;fillColor=none;align=center;verticalAlign=middle;whiteSpace=wrap;rounded=0;" parent="g_2dzEI5n_QhCMGsD6OV-734" vertex="1">
          <mxGeometry y="68" width="80" height="30" as="geometry" />
        </mxCell>
        <mxCell id="g_2dzEI5n_QhCMGsD6OV-737" value="" style="group" parent="g_2dzEI5n_QhCMGsD6OV-719" vertex="1" connectable="0">
          <mxGeometry x="360" y="408" width="80" height="98" as="geometry" />
        </mxCell>
        <mxCell id="g_2dzEI5n_QhCMGsD6OV-738" value="" style="sketch=0;html=1;dashed=0;whitespace=wrap;fillColor=#2875E2;strokeColor=#ffffff;points=[[0.005,0.63,0],[0.1,0.2,0],[0.9,0.2,0],[0.5,0,0],[0.995,0.63,0],[0.72,0.99,0],[0.5,1,0],[0.28,0.99,0]];verticalLabelPosition=bottom;align=center;verticalAlign=top;shape=mxgraph.kubernetes.icon;prIcon=pod" parent="g_2dzEI5n_QhCMGsD6OV-737" vertex="1">
          <mxGeometry x="5" width="70" height="67.29" as="geometry" />
        </mxCell>
        <mxCell id="g_2dzEI5n_QhCMGsD6OV-739" value="&lt;font style=&quot;font-size: 14px;&quot;&gt;Graph service&lt;/font&gt;" style="text;html=1;strokeColor=none;fillColor=none;align=center;verticalAlign=middle;whiteSpace=wrap;rounded=0;" parent="g_2dzEI5n_QhCMGsD6OV-737" vertex="1">
          <mxGeometry y="68" width="80" height="30" as="geometry" />
        </mxCell>
        <mxCell id="g_2dzEI5n_QhCMGsD6OV-741" style="edgeStyle=orthogonalEdgeStyle;rounded=0;orthogonalLoop=1;jettySize=auto;html=1;" parent="g_2dzEI5n_QhCMGsD6OV-719" source="g_2dzEI5n_QhCMGsD6OV-730" target="g_2dzEI5n_QhCMGsD6OV-732" edge="1">
          <mxGeometry relative="1" as="geometry" />
        </mxCell>
        <mxCell id="g_2dzEI5n_QhCMGsD6OV-742" style="edgeStyle=orthogonalEdgeStyle;rounded=0;orthogonalLoop=1;jettySize=auto;html=1;entryX=0.5;entryY=0;entryDx=0;entryDy=0;entryPerimeter=0;" parent="g_2dzEI5n_QhCMGsD6OV-719" source="g_2dzEI5n_QhCMGsD6OV-733" target="g_2dzEI5n_QhCMGsD6OV-735" edge="1">
          <mxGeometry relative="1" as="geometry" />
        </mxCell>
        <mxCell id="g_2dzEI5n_QhCMGsD6OV-743" style="edgeStyle=orthogonalEdgeStyle;rounded=0;orthogonalLoop=1;jettySize=auto;html=1;entryX=0.5;entryY=0;entryDx=0;entryDy=0;entryPerimeter=0;" parent="g_2dzEI5n_QhCMGsD6OV-719" source="g_2dzEI5n_QhCMGsD6OV-736" target="g_2dzEI5n_QhCMGsD6OV-738" edge="1">
          <mxGeometry relative="1" as="geometry" />
        </mxCell>
        <mxCell id="g_2dzEI5n_QhCMGsD6OV-744" style="edgeStyle=orthogonalEdgeStyle;rounded=0;orthogonalLoop=1;jettySize=auto;html=1;" parent="g_2dzEI5n_QhCMGsD6OV-719" source="g_2dzEI5n_QhCMGsD6OV-738" target="g_2dzEI5n_QhCMGsD6OV-727" edge="1">
          <mxGeometry relative="1" as="geometry" />
        </mxCell>
        <mxCell id="g_2dzEI5n_QhCMGsD6OV-745" value="&lt;font style=&quot;font-size: 16px;&quot;&gt;Result&lt;/font&gt;" style="edgeLabel;html=1;align=center;verticalAlign=middle;resizable=0;points=[];" parent="g_2dzEI5n_QhCMGsD6OV-744" vertex="1" connectable="0">
          <mxGeometry x="-0.4895" y="2" relative="1" as="geometry">
            <mxPoint x="-32" y="8" as="offset" />
          </mxGeometry>
        </mxCell>
        <mxCell id="g_2dzEI5n_QhCMGsD6OV-746" value="" style="endArrow=classic;html=1;rounded=0;dashed=1;dashPattern=8 8;entryX=-0.01;entryY=0.419;entryDx=0;entryDy=0;entryPerimeter=0;" parent="g_2dzEI5n_QhCMGsD6OV-719" target="g_2dzEI5n_QhCMGsD6OV-747" edge="1">
          <mxGeometry width="50" height="50" relative="1" as="geometry">
            <mxPoint x="410" y="158" as="sourcePoint" />
            <mxPoint x="551" y="158" as="targetPoint" />
          </mxGeometry>
        </mxCell>
        <mxCell id="g_2dzEI5n_QhCMGsD6OV-747" value="&lt;font style=&quot;font-size: 16px;&quot;&gt;Communication between services through AMQ queues&lt;/font&gt;" style="text;html=1;strokeColor=none;fillColor=none;align=center;verticalAlign=middle;whiteSpace=wrap;rounded=0;" parent="g_2dzEI5n_QhCMGsD6OV-719" vertex="1">
          <mxGeometry x="529.12" y="125" width="150" height="82" as="geometry" />
        </mxCell>
        <mxCell id="g_2dzEI5n_QhCMGsD6OV-748" style="edgeStyle=orthogonalEdgeStyle;rounded=0;orthogonalLoop=1;jettySize=auto;html=1;" parent="g_2dzEI5n_QhCMGsD6OV-719" source="g_2dzEI5n_QhCMGsD6OV-729" target="g_2dzEI5n_QhCMGsD6OV-722" edge="1">
          <mxGeometry relative="1" as="geometry">
            <Array as="points">
              <mxPoint x="200" y="85" />
              <mxPoint x="200" y="85" />
            </Array>
          </mxGeometry>
        </mxCell>
        <mxCell id="g_2dzEI5n_QhCMGsD6OV-749" value="&lt;font style=&quot;font-size: 16px;&quot;&gt;Access Data pod&lt;/font&gt;" style="edgeLabel;html=1;align=center;verticalAlign=middle;resizable=0;points=[];" parent="g_2dzEI5n_QhCMGsD6OV-748" vertex="1" connectable="0">
          <mxGeometry x="0.1452" y="-3" relative="1" as="geometry">
            <mxPoint x="10" y="-12" as="offset" />
          </mxGeometry>
        </mxCell>
        <mxCell id="g_2dzEI5n_QhCMGsD6OV-750" style="edgeStyle=orthogonalEdgeStyle;rounded=0;orthogonalLoop=1;jettySize=auto;html=1;dashed=1;dashPattern=8 8;entryX=0.003;entryY=0.573;entryDx=0;entryDy=0;entryPerimeter=0;" parent="g_2dzEI5n_QhCMGsD6OV-663" source="g_2dzEI5n_QhCMGsD6OV-693" target="g_2dzEI5n_QhCMGsD6OV-720" edge="1">
          <mxGeometry relative="1" as="geometry">
            <mxPoint x="609" y="464" as="targetPoint" />
          </mxGeometry>
        </mxCell>
        <mxCell id="g_2dzEI5n_QhCMGsD6OV-765" value="What I want to do" parent="0" visible="0" />
        <mxCell id="g_2dzEI5n_QhCMGsD6OV-766" value="&lt;font style=&quot;font-size: 18px;&quot;&gt;Orchestrator&lt;/font&gt;" style="ellipse;whiteSpace=wrap;html=1;fontSize=18;strokeColor=#37ff00;strokeWidth=5;" parent="g_2dzEI5n_QhCMGsD6OV-765" vertex="1">
          <mxGeometry x="910" y="574" width="120" height="80" as="geometry" />
        </mxCell>
        <mxCell id="g_2dzEI5n_QhCMGsD6OV-769" value="&lt;font style=&quot;font-size: 20px;&quot;&gt;User&lt;/font&gt;" style="sketch=0;outlineConnect=0;fontColor=#232F3E;gradientColor=none;fillColor=#232F3D;strokeColor=none;dashed=0;verticalLabelPosition=bottom;verticalAlign=top;align=center;html=1;fontSize=12;fontStyle=0;aspect=fixed;pointerEvents=1;shape=mxgraph.aws4.user;" parent="g_2dzEI5n_QhCMGsD6OV-765" vertex="1">
          <mxGeometry x="41" y="574" width="78" height="78" as="geometry" />
        </mxCell>
        <mxCell id="g_2dzEI5n_QhCMGsD6OV-771" value="&lt;span style=&quot;font-size: 21px;&quot;&gt;Composition&lt;br&gt;Request&lt;/span&gt;" style="text;html=1;strokeColor=none;fillColor=none;align=center;verticalAlign=middle;whiteSpace=wrap;rounded=0;" parent="g_2dzEI5n_QhCMGsD6OV-765" vertex="1">
          <mxGeometry x="770" y="518" width="200" height="56" as="geometry" />
        </mxCell>
        <mxCell id="g_2dzEI5n_QhCMGsD6OV-773" value="&lt;font style=&quot;font-size: 21px;&quot;&gt;RequestApproval&lt;/font&gt;" style="text;html=1;strokeColor=none;fillColor=none;align=center;verticalAlign=middle;whiteSpace=wrap;rounded=0;" parent="g_2dzEI5n_QhCMGsD6OV-765" vertex="1">
          <mxGeometry x="150" y="687" width="180" height="30" as="geometry" />
        </mxCell>
        <mxCell id="g_2dzEI5n_QhCMGsD6OV-774" value="" style="edgeStyle=orthogonalEdgeStyle;rounded=0;orthogonalLoop=1;jettySize=auto;html=1;entryX=0;entryY=1;entryDx=0;entryDy=0;fontSize=18;curved=1;" parent="g_2dzEI5n_QhCMGsD6OV-765" source="g_2dzEI5n_QhCMGsD6OV-769" target="g_2dzEI5n_QhCMGsD6OV-777" edge="1">
          <mxGeometry relative="1" as="geometry">
            <mxPoint x="69" y="652" as="sourcePoint" />
            <mxPoint x="888" y="685" as="targetPoint" />
            <Array as="points">
              <mxPoint x="69" y="677" />
              <mxPoint x="538" y="677" />
            </Array>
          </mxGeometry>
        </mxCell>
        <mxCell id="g_2dzEI5n_QhCMGsD6OV-775" style="edgeStyle=orthogonalEdgeStyle;rounded=0;orthogonalLoop=1;jettySize=auto;html=1;entryX=0.983;entryY=0.363;entryDx=0;entryDy=0;entryPerimeter=0;" parent="g_2dzEI5n_QhCMGsD6OV-765" source="g_2dzEI5n_QhCMGsD6OV-777" edge="1">
          <mxGeometry relative="1" as="geometry">
            <mxPoint x="113.47000000000003" y="609.7894999999999" as="targetPoint" />
            <Array as="points">
              <mxPoint x="420" y="610" />
              <mxPoint x="420" y="610" />
            </Array>
          </mxGeometry>
        </mxCell>
        <mxCell id="g_2dzEI5n_QhCMGsD6OV-776" style="edgeStyle=orthogonalEdgeStyle;rounded=0;orthogonalLoop=1;jettySize=auto;html=1;" parent="g_2dzEI5n_QhCMGsD6OV-765" source="g_2dzEI5n_QhCMGsD6OV-777" target="g_2dzEI5n_QhCMGsD6OV-766" edge="1">
          <mxGeometry relative="1" as="geometry" />
        </mxCell>
        <mxCell id="g_2dzEI5n_QhCMGsD6OV-777" value="&lt;font style=&quot;font-size: 18px;&quot;&gt;Policy enforcer&lt;/font&gt;" style="ellipse;whiteSpace=wrap;html=1;fontSize=18;strokeColor=#ff0000;strokeWidth=5;" parent="g_2dzEI5n_QhCMGsD6OV-765" vertex="1">
          <mxGeometry x="520" y="574" width="120" height="80" as="geometry" />
        </mxCell>
        <mxCell id="g_2dzEI5n_QhCMGsD6OV-779" value="&lt;font style=&quot;font-size: 20px;&quot;&gt;OrchestratorRequest&lt;br&gt;&lt;/font&gt;" style="text;html=1;strokeColor=none;fillColor=none;align=center;verticalAlign=middle;whiteSpace=wrap;rounded=0;" parent="g_2dzEI5n_QhCMGsD6OV-765" vertex="1">
          <mxGeometry x="670" y="614" width="210" height="40" as="geometry" />
        </mxCell>
        <mxCell id="g_2dzEI5n_QhCMGsD6OV-784" value="&lt;font style=&quot;font-size: 21px;&quot;&gt;AcceptedDataRequest&lt;/font&gt;" style="text;html=1;strokeColor=none;fillColor=none;align=center;verticalAlign=middle;whiteSpace=wrap;rounded=0;" parent="g_2dzEI5n_QhCMGsD6OV-765" vertex="1">
          <mxGeometry x="190" y="574" width="240" height="47" as="geometry" />
        </mxCell>
        <mxCell id="g_2dzEI5n_QhCMGsD6OV-791" value="" style="group" parent="g_2dzEI5n_QhCMGsD6OV-765" vertex="1" connectable="0">
          <mxGeometry x="20" y="124" width="366.9" height="270" as="geometry" />
        </mxCell>
        <mxCell id="g_2dzEI5n_QhCMGsD6OV-792" value="" style="rounded=1;whiteSpace=wrap;html=1;fontSize=18;" parent="g_2dzEI5n_QhCMGsD6OV-791" vertex="1">
          <mxGeometry width="360" height="270" as="geometry" />
        </mxCell>
        <mxCell id="g_2dzEI5n_QhCMGsD6OV-793" value="&lt;b style=&quot;font-size: 18px;&quot;&gt;Data steward - VU&lt;br&gt;&lt;/b&gt;" style="text;html=1;strokeColor=none;fillColor=none;align=center;verticalAlign=middle;whiteSpace=wrap;rounded=0;fontSize=18;" parent="g_2dzEI5n_QhCMGsD6OV-791" vertex="1">
          <mxGeometry x="8.372093023255815" width="179.2213953488372" height="34.83870967741935" as="geometry" />
        </mxCell>
        <mxCell id="g_2dzEI5n_QhCMGsD6OV-794" value="&lt;font style=&quot;font-size: 20px;&quot;&gt;Data pod&lt;/font&gt;" style="sketch=0;outlineConnect=0;fontColor=#232F3E;gradientColor=none;fillColor=#FF0000;strokeColor=none;dashed=0;verticalLabelPosition=bottom;verticalAlign=top;align=center;html=1;fontSize=12;fontStyle=0;aspect=fixed;pointerEvents=1;shape=mxgraph.aws4.vault;" parent="g_2dzEI5n_QhCMGsD6OV-791" vertex="1">
          <mxGeometry x="151.62837209302324" y="59.99677419354838" width="56.7293023255814" height="71.37209302325581" as="geometry" />
        </mxCell>
        <mxCell id="g_2dzEI5n_QhCMGsD6OV-795" value="&lt;font style=&quot;font-size: 18px;&quot;&gt;Distributed agent&lt;br&gt;&lt;/font&gt;" style="ellipse;whiteSpace=wrap;html=1;fontSize=18;strokeColor=#1eff00;strokeWidth=5;" parent="g_2dzEI5n_QhCMGsD6OV-791" vertex="1">
          <mxGeometry x="133.09488372093023" y="190.0041935483871" width="93.80093023255814" height="65.5316129032258" as="geometry" />
        </mxCell>
        <mxCell id="g_2dzEI5n_QhCMGsD6OV-796" value="&lt;font style=&quot;font-size: 16px;&quot;&gt;Composition&lt;/font&gt;" style="text;html=1;strokeColor=none;fillColor=none;align=center;verticalAlign=middle;whiteSpace=wrap;rounded=0;" parent="g_2dzEI5n_QhCMGsD6OV-791" vertex="1">
          <mxGeometry x="226.89999999999998" y="225.54000000000002" width="140" height="30" as="geometry" />
        </mxCell>
        <mxCell id="g_2dzEI5n_QhCMGsD6OV-805" style="rounded=0;orthogonalLoop=1;jettySize=auto;html=1;entryX=0.5;entryY=1;entryDx=0;entryDy=0;" parent="g_2dzEI5n_QhCMGsD6OV-765" source="g_2dzEI5n_QhCMGsD6OV-766" target="g_2dzEI5n_QhCMGsD6OV-795" edge="1">
          <mxGeometry relative="1" as="geometry" />
        </mxCell>
        <mxCell id="g_2dzEI5n_QhCMGsD6OV-812" value="&lt;font style=&quot;font-size: 21px;&quot;&gt;DataRequest&lt;/font&gt;" style="text;html=1;strokeColor=none;fillColor=none;align=center;verticalAlign=middle;whiteSpace=wrap;rounded=0;" parent="g_2dzEI5n_QhCMGsD6OV-765" vertex="1">
          <mxGeometry x="130" y="513.5" width="140" height="37" as="geometry" />
        </mxCell>
        <mxCell id="g_2dzEI5n_QhCMGsD6OV-816" value="&lt;font style=&quot;font-size: 21px;&quot;&gt;Result&lt;br&gt;&lt;/font&gt;" style="text;html=1;strokeColor=none;fillColor=none;align=center;verticalAlign=middle;whiteSpace=wrap;rounded=0;" parent="g_2dzEI5n_QhCMGsD6OV-765" vertex="1">
          <mxGeometry x="30" y="456" width="80" height="37" as="geometry" />
        </mxCell>
        <mxCell id="g_2dzEI5n_QhCMGsD6OV-817" value="" style="endArrow=classic;html=1;rounded=0;" parent="g_2dzEI5n_QhCMGsD6OV-765" edge="1">
          <mxGeometry width="50" height="50" relative="1" as="geometry">
            <mxPoint x="110" y="554" as="sourcePoint" />
            <mxPoint x="180" y="404" as="targetPoint" />
          </mxGeometry>
        </mxCell>
        <mxCell id="g_2dzEI5n_QhCMGsD6OV-818" value="" style="endArrow=none;html=1;rounded=0;startArrow=classic;startFill=1;endFill=0;" parent="g_2dzEI5n_QhCMGsD6OV-765" edge="1">
          <mxGeometry width="50" height="50" relative="1" as="geometry">
            <mxPoint x="90" y="564" as="sourcePoint" />
            <mxPoint x="160" y="404" as="targetPoint" />
          </mxGeometry>
        </mxCell>
        <mxCell id="g_2dzEI5n_QhCMGsD6OV-821" value="" style="group" parent="g_2dzEI5n_QhCMGsD6OV-765" vertex="1" connectable="0">
          <mxGeometry x="530" y="34" width="620" height="439" as="geometry" />
        </mxCell>
        <mxCell id="g_2dzEI5n_QhCMGsD6OV-822" value="" style="rounded=1;whiteSpace=wrap;html=1;fontSize=18;strokeColor=#37ff00;strokeWidth=5;" parent="g_2dzEI5n_QhCMGsD6OV-821" vertex="1">
          <mxGeometry width="602.2857142857142" height="439" as="geometry" />
        </mxCell>
        <mxCell id="g_2dzEI5n_QhCMGsD6OV-823" value="&lt;b style=&quot;font-size: 18px;&quot;&gt;Data steward - VU&lt;br&gt;&lt;/b&gt;" style="text;html=1;strokeColor=none;fillColor=none;align=center;verticalAlign=middle;whiteSpace=wrap;rounded=0;fontSize=18;" parent="g_2dzEI5n_QhCMGsD6OV-821" vertex="1">
          <mxGeometry x="10.307424420642015" width="220.65103457268356" height="38.47595861229458" as="geometry" />
        </mxCell>
        <mxCell id="g_2dzEI5n_QhCMGsD6OV-824" value="&lt;font style=&quot;font-size: 20px;&quot;&gt;Data pod&lt;/font&gt;" style="sketch=0;outlineConnect=0;fontColor=#232F3E;gradientColor=none;fillColor=#000000;strokeColor=none;dashed=0;verticalLabelPosition=bottom;verticalAlign=top;align=center;html=1;fontSize=12;fontStyle=0;aspect=fixed;pointerEvents=1;shape=mxgraph.aws4.vault;" parent="g_2dzEI5n_QhCMGsD6OV-821" vertex="1">
          <mxGeometry x="61.99748158631758" y="48.03794684520186" width="62.651984203598076" height="78.823519087319" as="geometry" />
        </mxCell>
        <mxCell id="g_2dzEI5n_QhCMGsD6OV-825" style="edgeStyle=orthogonalEdgeStyle;rounded=0;orthogonalLoop=1;jettySize=auto;html=1;entryX=0.441;entryY=0.562;entryDx=0;entryDy=0;entryPerimeter=0;" parent="g_2dzEI5n_QhCMGsD6OV-821" source="g_2dzEI5n_QhCMGsD6OV-829" target="g_2dzEI5n_QhCMGsD6OV-822" edge="1">
          <mxGeometry relative="1" as="geometry">
            <Array as="points">
              <mxPoint x="141.71428571428572" y="246.83396226415095" />
              <mxPoint x="141.71428571428572" y="246.83396226415095" />
            </Array>
          </mxGeometry>
        </mxCell>
        <mxCell id="g_2dzEI5n_QhCMGsD6OV-826" value="&lt;font style=&quot;font-size: 12px;&quot;&gt;Compose services&lt;br&gt;(auto remove after 30 &lt;br&gt;minutes of inactivity)&lt;br&gt;&lt;/font&gt;" style="edgeLabel;html=1;align=center;verticalAlign=middle;resizable=0;points=[];" parent="g_2dzEI5n_QhCMGsD6OV-825" vertex="1" connectable="0">
          <mxGeometry x="-0.001" y="-2" relative="1" as="geometry">
            <mxPoint x="-9" y="24" as="offset" />
          </mxGeometry>
        </mxCell>
        <mxCell id="g_2dzEI5n_QhCMGsD6OV-827" style="rounded=0;orthogonalLoop=1;jettySize=auto;html=1;entryX=0.005;entryY=0.63;entryDx=0;entryDy=0;entryPerimeter=0;" parent="g_2dzEI5n_QhCMGsD6OV-821" source="g_2dzEI5n_QhCMGsD6OV-829" target="g_2dzEI5n_QhCMGsD6OV-831" edge="1">
          <mxGeometry relative="1" as="geometry" />
        </mxCell>
        <mxCell id="g_2dzEI5n_QhCMGsD6OV-828" value="DataRequest" style="edgeLabel;html=1;align=center;verticalAlign=middle;resizable=0;points=[];" parent="g_2dzEI5n_QhCMGsD6OV-827" vertex="1" connectable="0">
          <mxGeometry x="-0.0817" y="-1" relative="1" as="geometry">
            <mxPoint as="offset" />
          </mxGeometry>
        </mxCell>
        <mxCell id="g_2dzEI5n_QhCMGsD6OV-829" value="&lt;font style=&quot;font-size: 18px;&quot;&gt;Distributed agent&lt;br&gt;&lt;/font&gt;" style="ellipse;whiteSpace=wrap;html=1;fontSize=18;" parent="g_2dzEI5n_QhCMGsD6OV-821" vertex="1">
          <mxGeometry x="24.62930433577906" y="209.8411093528099" width="115.48438320887311" height="72.37327814972612" as="geometry" />
        </mxCell>
        <mxCell id="g_2dzEI5n_QhCMGsD6OV-830" value="" style="group" parent="g_2dzEI5n_QhCMGsD6OV-821" vertex="1" connectable="0">
          <mxGeometry x="318.85714285714283" y="42.24339622641512" width="70.85714285714286" height="81.17358490566038" as="geometry" />
        </mxCell>
        <mxCell id="g_2dzEI5n_QhCMGsD6OV-831" value="" style="sketch=0;html=1;dashed=0;whitespace=wrap;fillColor=#2875E2;strokeColor=#ffffff;points=[[0.005,0.63,0],[0.1,0.2,0],[0.9,0.2,0],[0.5,0,0],[0.995,0.63,0],[0.72,0.99,0],[0.5,1,0],[0.28,0.99,0]];verticalLabelPosition=bottom;align=center;verticalAlign=top;shape=mxgraph.kubernetes.icon;prIcon=pod" parent="g_2dzEI5n_QhCMGsD6OV-830" vertex="1">
          <mxGeometry x="4.428571428571429" width="62.00000000000001" height="55.73643396226416" as="geometry" />
        </mxCell>
        <mxCell id="g_2dzEI5n_QhCMGsD6OV-832" value="&lt;font style=&quot;font-size: 14px;&quot;&gt;Query service&lt;/font&gt;" style="text;html=1;strokeColor=none;fillColor=none;align=center;verticalAlign=middle;whiteSpace=wrap;rounded=0;" parent="g_2dzEI5n_QhCMGsD6OV-830" vertex="1">
          <mxGeometry y="56.324528301886794" width="70.85714285714286" height="24.849056603773587" as="geometry" />
        </mxCell>
        <mxCell id="g_2dzEI5n_QhCMGsD6OV-833" value="" style="group" parent="g_2dzEI5n_QhCMGsD6OV-821" vertex="1" connectable="0">
          <mxGeometry x="318.85714285714283" y="139.1547169811321" width="70.85714285714286" height="81.17358490566038" as="geometry" />
        </mxCell>
        <mxCell id="g_2dzEI5n_QhCMGsD6OV-834" value="" style="sketch=0;html=1;dashed=0;whitespace=wrap;fillColor=#2875E2;strokeColor=#ffffff;points=[[0.005,0.63,0],[0.1,0.2,0],[0.9,0.2,0],[0.5,0,0],[0.995,0.63,0],[0.72,0.99,0],[0.5,1,0],[0.28,0.99,0]];verticalLabelPosition=bottom;align=center;verticalAlign=top;shape=mxgraph.kubernetes.icon;prIcon=pod" parent="g_2dzEI5n_QhCMGsD6OV-833" vertex="1">
          <mxGeometry x="4.428571428571429" width="62.00000000000001" height="55.73643396226416" as="geometry" />
        </mxCell>
        <mxCell id="g_2dzEI5n_QhCMGsD6OV-835" value="&lt;font style=&quot;font-size: 14px;&quot;&gt;Anonymize service&lt;/font&gt;" style="text;html=1;strokeColor=none;fillColor=none;align=center;verticalAlign=middle;whiteSpace=wrap;rounded=0;" parent="g_2dzEI5n_QhCMGsD6OV-833" vertex="1">
          <mxGeometry y="56.324528301886794" width="70.85714285714286" height="24.849056603773587" as="geometry" />
        </mxCell>
        <mxCell id="g_2dzEI5n_QhCMGsD6OV-836" value="" style="group" parent="g_2dzEI5n_QhCMGsD6OV-821" vertex="1" connectable="0">
          <mxGeometry x="318.85714285714283" y="238.55094339622642" width="70.85714285714286" height="81.17358490566038" as="geometry" />
        </mxCell>
        <mxCell id="g_2dzEI5n_QhCMGsD6OV-837" value="" style="sketch=0;html=1;dashed=0;whitespace=wrap;fillColor=#2875E2;strokeColor=#ffffff;points=[[0.005,0.63,0],[0.1,0.2,0],[0.9,0.2,0],[0.5,0,0],[0.995,0.63,0],[0.72,0.99,0],[0.5,1,0],[0.28,0.99,0]];verticalLabelPosition=bottom;align=center;verticalAlign=top;shape=mxgraph.kubernetes.icon;prIcon=pod" parent="g_2dzEI5n_QhCMGsD6OV-836" vertex="1">
          <mxGeometry x="4.428571428571429" width="62.00000000000001" height="55.73643396226416" as="geometry" />
        </mxCell>
        <mxCell id="g_2dzEI5n_QhCMGsD6OV-838" value="&lt;font style=&quot;font-size: 14px;&quot;&gt;Algorithm service&lt;/font&gt;" style="text;html=1;strokeColor=none;fillColor=none;align=center;verticalAlign=middle;whiteSpace=wrap;rounded=0;" parent="g_2dzEI5n_QhCMGsD6OV-836" vertex="1">
          <mxGeometry y="56.324528301886794" width="70.85714285714286" height="24.849056603773587" as="geometry" />
        </mxCell>
        <mxCell id="g_2dzEI5n_QhCMGsD6OV-839" value="" style="group" parent="g_2dzEI5n_QhCMGsD6OV-821" vertex="1" connectable="0">
          <mxGeometry x="318.85714285714283" y="337.94716981132075" width="70.85714285714286" height="81.17358490566038" as="geometry" />
        </mxCell>
        <mxCell id="g_2dzEI5n_QhCMGsD6OV-840" value="" style="sketch=0;html=1;dashed=0;whitespace=wrap;fillColor=#2875E2;strokeColor=#ffffff;points=[[0.005,0.63,0],[0.1,0.2,0],[0.9,0.2,0],[0.5,0,0],[0.995,0.63,0],[0.72,0.99,0],[0.5,1,0],[0.28,0.99,0]];verticalLabelPosition=bottom;align=center;verticalAlign=top;shape=mxgraph.kubernetes.icon;prIcon=pod" parent="g_2dzEI5n_QhCMGsD6OV-839" vertex="1">
          <mxGeometry x="4.428571428571429" width="62.00000000000001" height="55.73643396226416" as="geometry" />
        </mxCell>
        <mxCell id="g_2dzEI5n_QhCMGsD6OV-841" value="&lt;font style=&quot;font-size: 14px;&quot;&gt;Graph service&lt;/font&gt;" style="text;html=1;strokeColor=none;fillColor=none;align=center;verticalAlign=middle;whiteSpace=wrap;rounded=0;" parent="g_2dzEI5n_QhCMGsD6OV-839" vertex="1">
          <mxGeometry y="56.324528301886794" width="70.85714285714286" height="24.849056603773587" as="geometry" />
        </mxCell>
        <mxCell id="g_2dzEI5n_QhCMGsD6OV-842" value="&lt;b style=&quot;font-size: 18px;&quot;&gt;ArcheType1:&lt;br&gt;&lt;/b&gt;" style="text;html=1;strokeColor=none;fillColor=none;align=center;verticalAlign=middle;whiteSpace=wrap;rounded=0;fontSize=18;" parent="g_2dzEI5n_QhCMGsD6OV-821" vertex="1">
          <mxGeometry x="247.99771013492764" y="9.558603773584906" width="220.65103457268356" height="38.47595861229458" as="geometry" />
        </mxCell>
        <mxCell id="g_2dzEI5n_QhCMGsD6OV-843" style="edgeStyle=orthogonalEdgeStyle;rounded=0;orthogonalLoop=1;jettySize=auto;html=1;" parent="g_2dzEI5n_QhCMGsD6OV-821" source="g_2dzEI5n_QhCMGsD6OV-832" target="g_2dzEI5n_QhCMGsD6OV-834" edge="1">
          <mxGeometry relative="1" as="geometry" />
        </mxCell>
        <mxCell id="g_2dzEI5n_QhCMGsD6OV-844" style="edgeStyle=orthogonalEdgeStyle;rounded=0;orthogonalLoop=1;jettySize=auto;html=1;entryX=0.5;entryY=0;entryDx=0;entryDy=0;entryPerimeter=0;" parent="g_2dzEI5n_QhCMGsD6OV-821" source="g_2dzEI5n_QhCMGsD6OV-835" target="g_2dzEI5n_QhCMGsD6OV-837" edge="1">
          <mxGeometry relative="1" as="geometry" />
        </mxCell>
        <mxCell id="g_2dzEI5n_QhCMGsD6OV-845" style="edgeStyle=orthogonalEdgeStyle;rounded=0;orthogonalLoop=1;jettySize=auto;html=1;entryX=0.5;entryY=0;entryDx=0;entryDy=0;entryPerimeter=0;" parent="g_2dzEI5n_QhCMGsD6OV-821" source="g_2dzEI5n_QhCMGsD6OV-838" target="g_2dzEI5n_QhCMGsD6OV-840" edge="1">
          <mxGeometry relative="1" as="geometry" />
        </mxCell>
        <mxCell id="g_2dzEI5n_QhCMGsD6OV-846" style="edgeStyle=orthogonalEdgeStyle;rounded=0;orthogonalLoop=1;jettySize=auto;html=1;" parent="g_2dzEI5n_QhCMGsD6OV-821" source="g_2dzEI5n_QhCMGsD6OV-840" target="g_2dzEI5n_QhCMGsD6OV-829" edge="1">
          <mxGeometry relative="1" as="geometry" />
        </mxCell>
        <mxCell id="g_2dzEI5n_QhCMGsD6OV-847" value="&lt;font style=&quot;font-size: 14px;&quot;&gt;Result&lt;/font&gt;" style="edgeLabel;html=1;align=center;verticalAlign=middle;resizable=0;points=[];" parent="g_2dzEI5n_QhCMGsD6OV-846" vertex="1" connectable="0">
          <mxGeometry x="-0.4895" y="2" relative="1" as="geometry">
            <mxPoint x="-32" y="8" as="offset" />
          </mxGeometry>
        </mxCell>
        <mxCell id="g_2dzEI5n_QhCMGsD6OV-848" value="" style="endArrow=classic;html=1;rounded=0;entryX=0.809;entryY=0.298;entryDx=0;entryDy=0;entryPerimeter=0;dashed=1;dashPattern=8 8;" parent="g_2dzEI5n_QhCMGsD6OV-821" target="g_2dzEI5n_QhCMGsD6OV-822" edge="1">
          <mxGeometry width="50" height="50" relative="1" as="geometry">
            <mxPoint x="363.1428571428571" y="130.87169811320754" as="sourcePoint" />
            <mxPoint x="407.4285714285714" y="89.45660377358492" as="targetPoint" />
          </mxGeometry>
        </mxCell>
        <mxCell id="g_2dzEI5n_QhCMGsD6OV-849" value="Communication between services through AMQ queues" style="text;html=1;strokeColor=none;fillColor=none;align=center;verticalAlign=middle;whiteSpace=wrap;rounded=0;" parent="g_2dzEI5n_QhCMGsD6OV-821" vertex="1">
          <mxGeometry x="478.2857142857143" y="106.02264150943397" width="115.14285714285714" height="48.86981132075472" as="geometry" />
        </mxCell>
        <mxCell id="g_2dzEI5n_QhCMGsD6OV-850" style="edgeStyle=orthogonalEdgeStyle;rounded=0;orthogonalLoop=1;jettySize=auto;html=1;" parent="g_2dzEI5n_QhCMGsD6OV-821" source="g_2dzEI5n_QhCMGsD6OV-831" target="g_2dzEI5n_QhCMGsD6OV-824" edge="1">
          <mxGeometry relative="1" as="geometry">
            <Array as="points">
              <mxPoint x="177.14285714285714" y="70.40566037735849" />
              <mxPoint x="177.14285714285714" y="70.40566037735849" />
            </Array>
          </mxGeometry>
        </mxCell>
        <mxCell id="g_2dzEI5n_QhCMGsD6OV-851" value="Access Data pod" style="edgeLabel;html=1;align=center;verticalAlign=middle;resizable=0;points=[];" parent="g_2dzEI5n_QhCMGsD6OV-850" vertex="1" connectable="0">
          <mxGeometry x="0.1452" y="-3" relative="1" as="geometry">
            <mxPoint x="10" y="-4" as="offset" />
          </mxGeometry>
        </mxCell>
        <mxCell id="g_2dzEI5n_QhCMGsD6OV-852" style="edgeStyle=orthogonalEdgeStyle;rounded=0;orthogonalLoop=1;jettySize=auto;html=1;dashed=1;dashPattern=8 8;entryX=0.003;entryY=0.573;entryDx=0;entryDy=0;entryPerimeter=0;" parent="g_2dzEI5n_QhCMGsD6OV-765" source="g_2dzEI5n_QhCMGsD6OV-795" target="g_2dzEI5n_QhCMGsD6OV-822" edge="1">
          <mxGeometry relative="1" as="geometry">
            <mxPoint x="1380" y="267" as="targetPoint" />
          </mxGeometry>
        </mxCell>
        <mxCell id="g_2dzEI5n_QhCMGsD6OV-867" value="" style="ellipse;whiteSpace=wrap;html=1;fontSize=18;strokeColor=#ff0000;strokeWidth=5;" parent="g_2dzEI5n_QhCMGsD6OV-765" vertex="1">
          <mxGeometry x="40" y="750" width="79" height="37" as="geometry" />
        </mxCell>
        <mxCell id="g_2dzEI5n_QhCMGsD6OV-868" value="&lt;font style=&quot;font-size: 18px;&quot;&gt;Mock, basic example&lt;/font&gt;" style="text;html=1;strokeColor=none;fillColor=none;align=center;verticalAlign=middle;whiteSpace=wrap;rounded=0;" parent="g_2dzEI5n_QhCMGsD6OV-765" vertex="1">
          <mxGeometry x="100" y="754" width="220" height="33" as="geometry" />
        </mxCell>
        <mxCell id="g_2dzEI5n_QhCMGsD6OV-869" value="" style="ellipse;whiteSpace=wrap;html=1;fontSize=18;strokeColor=#44FF00;strokeWidth=5;" parent="g_2dzEI5n_QhCMGsD6OV-765" vertex="1">
          <mxGeometry x="756.55" y="752" width="79" height="37" as="geometry" />
        </mxCell>
        <mxCell id="g_2dzEI5n_QhCMGsD6OV-870" value="&lt;font style=&quot;font-size: 18px;&quot;&gt;Actual implementation&lt;/font&gt;" style="text;html=1;strokeColor=none;fillColor=none;align=center;verticalAlign=middle;whiteSpace=wrap;rounded=0;" parent="g_2dzEI5n_QhCMGsD6OV-765" vertex="1">
          <mxGeometry x="820" y="754" width="220" height="33" as="geometry" />
        </mxCell>
        <mxCell id="ZJBauCjtSy6QRAS6ge7c-329" value="Untitled Layer" parent="0" visible="0" />
        <mxCell id="ZJBauCjtSy6QRAS6ge7c-330" value="&lt;font style=&quot;font-size: 18px;&quot;&gt;Orchestrator&lt;/font&gt;" style="ellipse;whiteSpace=wrap;html=1;fontSize=18;" parent="ZJBauCjtSy6QRAS6ge7c-329" vertex="1">
          <mxGeometry x="910" y="630" width="120" height="80" as="geometry" />
        </mxCell>
        <mxCell id="ZJBauCjtSy6QRAS6ge7c-331" value="&lt;font style=&quot;font-size: 20px;&quot;&gt;User&lt;/font&gt;" style="sketch=0;outlineConnect=0;fontColor=#232F3E;gradientColor=none;fillColor=#232F3D;strokeColor=none;dashed=0;verticalLabelPosition=bottom;verticalAlign=top;align=center;html=1;fontSize=12;fontStyle=0;aspect=fixed;pointerEvents=1;shape=mxgraph.aws4.user;" parent="ZJBauCjtSy6QRAS6ge7c-329" vertex="1">
          <mxGeometry x="41" y="630" width="78" height="78" as="geometry" />
        </mxCell>
        <mxCell id="ZJBauCjtSy6QRAS6ge7c-332" value="&lt;font style=&quot;font-size: 18px;&quot;&gt;Policy enforcer&lt;/font&gt;" style="ellipse;whiteSpace=wrap;html=1;fontSize=18;" parent="ZJBauCjtSy6QRAS6ge7c-329" vertex="1">
          <mxGeometry x="520" y="630" width="120" height="80" as="geometry" />
        </mxCell>
        <mxCell id="ZJBauCjtSy6QRAS6ge7c-333" value="&lt;font style=&quot;font-size: 21px;&quot;&gt;DataRequest&lt;/font&gt;" style="text;html=1;strokeColor=none;fillColor=none;align=center;verticalAlign=middle;whiteSpace=wrap;rounded=0;" parent="ZJBauCjtSy6QRAS6ge7c-329" vertex="1">
          <mxGeometry x="270" y="668" width="140" height="37" as="geometry" />
        </mxCell>
        <mxCell id="ZJBauCjtSy6QRAS6ge7c-334" value="&lt;font style=&quot;font-size: 16px;&quot;&gt;&lt;b&gt;4&lt;/b&gt;&lt;/font&gt;" style="ellipse;whiteSpace=wrap;html=1;aspect=fixed;strokeWidth=2;fontFamily=Tahoma;spacingBottom=4;spacingRight=2;strokeColor=#6c8ebf;fillColor=#dae8fc;" parent="ZJBauCjtSy6QRAS6ge7c-329" vertex="1">
          <mxGeometry x="220" y="663" width="47" height="47" as="geometry" />
        </mxCell>
        <mxCell id="ZJBauCjtSy6QRAS6ge7c-335" style="edgeStyle=orthogonalEdgeStyle;rounded=0;orthogonalLoop=1;jettySize=auto;html=1;exitX=0.5;exitY=1;exitDx=0;exitDy=0;" parent="ZJBauCjtSy6QRAS6ge7c-329" source="ZJBauCjtSy6QRAS6ge7c-333" target="ZJBauCjtSy6QRAS6ge7c-333" edge="1">
          <mxGeometry relative="1" as="geometry" />
        </mxCell>
        <mxCell id="ZJBauCjtSy6QRAS6ge7c-336" value="" style="group" parent="ZJBauCjtSy6QRAS6ge7c-329" vertex="1" connectable="0">
          <mxGeometry x="410" y="300" width="366.9" height="270" as="geometry" />
        </mxCell>
        <mxCell id="ZJBauCjtSy6QRAS6ge7c-337" value="" style="rounded=1;whiteSpace=wrap;html=1;fontSize=18;" parent="ZJBauCjtSy6QRAS6ge7c-336" vertex="1">
          <mxGeometry width="360" height="270" as="geometry" />
        </mxCell>
        <mxCell id="ZJBauCjtSy6QRAS6ge7c-338" value="&lt;b style=&quot;font-size: 18px;&quot;&gt;Data steward - UvA&lt;br&gt;&lt;/b&gt;" style="text;html=1;strokeColor=none;fillColor=none;align=center;verticalAlign=middle;whiteSpace=wrap;rounded=0;fontSize=18;" parent="ZJBauCjtSy6QRAS6ge7c-336" vertex="1">
          <mxGeometry x="8.372093023255815" width="179.2213953488372" height="34.83870967741935" as="geometry" />
        </mxCell>
        <mxCell id="ZJBauCjtSy6QRAS6ge7c-339" value="&lt;font style=&quot;font-size: 20px;&quot;&gt;Data pod&lt;/font&gt;" style="sketch=0;outlineConnect=0;fontColor=#232F3E;gradientColor=none;fillColor=#000000;strokeColor=none;dashed=0;verticalLabelPosition=bottom;verticalAlign=top;align=center;html=1;fontSize=12;fontStyle=0;aspect=fixed;pointerEvents=1;shape=mxgraph.aws4.vault;" parent="ZJBauCjtSy6QRAS6ge7c-336" vertex="1">
          <mxGeometry x="151.62837209302324" y="59.99677419354838" width="56.7293023255814" height="71.37209302325581" as="geometry" />
        </mxCell>
        <mxCell id="ZJBauCjtSy6QRAS6ge7c-340" value="&lt;font style=&quot;font-size: 18px;&quot;&gt;Distributed agent&lt;br&gt;&lt;/font&gt;" style="ellipse;whiteSpace=wrap;html=1;fontSize=18;" parent="ZJBauCjtSy6QRAS6ge7c-336" vertex="1">
          <mxGeometry x="133.09488372093023" y="190.0041935483871" width="93.80093023255814" height="65.5316129032258" as="geometry" />
        </mxCell>
        <mxCell id="ZJBauCjtSy6QRAS6ge7c-341" value="" style="group" parent="ZJBauCjtSy6QRAS6ge7c-336" vertex="1" connectable="0">
          <mxGeometry y="-290" width="366.9" height="270" as="geometry" />
        </mxCell>
        <mxCell id="ZJBauCjtSy6QRAS6ge7c-342" value="" style="rounded=1;whiteSpace=wrap;html=1;fontSize=18;" parent="ZJBauCjtSy6QRAS6ge7c-341" vertex="1">
          <mxGeometry width="360" height="270" as="geometry" />
        </mxCell>
        <mxCell id="ZJBauCjtSy6QRAS6ge7c-343" value="&lt;b style=&quot;font-size: 18px;&quot;&gt;Data steward - VU&lt;br&gt;&lt;/b&gt;" style="text;html=1;strokeColor=none;fillColor=none;align=center;verticalAlign=middle;whiteSpace=wrap;rounded=0;fontSize=18;" parent="ZJBauCjtSy6QRAS6ge7c-341" vertex="1">
          <mxGeometry x="8.372093023255815" width="179.2213953488372" height="34.83870967741935" as="geometry" />
        </mxCell>
        <mxCell id="ZJBauCjtSy6QRAS6ge7c-344" value="&lt;font style=&quot;font-size: 20px;&quot;&gt;Data pod&lt;/font&gt;" style="sketch=0;outlineConnect=0;fontColor=#232F3E;gradientColor=none;fillColor=#000000;strokeColor=none;dashed=0;verticalLabelPosition=bottom;verticalAlign=top;align=center;html=1;fontSize=12;fontStyle=0;aspect=fixed;pointerEvents=1;shape=mxgraph.aws4.vault;" parent="ZJBauCjtSy6QRAS6ge7c-341" vertex="1">
          <mxGeometry x="151.62837209302324" y="59.99677419354838" width="56.7293023255814" height="71.37209302325581" as="geometry" />
        </mxCell>
        <mxCell id="ZJBauCjtSy6QRAS6ge7c-345" value="&lt;font style=&quot;font-size: 18px;&quot;&gt;Distributed agent&lt;br&gt;&lt;/font&gt;" style="ellipse;whiteSpace=wrap;html=1;fontSize=18;" parent="ZJBauCjtSy6QRAS6ge7c-341" vertex="1">
          <mxGeometry x="133.09488372093023" y="190.0041935483871" width="93.80093023255814" height="65.5316129032258" as="geometry" />
        </mxCell>
        <mxCell id="ZJBauCjtSy6QRAS6ge7c-346" value="" style="group" parent="ZJBauCjtSy6QRAS6ge7c-336" vertex="1" connectable="0">
          <mxGeometry width="360" height="270" as="geometry" />
        </mxCell>
        <mxCell id="ZJBauCjtSy6QRAS6ge7c-347" value="" style="rounded=1;whiteSpace=wrap;html=1;fontSize=18;" parent="ZJBauCjtSy6QRAS6ge7c-346" vertex="1">
          <mxGeometry width="360" height="270" as="geometry" />
        </mxCell>
        <mxCell id="ZJBauCjtSy6QRAS6ge7c-348" value="&lt;b style=&quot;font-size: 18px;&quot;&gt;Data steward - UvA&lt;br&gt;&lt;/b&gt;" style="text;html=1;strokeColor=none;fillColor=none;align=center;verticalAlign=middle;whiteSpace=wrap;rounded=0;fontSize=18;" parent="ZJBauCjtSy6QRAS6ge7c-346" vertex="1">
          <mxGeometry x="8.372093023255815" width="179.2213953488372" height="34.83870967741935" as="geometry" />
        </mxCell>
        <mxCell id="ZJBauCjtSy6QRAS6ge7c-349" value="&lt;font style=&quot;font-size: 20px;&quot;&gt;Data pod&lt;/font&gt;" style="sketch=0;outlineConnect=0;fontColor=#232F3E;gradientColor=none;fillColor=#000000;strokeColor=none;dashed=0;verticalLabelPosition=bottom;verticalAlign=top;align=center;html=1;fontSize=12;fontStyle=0;aspect=fixed;pointerEvents=1;shape=mxgraph.aws4.vault;" parent="ZJBauCjtSy6QRAS6ge7c-346" vertex="1">
          <mxGeometry x="151.62837209302324" y="59.99677419354838" width="56.7293023255814" height="71.37209302325581" as="geometry" />
        </mxCell>
        <mxCell id="ZJBauCjtSy6QRAS6ge7c-350" value="&lt;font style=&quot;font-size: 18px;&quot;&gt;Distributed agent&lt;br&gt;&lt;/font&gt;" style="ellipse;whiteSpace=wrap;html=1;fontSize=18;" parent="ZJBauCjtSy6QRAS6ge7c-346" vertex="1">
          <mxGeometry x="133.09488372093023" y="190.0041935483871" width="93.80093023255814" height="65.5316129032258" as="geometry" />
        </mxCell>
        <mxCell id="ZJBauCjtSy6QRAS6ge7c-351" style="rounded=0;orthogonalLoop=1;jettySize=auto;html=1;fillColor=#dae8fc;strokeColor=#6c8ebf;strokeWidth=2;" parent="ZJBauCjtSy6QRAS6ge7c-346" target="ZJBauCjtSy6QRAS6ge7c-354" edge="1">
          <mxGeometry relative="1" as="geometry">
            <mxPoint x="202" y="194" as="sourcePoint" />
          </mxGeometry>
        </mxCell>
        <mxCell id="ZJBauCjtSy6QRAS6ge7c-352" value="" style="group" parent="ZJBauCjtSy6QRAS6ge7c-346" vertex="1" connectable="0">
          <mxGeometry x="290" y="10" width="59" height="69" as="geometry" />
        </mxCell>
        <mxCell id="ZJBauCjtSy6QRAS6ge7c-353" style="edgeStyle=orthogonalEdgeStyle;rounded=0;orthogonalLoop=1;jettySize=auto;html=1;" parent="ZJBauCjtSy6QRAS6ge7c-352" source="ZJBauCjtSy6QRAS6ge7c-354" edge="1">
          <mxGeometry relative="1" as="geometry">
            <mxPoint x="29.5" y="60.000000000000114" as="targetPoint" />
            <Array as="points">
              <mxPoint x="30" y="60" />
              <mxPoint x="30" y="60" />
            </Array>
          </mxGeometry>
        </mxCell>
        <mxCell id="ZJBauCjtSy6QRAS6ge7c-354" value="" style="sketch=0;html=1;dashed=0;whitespace=wrap;fillColor=#2875E2;strokeColor=#ffffff;points=[[0.005,0.63,0],[0.1,0.2,0],[0.9,0.2,0],[0.5,0,0],[0.995,0.63,0],[0.72,0.99,0],[0.5,1,0],[0.28,0.99,0]];verticalLabelPosition=bottom;align=center;verticalAlign=top;shape=mxgraph.kubernetes.icon;prIcon=pod" parent="ZJBauCjtSy6QRAS6ge7c-352" vertex="1">
          <mxGeometry x="3.6875" width="51.625" height="47.37765306122449" as="geometry" />
        </mxCell>
        <mxCell id="ZJBauCjtSy6QRAS6ge7c-355" value="" style="group" parent="ZJBauCjtSy6QRAS6ge7c-346" vertex="1" connectable="0">
          <mxGeometry x="290" y="70" width="59" height="69" as="geometry" />
        </mxCell>
        <mxCell id="ZJBauCjtSy6QRAS6ge7c-356" value="" style="sketch=0;html=1;dashed=0;whitespace=wrap;fillColor=#2875E2;strokeColor=#ffffff;points=[[0.005,0.63,0],[0.1,0.2,0],[0.9,0.2,0],[0.5,0,0],[0.995,0.63,0],[0.72,0.99,0],[0.5,1,0],[0.28,0.99,0]];verticalLabelPosition=bottom;align=center;verticalAlign=top;shape=mxgraph.kubernetes.icon;prIcon=pod" parent="ZJBauCjtSy6QRAS6ge7c-355" vertex="1">
          <mxGeometry x="3.6875" width="51.625" height="47.37765306122449" as="geometry" />
        </mxCell>
        <mxCell id="ZJBauCjtSy6QRAS6ge7c-357" style="edgeStyle=orthogonalEdgeStyle;rounded=0;orthogonalLoop=1;jettySize=auto;html=1;" parent="ZJBauCjtSy6QRAS6ge7c-355" source="ZJBauCjtSy6QRAS6ge7c-356" edge="1">
          <mxGeometry relative="1" as="geometry">
            <mxPoint x="29.5" y="70.00000000000011" as="targetPoint" />
          </mxGeometry>
        </mxCell>
        <mxCell id="ZJBauCjtSy6QRAS6ge7c-358" value="" style="group" parent="ZJBauCjtSy6QRAS6ge7c-346" vertex="1" connectable="0">
          <mxGeometry x="290" y="133" width="59" height="69" as="geometry" />
        </mxCell>
        <mxCell id="ZJBauCjtSy6QRAS6ge7c-359" value="" style="sketch=0;html=1;dashed=0;whitespace=wrap;fillColor=#2875E2;strokeColor=#ffffff;points=[[0.005,0.63,0],[0.1,0.2,0],[0.9,0.2,0],[0.5,0,0],[0.995,0.63,0],[0.72,0.99,0],[0.5,1,0],[0.28,0.99,0]];verticalLabelPosition=bottom;align=center;verticalAlign=top;shape=mxgraph.kubernetes.icon;prIcon=pod" parent="ZJBauCjtSy6QRAS6ge7c-358" vertex="1">
          <mxGeometry x="3.6875" width="51.625" height="47.37765306122449" as="geometry" />
        </mxCell>
        <mxCell id="ZJBauCjtSy6QRAS6ge7c-360" value="" style="group" parent="ZJBauCjtSy6QRAS6ge7c-346" vertex="1" connectable="0">
          <mxGeometry x="290" y="200" width="59" height="69" as="geometry" />
        </mxCell>
        <mxCell id="ZJBauCjtSy6QRAS6ge7c-361" value="" style="sketch=0;html=1;dashed=0;whitespace=wrap;fillColor=#2875E2;strokeColor=#ffffff;points=[[0.005,0.63,0],[0.1,0.2,0],[0.9,0.2,0],[0.5,0,0],[0.995,0.63,0],[0.72,0.99,0],[0.5,1,0],[0.28,0.99,0]];verticalLabelPosition=bottom;align=center;verticalAlign=top;shape=mxgraph.kubernetes.icon;prIcon=pod" parent="ZJBauCjtSy6QRAS6ge7c-360" vertex="1">
          <mxGeometry x="3.6875" width="51.625" height="47.37765306122449" as="geometry" />
        </mxCell>
        <mxCell id="ZJBauCjtSy6QRAS6ge7c-362" style="rounded=0;orthogonalLoop=1;jettySize=auto;html=1;strokeWidth=2;startArrow=classic;startFill=1;" parent="ZJBauCjtSy6QRAS6ge7c-346" source="ZJBauCjtSy6QRAS6ge7c-354" edge="1">
          <mxGeometry relative="1" as="geometry">
            <mxPoint x="208" y="83" as="targetPoint" />
          </mxGeometry>
        </mxCell>
        <mxCell id="ZJBauCjtSy6QRAS6ge7c-363" style="edgeStyle=orthogonalEdgeStyle;rounded=0;orthogonalLoop=1;jettySize=auto;html=1;strokeWidth=2;fillColor=#e1d5e7;strokeColor=#9673a6;" parent="ZJBauCjtSy6QRAS6ge7c-346" source="ZJBauCjtSy6QRAS6ge7c-361" edge="1">
          <mxGeometry relative="1" as="geometry">
            <mxPoint x="227" y="223" as="targetPoint" />
          </mxGeometry>
        </mxCell>
        <mxCell id="ZJBauCjtSy6QRAS6ge7c-364" style="edgeStyle=orthogonalEdgeStyle;rounded=0;orthogonalLoop=1;jettySize=auto;html=1;entryX=0.5;entryY=0;entryDx=0;entryDy=0;entryPerimeter=0;" parent="ZJBauCjtSy6QRAS6ge7c-346" source="ZJBauCjtSy6QRAS6ge7c-359" target="ZJBauCjtSy6QRAS6ge7c-361" edge="1">
          <mxGeometry relative="1" as="geometry" />
        </mxCell>
        <mxCell id="ZJBauCjtSy6QRAS6ge7c-365" value="" style="group" parent="ZJBauCjtSy6QRAS6ge7c-329" vertex="1" connectable="0">
          <mxGeometry x="410" y="10" width="366.9" height="270" as="geometry" />
        </mxCell>
        <mxCell id="ZJBauCjtSy6QRAS6ge7c-366" value="" style="rounded=1;whiteSpace=wrap;html=1;fontSize=18;" parent="ZJBauCjtSy6QRAS6ge7c-365" vertex="1">
          <mxGeometry width="360" height="270" as="geometry" />
        </mxCell>
        <mxCell id="ZJBauCjtSy6QRAS6ge7c-367" value="&lt;b style=&quot;font-size: 18px;&quot;&gt;Data steward - VU&lt;br&gt;&lt;/b&gt;" style="text;html=1;strokeColor=none;fillColor=none;align=center;verticalAlign=middle;whiteSpace=wrap;rounded=0;fontSize=18;" parent="ZJBauCjtSy6QRAS6ge7c-365" vertex="1">
          <mxGeometry x="8.372093023255815" width="179.2213953488372" height="34.83870967741935" as="geometry" />
        </mxCell>
        <mxCell id="ZJBauCjtSy6QRAS6ge7c-368" value="&lt;font style=&quot;font-size: 20px;&quot;&gt;Data pod&lt;/font&gt;" style="sketch=0;outlineConnect=0;fontColor=#232F3E;gradientColor=none;fillColor=#000000;strokeColor=none;dashed=0;verticalLabelPosition=bottom;verticalAlign=top;align=center;html=1;fontSize=12;fontStyle=0;aspect=fixed;pointerEvents=1;shape=mxgraph.aws4.vault;" parent="ZJBauCjtSy6QRAS6ge7c-365" vertex="1">
          <mxGeometry x="151.62837209302324" y="59.99677419354838" width="56.7293023255814" height="71.37209302325581" as="geometry" />
        </mxCell>
        <mxCell id="ZJBauCjtSy6QRAS6ge7c-369" style="rounded=0;orthogonalLoop=1;jettySize=auto;html=1;fillColor=#dae8fc;strokeColor=#6c8ebf;strokeWidth=2;" parent="ZJBauCjtSy6QRAS6ge7c-365" source="ZJBauCjtSy6QRAS6ge7c-370" target="ZJBauCjtSy6QRAS6ge7c-372" edge="1">
          <mxGeometry relative="1" as="geometry" />
        </mxCell>
        <mxCell id="ZJBauCjtSy6QRAS6ge7c-370" value="&lt;font style=&quot;font-size: 18px;&quot;&gt;Distributed agent&lt;br&gt;&lt;/font&gt;" style="ellipse;whiteSpace=wrap;html=1;fontSize=18;" parent="ZJBauCjtSy6QRAS6ge7c-365" vertex="1">
          <mxGeometry x="133.09488372093023" y="190.0041935483871" width="93.80093023255814" height="65.5316129032258" as="geometry" />
        </mxCell>
        <mxCell id="ZJBauCjtSy6QRAS6ge7c-371" value="" style="group" parent="ZJBauCjtSy6QRAS6ge7c-365" vertex="1" connectable="0">
          <mxGeometry x="290" y="10" width="59" height="69" as="geometry" />
        </mxCell>
        <mxCell id="ZJBauCjtSy6QRAS6ge7c-372" value="" style="sketch=0;html=1;dashed=0;whitespace=wrap;fillColor=#2875E2;strokeColor=#ffffff;points=[[0.005,0.63,0],[0.1,0.2,0],[0.9,0.2,0],[0.5,0,0],[0.995,0.63,0],[0.72,0.99,0],[0.5,1,0],[0.28,0.99,0]];verticalLabelPosition=bottom;align=center;verticalAlign=top;shape=mxgraph.kubernetes.icon;prIcon=pod" parent="ZJBauCjtSy6QRAS6ge7c-371" vertex="1">
          <mxGeometry x="3.6875" width="51.625" height="47.37765306122449" as="geometry" />
        </mxCell>
        <mxCell id="ZJBauCjtSy6QRAS6ge7c-373" value="" style="group" parent="ZJBauCjtSy6QRAS6ge7c-365" vertex="1" connectable="0">
          <mxGeometry x="290" y="70" width="59" height="69" as="geometry" />
        </mxCell>
        <mxCell id="ZJBauCjtSy6QRAS6ge7c-374" value="" style="sketch=0;html=1;dashed=0;whitespace=wrap;fillColor=#2875E2;strokeColor=#ffffff;points=[[0.005,0.63,0],[0.1,0.2,0],[0.9,0.2,0],[0.5,0,0],[0.995,0.63,0],[0.72,0.99,0],[0.5,1,0],[0.28,0.99,0]];verticalLabelPosition=bottom;align=center;verticalAlign=top;shape=mxgraph.kubernetes.icon;prIcon=pod" parent="ZJBauCjtSy6QRAS6ge7c-373" vertex="1">
          <mxGeometry x="3.6875" width="51.625" height="47.37765306122449" as="geometry" />
        </mxCell>
        <mxCell id="ZJBauCjtSy6QRAS6ge7c-375" value="" style="group" parent="ZJBauCjtSy6QRAS6ge7c-365" vertex="1" connectable="0">
          <mxGeometry x="290" y="133" width="59" height="69" as="geometry" />
        </mxCell>
        <mxCell id="ZJBauCjtSy6QRAS6ge7c-376" value="" style="sketch=0;html=1;dashed=0;whitespace=wrap;fillColor=#2875E2;strokeColor=#ffffff;points=[[0.005,0.63,0],[0.1,0.2,0],[0.9,0.2,0],[0.5,0,0],[0.995,0.63,0],[0.72,0.99,0],[0.5,1,0],[0.28,0.99,0]];verticalLabelPosition=bottom;align=center;verticalAlign=top;shape=mxgraph.kubernetes.icon;prIcon=pod" parent="ZJBauCjtSy6QRAS6ge7c-375" vertex="1">
          <mxGeometry x="3.6875" width="51.625" height="47.37765306122449" as="geometry" />
        </mxCell>
        <mxCell id="ZJBauCjtSy6QRAS6ge7c-377" value="" style="group" parent="ZJBauCjtSy6QRAS6ge7c-365" vertex="1" connectable="0">
          <mxGeometry x="290" y="200" width="59" height="69" as="geometry" />
        </mxCell>
        <mxCell id="ZJBauCjtSy6QRAS6ge7c-378" value="" style="sketch=0;html=1;dashed=0;whitespace=wrap;fillColor=#2875E2;strokeColor=#ffffff;points=[[0.005,0.63,0],[0.1,0.2,0],[0.9,0.2,0],[0.5,0,0],[0.995,0.63,0],[0.72,0.99,0],[0.5,1,0],[0.28,0.99,0]];verticalLabelPosition=bottom;align=center;verticalAlign=top;shape=mxgraph.kubernetes.icon;prIcon=pod" parent="ZJBauCjtSy6QRAS6ge7c-377" vertex="1">
          <mxGeometry x="3.6875" width="51.625" height="47.37765306122449" as="geometry" />
        </mxCell>
        <mxCell id="ZJBauCjtSy6QRAS6ge7c-379" style="edgeStyle=orthogonalEdgeStyle;rounded=0;orthogonalLoop=1;jettySize=auto;html=1;entryX=0.502;entryY=0.203;entryDx=0;entryDy=0;entryPerimeter=0;" parent="ZJBauCjtSy6QRAS6ge7c-365" source="ZJBauCjtSy6QRAS6ge7c-374" target="ZJBauCjtSy6QRAS6ge7c-376" edge="1">
          <mxGeometry relative="1" as="geometry" />
        </mxCell>
        <mxCell id="ZJBauCjtSy6QRAS6ge7c-380" style="edgeStyle=orthogonalEdgeStyle;rounded=0;orthogonalLoop=1;jettySize=auto;html=1;" parent="ZJBauCjtSy6QRAS6ge7c-365" source="ZJBauCjtSy6QRAS6ge7c-376" target="ZJBauCjtSy6QRAS6ge7c-378" edge="1">
          <mxGeometry relative="1" as="geometry" />
        </mxCell>
        <mxCell id="ZJBauCjtSy6QRAS6ge7c-381" style="edgeStyle=orthogonalEdgeStyle;rounded=0;orthogonalLoop=1;jettySize=auto;html=1;" parent="ZJBauCjtSy6QRAS6ge7c-365" source="ZJBauCjtSy6QRAS6ge7c-372" target="ZJBauCjtSy6QRAS6ge7c-374" edge="1">
          <mxGeometry relative="1" as="geometry" />
        </mxCell>
        <mxCell id="ZJBauCjtSy6QRAS6ge7c-382" style="rounded=0;orthogonalLoop=1;jettySize=auto;html=1;strokeWidth=2;startArrow=classic;startFill=1;" parent="ZJBauCjtSy6QRAS6ge7c-365" source="ZJBauCjtSy6QRAS6ge7c-372" target="ZJBauCjtSy6QRAS6ge7c-368" edge="1">
          <mxGeometry relative="1" as="geometry" />
        </mxCell>
        <mxCell id="ZJBauCjtSy6QRAS6ge7c-383" style="edgeStyle=orthogonalEdgeStyle;rounded=0;orthogonalLoop=1;jettySize=auto;html=1;strokeWidth=2;fillColor=#e1d5e7;strokeColor=#9673a6;" parent="ZJBauCjtSy6QRAS6ge7c-365" source="ZJBauCjtSy6QRAS6ge7c-378" target="ZJBauCjtSy6QRAS6ge7c-370" edge="1">
          <mxGeometry relative="1" as="geometry" />
        </mxCell>
        <mxCell id="ZJBauCjtSy6QRAS6ge7c-384" value="" style="endArrow=classic;html=1;rounded=0;entryX=0.5;entryY=1;entryDx=0;entryDy=0;fillColor=#dae8fc;strokeColor=#6c8ebf;strokeWidth=4;edgeStyle=orthogonalEdgeStyle;curved=1;" parent="ZJBauCjtSy6QRAS6ge7c-329" source="ZJBauCjtSy6QRAS6ge7c-331" target="ZJBauCjtSy6QRAS6ge7c-350" edge="1">
          <mxGeometry width="50" height="50" relative="1" as="geometry">
            <mxPoint x="135" y="674" as="sourcePoint" />
            <mxPoint x="610" y="476" as="targetPoint" />
            <Array as="points">
              <mxPoint x="590" y="650" />
            </Array>
          </mxGeometry>
        </mxCell>
        <mxCell id="ZJBauCjtSy6QRAS6ge7c-385" value="" style="endArrow=classic;html=1;rounded=0;strokeWidth=4;fillColor=#dae8fc;strokeColor=#6c8ebf;entryX=0;entryY=0.5;entryDx=0;entryDy=0;edgeStyle=orthogonalEdgeStyle;curved=1;" parent="ZJBauCjtSy6QRAS6ge7c-329" source="ZJBauCjtSy6QRAS6ge7c-331" target="ZJBauCjtSy6QRAS6ge7c-370" edge="1">
          <mxGeometry width="50" height="50" relative="1" as="geometry">
            <mxPoint x="130" y="650" as="sourcePoint" />
            <mxPoint x="553" y="143" as="targetPoint" />
            <Array as="points">
              <mxPoint x="70" y="233" />
            </Array>
          </mxGeometry>
        </mxCell>
        <mxCell id="ZJBauCjtSy6QRAS6ge7c-386" value="" style="endArrow=none;html=1;rounded=0;edgeStyle=orthogonalEdgeStyle;curved=1;startArrow=classic;startFill=1;endFill=0;fillColor=#e1d5e7;strokeColor=#9673a6;strokeWidth=4;" parent="ZJBauCjtSy6QRAS6ge7c-329" source="ZJBauCjtSy6QRAS6ge7c-331" target="ZJBauCjtSy6QRAS6ge7c-350" edge="1">
          <mxGeometry width="50" height="50" relative="1" as="geometry">
            <mxPoint x="30" y="710" as="sourcePoint" />
            <mxPoint x="563" y="443" as="targetPoint" />
            <Array as="points">
              <mxPoint x="80" y="550" />
            </Array>
          </mxGeometry>
        </mxCell>
        <mxCell id="ZJBauCjtSy6QRAS6ge7c-387" value="&lt;font style=&quot;font-size: 21px;&quot;&gt;Result&lt;br&gt;&lt;/font&gt;" style="text;html=1;strokeColor=none;fillColor=none;align=center;verticalAlign=middle;whiteSpace=wrap;rounded=0;" parent="ZJBauCjtSy6QRAS6ge7c-329" vertex="1">
          <mxGeometry x="267" y="508" width="80" height="37" as="geometry" />
        </mxCell>
        <mxCell id="ZJBauCjtSy6QRAS6ge7c-388" style="edgeStyle=orthogonalEdgeStyle;rounded=0;orthogonalLoop=1;jettySize=auto;html=1;exitX=0;exitY=0;exitDx=0;exitDy=0;curved=1;strokeWidth=4;fillColor=#e1d5e7;strokeColor=#9673a6;" parent="ZJBauCjtSy6QRAS6ge7c-329" source="ZJBauCjtSy6QRAS6ge7c-370" target="ZJBauCjtSy6QRAS6ge7c-331" edge="1">
          <mxGeometry relative="1" as="geometry">
            <mxPoint x="553" y="143" as="sourcePoint" />
            <mxPoint x="65" y="689" as="targetPoint" />
            <Array as="points">
              <mxPoint x="50" y="210" />
            </Array>
          </mxGeometry>
        </mxCell>
        <mxCell id="ZJBauCjtSy6QRAS6ge7c-389" value="&lt;font style=&quot;font-size: 16px;&quot;&gt;&lt;b&gt;5&lt;br&gt;&lt;/b&gt;&lt;/font&gt;" style="ellipse;whiteSpace=wrap;html=1;aspect=fixed;strokeWidth=2;fontFamily=Tahoma;spacingBottom=4;spacingRight=2;strokeColor=#9673a6;fillColor=#e1d5e7;" parent="ZJBauCjtSy6QRAS6ge7c-329" vertex="1">
          <mxGeometry x="220" y="503" width="47" height="47" as="geometry" />
        </mxCell>
        <mxCell id="ZJBauCjtSy6QRAS6ge7c-390" value="&lt;font style=&quot;font-size: 21px;&quot;&gt;DataRequest&lt;/font&gt;" style="text;html=1;strokeColor=none;fillColor=none;align=center;verticalAlign=middle;whiteSpace=wrap;rounded=0;" parent="ZJBauCjtSy6QRAS6ge7c-329" vertex="1">
          <mxGeometry x="270" y="315" width="140" height="37" as="geometry" />
        </mxCell>
        <mxCell id="ZJBauCjtSy6QRAS6ge7c-391" value="&lt;font style=&quot;font-size: 16px;&quot;&gt;&lt;b&gt;4&lt;/b&gt;&lt;/font&gt;" style="ellipse;whiteSpace=wrap;html=1;aspect=fixed;strokeWidth=2;fontFamily=Tahoma;spacingBottom=4;spacingRight=2;strokeColor=#6c8ebf;fillColor=#dae8fc;" parent="ZJBauCjtSy6QRAS6ge7c-329" vertex="1">
          <mxGeometry x="220" y="310" width="47" height="47" as="geometry" />
        </mxCell>
        <mxCell id="ZJBauCjtSy6QRAS6ge7c-392" style="edgeStyle=orthogonalEdgeStyle;rounded=0;orthogonalLoop=1;jettySize=auto;html=1;exitX=0.5;exitY=1;exitDx=0;exitDy=0;" parent="ZJBauCjtSy6QRAS6ge7c-329" source="ZJBauCjtSy6QRAS6ge7c-390" target="ZJBauCjtSy6QRAS6ge7c-390" edge="1">
          <mxGeometry relative="1" as="geometry" />
        </mxCell>
        <mxCell id="ZJBauCjtSy6QRAS6ge7c-393" value="&lt;font style=&quot;font-size: 21px;&quot;&gt;Result&lt;br&gt;&lt;/font&gt;" style="text;html=1;strokeColor=none;fillColor=none;align=center;verticalAlign=middle;whiteSpace=wrap;rounded=0;" parent="ZJBauCjtSy6QRAS6ge7c-329" vertex="1">
          <mxGeometry x="257" y="195" width="80" height="37" as="geometry" />
        </mxCell>
        <mxCell id="ZJBauCjtSy6QRAS6ge7c-394" value="&lt;font style=&quot;font-size: 16px;&quot;&gt;&lt;b&gt;5&lt;br&gt;&lt;/b&gt;&lt;/font&gt;" style="ellipse;whiteSpace=wrap;html=1;aspect=fixed;strokeWidth=2;fontFamily=Tahoma;spacingBottom=4;spacingRight=2;strokeColor=#9673a6;fillColor=#e1d5e7;" parent="ZJBauCjtSy6QRAS6ge7c-329" vertex="1">
          <mxGeometry x="210" y="190" width="47" height="47" as="geometry" />
        </mxCell>
      </root>
    </mxGraphModel>
  </diagram>
</mxfile>
